<svg width="688" height="584" viewBox="0 0 688 584" fill="none" xmlns="http://www.w3.org/2000/svg">
<path d="M466.923 234.13C476.555 239.749 476.555 248.579 466.923 254.198L334.204 331.261C324.572 336.88 309.052 336.88 299.419 331.261L165.898 254.198C156.265 248.579 156.265 239.749 165.898 234.13L298.617 157.068C308.249 151.449 323.769 151.449 333.402 157.068L466.923 234.13Z" fill="url(#paint0_linear)"/>
<path opacity="0.5" d="M466.923 365.243C476.555 370.862 476.555 379.692 466.923 385.311L334.204 462.374C324.572 467.993 309.052 467.993 299.419 462.374L165.898 385.311C156.265 379.692 156.265 370.862 165.898 365.243L298.617 288.181C308.249 282.562 323.769 282.562 333.402 288.181L466.923 365.243Z" fill="url(#paint1_linear)"/>
<path d="M466.922 254.198L334.204 331.261C324.571 336.88 309.052 336.88 299.419 331.261L165.898 254.198C161.081 251.523 158.673 247.777 158.673 244.031L158.406 327.515C158.406 331.261 160.814 334.739 165.63 337.683L299.151 414.745C308.784 420.364 324.304 420.364 333.936 414.745L466.655 337.683C471.471 335.007 473.879 331.261 473.879 327.782L474.147 244.298C474.147 247.777 471.739 251.523 466.922 254.198Z" fill="url(#paint2_linear)"/>
<path d="M466.922 254.198L334.204 331.261C324.571 336.88 309.052 336.88 299.419 331.261L165.898 254.198C161.081 251.523 158.673 247.777 158.673 244.031L158.406 327.515C158.406 331.261 160.814 334.739 165.63 337.683L299.151 414.745C308.784 420.364 324.304 420.364 333.936 414.745L466.655 337.683C471.471 335.007 473.879 331.261 473.879 327.782L474.147 244.298C474.147 247.777 471.739 251.523 466.922 254.198Z" fill="url(#paint3_linear)" stroke="white" stroke-width="0.5" stroke-miterlimit="10"/>
<path d="M466.923 234.13C476.555 239.749 476.555 248.579 466.923 254.198L334.204 331.261C324.572 336.88 309.052 336.88 299.419 331.261L165.898 254.198C156.265 248.579 156.265 239.749 165.898 234.13L298.617 157.068C308.249 151.449 323.769 151.449 333.402 157.068L466.923 234.13Z" fill="url(#paint4_linear)"/>
<path d="M438.024 236.003C445.784 240.552 445.784 247.777 438.024 252.325L330.726 314.671C322.966 319.22 310.39 319.22 302.63 314.671L194.796 252.325C187.037 247.777 187.037 240.552 194.796 236.003L302.095 173.658C309.855 169.109 322.431 169.109 330.191 173.658L438.024 236.003Z" fill="#FFE2E4"/>
<path d="M438.024 236.003C445.784 240.552 445.784 247.777 438.024 252.325L330.726 314.671C322.966 319.22 310.39 319.22 302.63 314.671L194.796 252.325C187.037 247.777 187.037 240.552 194.796 236.003L302.095 173.658C309.855 169.109 322.431 169.109 330.191 173.658L438.024 236.003Z" fill="url(#paint5_linear)"/>
<path d="M298.884 27.293C300.489 28.0957 301.827 29.4336 303.433 30.7715L372.2 94.1873C378.889 100.342 383.438 109.974 383.438 118.002L383.171 204.964C383.171 219.146 378.354 230.384 368.989 238.679C362.3 244.566 353.202 249.115 341.964 251.79C323.501 256.339 305.306 255.269 304.771 255.269C302.63 255.269 300.489 254.466 298.349 253.128C296.208 251.79 294.067 250.185 291.927 247.777C291.124 246.974 273.196 227.173 254.733 201.218C243.495 185.431 234.665 170.714 227.976 157.068C218.611 137.802 214.062 120.945 214.062 107.031L214.329 20.0684C214.329 12.0411 218.878 7.75982 225.568 9.36528L294.603 25.4199C295.94 25.9551 297.278 26.4902 298.884 27.293Z" fill="url(#paint6_linear)"/>
<path d="M387.987 85.0896L319.22 21.6738C317.882 20.3359 316.276 19.2656 314.671 18.1953C313.065 17.3925 311.728 16.5898 310.122 16.3222L241.087 0.267586C238.411 -0.267569 236.271 -2.42423e-05 234.398 1.07029L218.611 10.1679C220.484 9.09763 222.624 8.83005 225.3 9.3652L294.335 25.4198C295.94 25.6874 297.278 26.4901 298.884 27.2929C300.489 28.0956 301.827 29.4335 303.433 30.7714L372.2 94.1872C378.889 100.341 383.438 109.974 383.438 118.002L383.171 204.964C383.171 219.146 378.354 230.384 368.989 238.679C366.581 240.82 363.905 242.693 360.962 244.298L376.749 235.2C379.692 233.595 382.368 231.722 384.776 229.581C394.141 221.286 398.958 209.781 398.958 195.867L399.225 108.904C399.225 100.877 394.676 91.2439 387.987 85.0896Z" fill="url(#paint7_linear)"/>
<path d="M298.616 40.9394C299.151 41.2069 299.687 41.4745 300.222 42.0097L368.989 105.425C371.13 107.299 372.735 110.509 372.735 113.185L372.468 200.148C372.468 211.386 368.454 220.751 360.427 227.708C354.272 233.06 345.978 237.074 335.542 239.749C318.149 244.298 300.757 243.228 300.222 243.228C299.687 243.228 298.884 242.96 298.081 242.425C297.278 241.89 296.743 241.355 295.94 240.552C295.138 239.749 278.013 221.019 260.62 196.402C250.185 181.685 241.89 168.039 236.003 155.73C228.243 139.675 224.23 125.761 224.23 114.523L224.497 27.5605C224.497 24.8847 226.103 23.5468 228.243 24.082L297.278 40.1366C297.546 40.4042 298.081 40.6718 298.616 40.9394Z" fill="url(#paint8_linear)"/>
<path d="M299.954 42.0097C299.419 41.4746 298.884 41.207 298.349 40.9394C297.814 40.6719 297.279 40.4043 296.743 40.4043L245.636 28.6309C260.621 82.1463 294.87 157.871 371.933 194.529L372.2 113.453C372.2 110.777 370.595 107.566 368.454 105.693L299.954 42.0097Z" fill="url(#paint9_linear)"/>
<g opacity="0.42">
<path d="M195.599 328.05C201.754 331.528 206.57 340.091 206.57 347.048L206.303 421.702C206.303 428.659 201.219 431.602 195.332 427.856L90.9767 367.651C84.8224 364.173 80.0061 355.61 80.0061 348.653L80.2736 273.999C80.2736 267.042 85.3576 264.099 91.2443 267.845L195.599 328.05Z" fill="#FFE2E4"/>
<path d="M195.599 328.05C201.754 331.528 206.57 340.091 206.57 347.048L206.303 421.702C206.303 428.659 201.219 431.602 195.332 427.856L90.9767 367.651C84.8224 364.173 80.0061 355.61 80.0061 348.653L80.2736 273.999C80.2736 267.042 85.3576 264.099 91.2443 267.845L195.599 328.05Z" fill="url(#paint10_linear)"/>
</g>
<path d="M176.066 338.753C182.22 342.231 187.037 350.794 187.037 357.751L186.769 432.405C186.769 439.362 181.685 442.305 175.799 438.559L71.4433 378.354C65.2891 374.876 60.4727 366.313 60.4727 359.356L60.7402 284.702C60.7402 277.745 65.8242 274.802 71.7109 278.548L176.066 338.753Z" fill="url(#paint11_linear)" fill-opacity="0.75"/>
<path d="M149.576 402.704C150.111 403.507 150.914 404.309 151.717 404.844C151.984 404.844 151.984 405.112 152.252 405.112C151.449 404.844 150.379 404.309 149.576 404.042V402.704Z" fill="#747878"/>
<path d="M149.041 356.145C149.041 356.145 149.309 356.145 149.041 356.145C148.773 355.878 148.238 355.61 147.703 355.343L147.971 355.61C148.506 355.61 148.773 355.878 149.041 356.145Z" fill="#6C7070"/>
<g opacity="0.5">
<path opacity="0.5" d="M42.277 403.774C43.8824 404.845 43.8824 406.45 42.277 407.253L25.152 417.153C23.5466 418.224 20.8708 418.224 18.9977 417.153L1.60519 407.253C-0.000273526 406.183 -0.000273526 404.577 1.60519 403.774L18.7301 393.874C20.3356 392.804 23.0114 392.804 24.8845 393.874L42.277 403.774Z" fill="url(#paint12_linear)"/>
</g>
<path d="M42.2779 392.804L25.153 402.704C23.5475 403.774 20.8717 403.774 18.9986 402.704L1.60611 392.804C0.803374 392.268 0.268219 391.733 0.268219 390.931V400.028C0.268219 400.563 0.803374 401.366 1.60611 401.901L18.9986 411.802C20.6041 412.872 23.2799 412.872 25.153 411.802L42.2779 401.901C43.0806 401.366 43.6158 400.831 43.6158 400.028V390.931C43.3482 391.733 43.0806 392.268 42.2779 392.804Z" fill="url(#paint13_linear)"/>
<path d="M21.9417 412.872C20.8713 412.872 19.5334 412.604 18.7307 412.069L1.33816 402.169C0.535429 401.634 0.000274658 400.831 0.000274658 400.296V391.198H0.535462C0.535462 391.733 1.0706 392.268 1.60576 392.803L18.9983 402.704C20.6037 403.507 23.2796 403.507 24.885 402.704L42.01 392.803C42.8127 392.268 43.0802 391.733 43.0802 391.198H43.6154V400.296C43.6154 401.098 43.0803 401.634 42.2775 402.169L25.1526 412.069C24.3499 412.604 23.2795 412.872 21.9417 412.872ZM0.803056 392.268V400.028C0.803056 400.563 1.33819 401.098 1.87335 401.634L19.2659 411.534C20.8713 412.337 23.5471 412.337 25.1526 411.534L42.2775 401.634C43.0803 401.098 43.3478 400.563 43.3478 400.028V392.268C43.0803 392.536 42.8127 392.803 42.5451 393.071L25.4201 402.971C23.5471 404.042 20.8713 404.042 18.9983 402.971L1.60576 393.071C1.33818 392.803 0.803056 392.536 0.803056 392.268Z" fill="white"/>
<path d="M42.2771 389.325C43.8825 390.396 43.8825 392.001 42.2771 392.804L25.1521 402.704C23.5467 403.774 20.8709 403.774 18.9978 402.704L1.60528 392.804C-0.000181973 391.733 -0.000181973 390.128 1.60528 389.325L18.7302 379.425C20.3357 378.354 23.0115 378.354 24.8845 379.425L42.2771 389.325Z" fill="url(#paint14_linear)"/>
<path d="M36.3908 384.509L24.3499 391.466C23.2796 392.268 21.1389 392.268 20.0686 391.466L7.76012 384.509C7.22496 384.241 6.95734 383.706 6.95734 383.171V390.931C6.95734 391.466 7.22496 391.733 7.76012 392.269L20.0686 399.226C21.1389 400.028 23.2796 400.028 24.3499 399.226L36.3908 392.269C36.926 392.001 37.1936 391.466 37.1936 390.931V383.171C37.1936 383.706 36.926 383.974 36.3908 384.509Z" fill="url(#paint15_linear)"/>
<path d="M36.3909 381.833C37.4612 382.636 37.4612 383.706 36.3909 384.241L24.3499 391.198C23.2796 392.001 21.139 392.001 20.0687 391.198L7.76019 384.241C6.68988 383.438 6.68988 382.368 7.76019 381.833L19.8012 374.876C20.8715 374.073 23.012 374.073 24.0823 374.876L36.3909 381.833Z" fill="#FFE2E4"/>
<path d="M36.3909 381.833C37.4612 382.636 37.4612 383.706 36.3909 384.241L24.3499 391.198C23.2796 392.001 21.139 392.001 20.0687 391.198L7.76019 384.241C6.68988 383.438 6.68988 382.368 7.76019 381.833L19.8012 374.876C20.8715 374.073 23.012 374.073 24.0823 374.876L36.3909 381.833Z" fill="url(#paint16_linear)"/>
<g opacity="0.5">
<path opacity="0.5" d="M138.873 506.524C141.816 508.129 141.816 510.805 138.873 512.41L109.974 529.268C107.031 530.873 102.482 530.873 99.8065 529.268L70.9081 512.41C67.9648 510.805 67.9648 508.129 70.9081 506.524L99.8065 489.666C102.75 488.061 107.299 488.061 109.974 489.666L138.873 506.524Z" fill="url(#paint17_linear)"/>
</g>
<path d="M138.872 488.061L109.974 504.918C107.031 506.524 102.482 506.524 99.806 504.918L70.9076 488.061C69.5698 487.258 68.7671 486.188 68.7671 485.117V500.369C68.7671 501.44 69.5698 502.51 70.9076 503.313L99.806 520.17C102.749 521.775 107.298 521.775 109.974 520.17L138.872 503.313C140.21 502.51 141.013 501.44 141.013 500.369V485.117C141.013 486.188 140.21 487.258 138.872 488.061Z" fill="url(#paint18_linear)"/>
<path d="M104.89 521.775C103.017 521.775 101.144 521.24 99.5386 520.438L70.6403 503.58C69.0349 502.778 68.2321 501.44 68.2321 500.102V484.85H69.0348C69.0348 485.92 69.8375 486.723 70.9078 487.526L99.8062 504.383C102.482 505.988 107.031 505.988 109.707 504.383L138.605 487.526C139.943 486.723 140.478 485.92 140.478 484.85H141.281V500.102C141.281 501.44 140.478 502.51 138.873 503.313L109.974 520.17C108.904 521.508 107.031 521.775 104.89 521.775ZM69.3024 487.258V500.369C69.3024 501.44 70.1051 502.242 71.1754 503.045L100.074 519.902C102.75 521.508 107.298 521.508 109.974 519.902L138.873 503.045C140.21 502.242 140.746 501.44 140.746 500.369V487.258C140.478 487.793 139.943 488.061 139.408 488.328L110.509 505.186C107.566 506.791 102.75 506.791 99.8062 505.186L70.9078 488.328C70.1051 488.061 69.57 487.793 69.3024 487.258Z" fill="white"/>
<path d="M138.873 482.174C141.816 483.78 141.816 486.455 138.873 488.061L109.974 504.918C107.031 506.524 102.482 506.524 99.8064 504.918L70.908 488.061C67.9647 486.455 67.9647 483.78 70.908 482.174L99.8064 465.317C102.75 463.711 107.299 463.711 109.974 465.317L138.873 482.174Z" fill="url(#paint19_linear)"/>
<path d="M128.972 474.147L108.637 485.92C106.764 486.991 103.285 486.991 101.412 485.92L80.8085 474.147C79.7382 473.612 79.2031 472.809 79.2031 472.006V485.118C79.2031 485.92 79.7382 486.723 80.8085 487.258L101.412 499.032C103.285 500.102 106.764 500.102 108.637 499.032L128.972 487.258C130.043 486.723 130.578 485.92 130.578 485.118V472.006C130.578 472.809 130.043 473.612 128.972 474.147Z" fill="url(#paint20_linear)"/>
<path d="M128.973 469.866C130.846 470.936 131.114 472.809 128.973 474.147L108.637 485.92C106.764 486.991 103.286 486.991 101.413 485.92L80.8095 474.147C78.9364 473.077 78.6688 471.204 80.8095 469.866L101.145 458.092C103.018 457.022 106.497 457.022 108.37 458.092L128.973 469.866Z" fill="#FFE2E4"/>
<path d="M128.973 469.866C130.846 470.936 131.114 472.809 128.973 474.147L108.637 485.92C106.764 486.991 103.286 486.991 101.413 485.92L80.8095 474.147C78.9364 473.077 78.6688 471.204 80.8095 469.866L101.145 458.092C103.018 457.022 106.497 457.022 108.37 458.092L128.973 469.866Z" fill="url(#paint21_linear)"/>
<g opacity="0.42">
<g opacity="0.42">
<path d="M142.887 123.621L142.619 240.284L70.373 198.81L70.9082 82.1462L142.887 123.621Z" fill="#FFE2E4"/>
<path d="M142.887 123.621L142.619 240.284L70.373 198.81L70.9082 82.1462L142.887 123.621Z" fill="url(#paint22_linear)"/>
</g>
</g>
<g opacity="0.42">
<g opacity="0.42">
<path d="M153.857 118.269L153.589 218.611L91.5112 182.755L91.7788 82.4139L153.857 118.269Z" fill="#FFE2E4"/>
<path d="M153.857 118.269L153.589 218.611L91.5112 182.755L91.7788 82.4139L153.857 118.269Z" fill="url(#paint23_linear)"/>
</g>
</g>
<path d="M134.056 128.972L133.789 245.636L61.5428 204.162L61.8104 87.4978L134.056 128.972Z" fill="url(#paint24_linear)"/>
<path d="M88.836 142.351V144.492C88.836 145.83 87.4981 146.632 86.4278 145.83L75.9923 139.943C75.4572 139.675 75.1895 139.14 75.1895 138.605V136.464C75.1895 135.127 76.5274 134.324 77.5977 135.127L88.0333 141.013C88.5685 141.281 88.836 141.816 88.836 142.351Z" fill="url(#paint25_linear)"/>
<path d="M121.748 172.32V174.461C121.748 175.798 120.41 176.601 119.34 175.798L75.9923 150.914C75.4572 150.646 75.1895 150.111 75.1895 149.576V147.435C75.1895 146.097 76.5274 145.295 77.5977 146.097L120.945 170.982C121.48 171.25 121.748 171.785 121.748 172.32Z" fill="url(#paint26_linear)"/>
<g opacity="0.53">
<path opacity="0.53" d="M104.088 184.093V186.234C104.088 187.572 102.75 188.374 101.68 187.572L76.2599 172.855C75.7248 172.587 75.4572 172.052 75.4572 171.517V169.376C75.4572 168.039 76.7951 167.236 77.8654 168.039L103.285 182.755C103.553 182.755 104.088 183.29 104.088 184.093Z" fill="url(#paint27_linear)"/>
</g>
<path d="M115.059 179.544V181.685C115.059 183.023 113.721 183.826 112.65 183.023L75.9923 161.884C75.4572 161.617 75.1895 161.082 75.1895 160.546V158.406C75.1895 157.068 76.5274 156.265 77.5977 157.068L114.256 178.207C114.791 178.207 115.059 178.742 115.059 179.544Z" fill="url(#paint28_linear)"/>
<path d="M252.86 525.254L327.782 572.348C337.415 578.502 349.991 577.967 359.089 571.278L683.928 374.073C687.941 371.665 687.674 365.511 683.392 363.638L604.189 325.642" stroke="#FFE2E4" stroke-miterlimit="10"/>
<path d="M252.86 525.254L327.782 572.348C337.415 578.502 349.991 577.967 359.089 571.278L683.928 374.073C687.941 371.665 687.674 365.511 683.392 363.638L604.189 325.642" stroke="url(#paint29_linear)" stroke-miterlimit="10"/>
<path opacity="0.5" d="M313.601 533.817C318.417 536.492 318.417 541.041 313.601 543.717L248.847 581.445C244.298 584.121 236.539 584.121 231.99 581.445L166.433 543.717C161.617 541.041 161.617 536.492 166.433 533.817L231.187 496.088C235.736 493.412 243.496 493.412 248.045 496.088L313.601 533.817Z" fill="url(#paint30_linear)"/>
<path d="M313.601 511.073L248.847 548.801C244.298 551.477 236.539 551.477 231.99 548.801L166.433 511.073C164.025 509.735 162.955 507.862 162.955 505.989V515.354C162.955 517.227 164.025 518.832 166.433 520.438L231.722 558.166C236.539 560.842 244.031 560.842 248.58 558.166L313.333 520.438C315.742 519.1 316.812 517.227 316.812 515.621V506.256C317.08 507.862 316.009 509.735 313.601 511.073Z" fill="url(#paint31_linear)"/>
<path d="M313.601 511.073L248.847 548.801C244.298 551.477 236.539 551.477 231.99 548.801L166.433 511.073C164.025 509.735 162.955 507.862 162.955 505.989V515.354C162.955 517.227 164.025 518.832 166.433 520.438L231.722 558.166C236.539 560.842 244.031 560.842 248.58 558.166L313.333 520.438C315.742 519.1 316.812 517.227 316.812 515.621V506.256C317.08 507.862 316.009 509.735 313.601 511.073Z" fill="url(#paint32_linear)" stroke="white" stroke-width="0.5" stroke-miterlimit="10"/>
<path d="M313.601 501.172C318.417 503.848 318.417 508.397 313.601 511.073L248.847 548.801C244.298 551.477 236.539 551.477 231.99 548.801L166.433 511.073C161.617 508.397 161.617 503.848 166.433 501.172L231.187 463.444C235.736 460.768 243.496 460.768 248.045 463.444L313.601 501.172Z" fill="url(#paint33_linear)"/>
<path d="M291.392 502.778C294.603 504.651 294.603 507.862 291.392 509.735L245.904 536.225C242.693 538.098 237.342 538.098 234.131 536.225L188.375 509.735C185.164 507.862 185.164 504.651 188.375 502.778L233.863 476.288C237.074 474.414 242.426 474.414 245.637 476.288L291.392 502.778Z" fill="#FFE2E4"/>
<path d="M291.392 502.778C294.603 504.651 294.603 507.862 291.392 509.735L245.904 536.225C242.693 538.098 237.342 538.098 234.131 536.225L188.375 509.735C185.164 507.862 185.164 504.651 188.375 502.778L233.863 476.288C237.074 474.414 242.426 474.414 245.637 476.288L291.392 502.778Z" fill="url(#paint34_linear)"/>
<g opacity="0.55">
<path d="M291.392 484.85C294.603 486.723 294.603 489.934 291.392 491.807L245.904 518.297C242.693 520.17 237.342 520.17 234.131 518.297L188.375 491.807C185.164 489.934 185.164 486.723 188.375 484.85L233.863 458.36C237.074 456.487 242.426 456.487 245.637 458.36L291.392 484.85Z" fill="#FFE2E4"/>
<path d="M291.392 484.85C294.603 486.723 294.603 489.934 291.392 491.807L245.904 518.297C242.693 520.17 237.342 520.17 234.131 518.297L188.375 491.807C185.164 489.934 185.164 486.723 188.375 484.85L233.863 458.36C237.074 456.487 242.426 456.487 245.637 458.36L291.392 484.85Z" fill="url(#paint35_linear)"/>
</g>
<g opacity="0.5">
<path opacity="0.5" d="M637.369 323.233C641.65 325.642 641.65 329.923 637.369 332.331L593.219 358.018C588.938 360.427 581.981 360.427 577.432 358.018L533.014 332.331C528.733 329.923 528.733 325.642 533.014 323.233L577.164 297.546C581.446 295.138 588.403 295.138 592.951 297.546L637.369 323.233Z" fill="url(#paint36_linear)"/>
</g>
<path d="M637.369 294.87L593.219 320.558C588.938 322.966 581.981 322.966 577.432 320.558L533.014 294.87C530.873 293.532 529.803 291.927 529.803 290.321V313.868C529.803 315.474 530.873 317.079 533.014 318.417L577.432 344.104C581.713 346.513 588.67 346.513 593.219 344.104L637.369 318.417C639.51 317.079 640.58 315.474 640.58 313.868V290.321C640.58 291.927 639.51 293.532 637.369 294.87Z" fill="url(#paint37_linear)"/>
<path d="M585.459 346.513C582.516 346.513 579.573 345.977 577.164 344.64L532.747 318.952C530.338 317.614 529.268 315.741 529.268 313.868V290.321H530.606C530.606 291.927 531.676 293.265 533.549 294.335L577.967 320.023C582.248 322.431 588.938 322.431 592.952 320.023L637.102 294.335C638.975 293.265 640.045 291.927 640.045 290.321H641.383V313.868C641.383 315.741 640.045 317.614 637.905 318.952L593.754 344.64C591.346 345.977 588.403 346.513 585.459 346.513ZM530.606 293.532V313.868C530.606 315.474 531.676 316.812 533.549 317.882L577.967 343.569C582.248 345.977 588.938 345.977 592.952 343.569L637.102 317.882C638.975 316.812 640.045 315.474 640.045 313.868V293.532C639.51 294.068 638.707 294.87 637.905 295.405L593.754 321.093C589.205 323.769 581.981 323.769 577.432 321.093L533.014 295.405C531.944 294.87 531.141 294.335 530.606 293.532Z" fill="white"/>
<path d="M637.369 285.773C641.65 288.181 641.65 292.462 637.369 294.87L593.219 320.558C588.938 322.966 581.981 322.966 577.432 320.558L533.014 294.87C528.733 292.462 528.733 288.181 533.014 285.773L577.164 260.085C581.446 257.677 588.403 257.677 592.951 260.085L637.369 285.773Z" fill="url(#paint38_linear)"/>
<path d="M622.386 273.464L591.079 291.659C588.136 293.532 583.052 293.532 579.841 291.659L548.267 273.464C546.661 272.661 545.858 271.323 545.858 270.253V290.321C545.858 291.392 546.661 292.73 548.267 293.532L579.841 311.728C582.784 313.601 587.868 313.601 591.079 311.728L622.386 293.532C623.991 292.73 624.526 291.392 624.794 290.321V270.253C624.526 271.323 623.724 272.661 622.386 273.464Z" fill="url(#paint39_linear)"/>
<path d="M622.118 267.042C625.061 268.915 625.329 271.591 622.118 273.464L590.811 291.659C587.868 293.532 582.784 293.532 579.573 291.659L547.999 273.464C545.055 271.591 544.788 268.915 547.999 267.042L579.305 248.847C582.249 246.974 587.333 246.974 590.276 248.847L622.118 267.042Z" fill="#FFE2E4"/>
<path d="M622.118 267.042C625.061 268.915 625.329 271.591 622.118 273.464L590.811 291.659C587.868 293.532 582.784 293.532 579.573 291.659L547.999 273.464C545.055 271.591 544.788 268.915 547.999 267.042L579.305 248.847C582.249 246.974 587.333 246.974 590.276 248.847L622.118 267.042Z" fill="url(#paint40_linear)"/>
<g opacity="0.65">
<g opacity="0.43">
<path d="M622.118 255.536C625.061 257.409 625.329 260.085 622.118 261.958L590.811 280.153C587.868 282.027 582.784 282.027 579.573 280.153L547.999 261.958C545.056 260.085 544.788 257.409 547.999 255.536L579.305 237.341C582.249 235.468 587.333 235.468 590.276 237.341L622.118 255.536Z" fill="#FFE2E4"/>
<path d="M622.118 255.536C625.061 257.409 625.329 260.085 622.118 261.958L590.811 280.153C587.868 282.027 582.784 282.027 579.573 280.153L547.999 261.958C545.056 260.085 544.788 257.409 547.999 255.536L579.305 237.341C582.249 235.468 587.333 235.468 590.276 237.341L622.118 255.536Z" fill="url(#paint41_linear)"/>
</g>
</g>
<path opacity="0.5" d="M642.186 473.077C648.875 477.09 648.875 483.245 642.186 487.258L548.801 541.576C542.112 545.59 531.141 545.59 524.452 541.576L430.265 486.991C423.575 482.977 423.575 476.823 430.265 472.809L523.649 418.491C530.339 414.477 541.309 414.477 547.999 418.491L642.186 473.077Z" fill="url(#paint42_linear)"/>
<path d="M642.186 439.897L548.802 494.215C542.112 498.229 531.141 498.229 524.452 494.215L430.532 439.897C427.054 438.024 425.448 435.348 425.448 432.673L425.181 446.319C425.181 448.995 426.786 451.403 430.265 453.544L524.184 507.862C530.874 511.875 541.844 511.875 548.534 507.862L641.918 453.544C645.129 451.671 647.002 448.995 647.002 446.587L647.27 432.94C647.27 435.616 645.397 438.024 642.186 439.897Z" fill="url(#paint43_linear)"/>
<path d="M642.186 439.897L548.802 494.215C542.112 498.229 531.141 498.229 524.452 494.215L430.532 439.897C427.054 438.024 425.448 435.348 425.448 432.673L425.181 446.319C425.181 448.995 426.786 451.403 430.265 453.544L524.184 507.862C530.874 511.875 541.844 511.875 548.534 507.862L641.918 453.544C645.129 451.671 647.002 448.995 647.002 446.587L647.27 432.94C647.27 435.616 645.397 438.024 642.186 439.897Z" fill="url(#paint44_linear)" stroke="white" stroke-width="0.5" stroke-miterlimit="10"/>
<path d="M642.186 425.983C648.876 429.997 648.876 436.151 642.186 440.165L548.802 494.483C542.112 498.496 531.141 498.496 524.452 494.483L430.532 440.165C423.843 436.151 423.843 429.997 430.532 425.983L523.917 371.665C530.606 367.651 541.577 367.651 548.266 371.665L642.186 425.983Z" fill="url(#paint45_linear)"/>
<path d="M536.76 418.491C536.225 418.223 535.957 418.491 535.957 419.026V425.983C535.957 426.518 536.225 427.321 536.76 427.588L552.815 436.954C553.35 437.221 553.618 436.954 553.618 436.419V429.462C553.618 428.926 553.35 428.124 552.815 427.856L536.76 418.491Z" fill="url(#paint46_linear)"/>
<path d="M563.518 446.854L563.786 325.909L566.462 324.304L566.194 445.249C566.194 447.389 565.391 448.727 564.321 449.53L561.645 451.135C562.715 450.6 563.518 448.995 563.518 446.854Z" fill="#C5BDC9"/>
<path d="M509.735 286.308C511.073 285.505 512.679 285.772 514.552 286.843L559.772 313.065C563.519 315.206 566.462 320.29 566.462 324.571L563.786 326.177C563.786 321.895 560.843 316.811 557.097 314.671L511.876 288.448C510.003 287.378 508.398 287.378 507.06 287.913L509.735 286.308Z" fill="#E0DBE9"/>
<path d="M511.876 288.18C508.13 286.04 505.186 287.645 505.186 291.927L504.919 412.871C504.919 417.153 507.862 422.237 511.608 424.377L556.829 450.6C560.575 452.741 563.518 451.135 563.518 446.854L563.786 325.909C563.786 321.628 560.842 316.544 557.096 314.403L511.876 288.18Z" fill="url(#paint47_linear)"/>
<path d="M511.341 291.659C509.468 290.589 507.862 291.392 507.862 293.532L507.594 414.477C507.594 416.618 509.2 419.294 511.073 420.364L556.294 446.586C558.167 447.657 559.772 446.854 559.772 444.713L560.04 323.768C560.04 321.628 558.434 318.952 556.561 317.882L549.336 313.601L547.999 315.741C547.463 316.811 546.393 316.811 545.055 316.276L522.579 303.165C521.241 302.362 520.171 301.024 519.635 299.419L518.565 295.94L511.341 291.659Z" fill="url(#paint48_linear)"/>
<path d="M532.479 354.54L532.747 354.807L546.661 367.651C547.196 368.186 547.464 368.721 547.464 369.257V386.917C547.464 389.325 546.661 391.198 545.055 392.536C543.718 393.606 542.112 394.409 539.971 394.944C536.493 395.747 533.015 395.747 532.747 395.747C532.479 395.747 532.479 395.747 532.212 395.479C531.944 395.479 531.944 395.212 531.677 395.212C531.409 394.944 527.93 391.198 524.452 386.114C522.311 383.17 520.706 380.495 519.368 377.819C517.763 374.608 516.96 371.665 516.96 369.524V351.864C516.96 351.329 517.227 351.061 517.763 351.061L531.677 354.272C532.212 354.272 532.479 354.54 532.479 354.54Z" fill="#E7FFF9"/>
<g opacity="0.42">
<path d="M579.573 332.866C578.235 332.063 576.897 332.599 576.897 334.472V349.724C576.897 351.329 577.967 353.47 579.573 354.272L592.952 362.032C594.29 362.835 595.627 362.3 595.627 360.427V345.175C595.627 343.569 594.557 341.429 592.952 340.626L579.573 332.866Z" fill="#FFE2E4"/>
<path d="M579.573 332.866C578.235 332.063 576.897 332.599 576.897 334.472V349.724C576.897 351.329 577.967 353.47 579.573 354.272L592.952 362.032C594.29 362.835 595.627 362.3 595.627 360.427V345.175C595.627 343.569 594.557 341.429 592.952 340.626L579.573 332.866Z" fill="url(#paint49_linear)"/>
</g>
<g opacity="0.42">
<path d="M60.4728 229.849C59.1349 229.046 57.797 229.581 57.797 231.454V246.706C57.797 248.312 58.8673 250.452 60.4728 251.255L73.8516 259.015C75.1895 259.818 76.5274 259.283 76.5274 257.41V242.158C76.5274 240.552 75.4571 238.412 73.8516 237.609L60.4728 229.849Z" fill="#FFE2E4"/>
<path d="M60.4728 229.849C59.1349 229.046 57.797 229.581 57.797 231.454V246.706C57.797 248.312 58.8673 250.452 60.4728 251.255L73.8516 259.015C75.1895 259.818 76.5274 259.283 76.5274 257.41V242.158C76.5274 240.552 75.4571 238.412 73.8516 237.609L60.4728 229.849Z" fill="url(#paint50_linear)"/>
</g>
<g opacity="0.42">
<path d="M199.613 385.044C198.275 384.241 196.937 384.776 196.937 386.649V401.901C196.937 403.507 198.007 405.647 199.613 406.45L212.992 414.21C214.33 415.012 215.668 414.477 215.668 412.604V397.352C215.668 395.747 214.597 393.606 212.992 392.804L199.613 385.044Z" fill="#FFE2E4"/>
<path d="M199.613 385.044C198.275 384.241 196.937 384.776 196.937 386.649V401.901C196.937 403.507 198.007 405.647 199.613 406.45L212.992 414.21C214.33 415.012 215.668 414.477 215.668 412.604V397.352C215.668 395.747 214.597 393.606 212.992 392.804L199.613 385.044Z" fill="url(#paint51_linear)"/>
</g>
<g opacity="0.42">
<path d="M477.894 343.837C476.556 343.034 475.218 343.569 475.218 345.442V360.694C475.218 362.3 476.288 364.44 477.894 365.243L491.272 373.003C492.61 373.805 493.948 373.27 493.948 371.397V356.145C493.948 354.54 492.878 352.399 491.272 351.597L477.894 343.837Z" fill="#FFE2E4"/>
<path d="M477.894 343.837C476.556 343.034 475.218 343.569 475.218 345.442V360.694C475.218 362.3 476.288 364.44 477.894 365.243L491.272 373.003C492.61 373.805 493.948 373.27 493.948 371.397V356.145C493.948 354.54 492.878 352.399 491.272 351.597L477.894 343.837Z" fill="url(#paint52_linear)"/>
</g>
<path d="M578.235 364.708C577.432 364.173 576.897 364.708 576.897 365.511V373.538C576.897 374.341 577.432 375.411 578.235 375.946L585.192 379.96C585.995 380.495 586.53 379.96 586.53 379.157V371.13C586.53 370.327 585.995 369.257 585.192 368.721L578.235 364.708Z" fill="#FFE2E4"/>
<path d="M578.235 364.708C577.432 364.173 576.897 364.708 576.897 365.511V373.538C576.897 374.341 577.432 375.411 578.235 375.946L585.192 379.96C585.995 380.495 586.53 379.96 586.53 379.157V371.13C586.53 370.327 585.995 369.257 585.192 368.721L578.235 364.708Z" fill="url(#paint53_linear)"/>
<path d="M569.673 217.273V233.863L553.618 243.228V226.638L569.673 217.273Z" fill="url(#paint54_linear)"/>
<path d="M553.618 226.638V243.228L537.563 233.863V217.273L553.618 226.638Z" fill="url(#paint55_linear)"/>
<path d="M569.673 217.273L553.618 226.638L537.563 217.273L553.618 207.908L569.673 217.273Z" fill="url(#paint56_linear)"/>
<path d="M612.484 210.316V219.414L603.654 224.765V215.4L612.484 210.316Z" fill="url(#paint57_linear)"/>
<path d="M603.654 215.4V224.765L594.557 219.414V210.316L603.654 215.4Z" fill="url(#paint58_linear)"/>
<path d="M612.485 210.316L603.655 215.4L594.557 210.316L603.387 205.232L612.485 210.316Z" fill="url(#paint59_linear)"/>
<path d="M357.751 523.381V532.479L348.921 537.83V528.465L357.751 523.381Z" fill="url(#paint60_linear)"/>
<path d="M348.921 528.465V537.83L339.823 532.479V523.381L348.921 528.465Z" fill="url(#paint61_linear)"/>
<path d="M357.751 523.381L348.921 528.465L339.823 523.381L348.653 518.297L357.751 523.381Z" fill="url(#paint62_linear)"/>
<path d="M484.85 537.295L484.583 550.674L472.007 558.166V544.788L484.85 537.295Z" fill="url(#paint63_linear)"/>
<path d="M472.007 544.788V558.166L459.163 550.674V537.295L472.007 544.788Z" fill="url(#paint64_linear)"/>
<path d="M484.85 537.295L472.007 544.788L459.163 537.295L471.739 529.803L484.85 537.295Z" fill="url(#paint65_linear)"/>
<path d="M82.1468 427.053V436.151L73.3168 441.503V432.137L82.1468 427.053Z" fill="url(#paint66_linear)"/>
<path d="M73.3163 432.137V441.503L64.2186 436.151V427.053L73.3163 432.137Z" fill="url(#paint67_linear)"/>
<path d="M82.1464 427.053L73.3164 432.137L64.2187 427.053L73.0488 421.969L82.1464 427.053Z" fill="url(#paint68_linear)"/>
<path d="M56.7268 455.149V464.514L47.8968 469.598V460.233L56.7268 455.149Z" fill="url(#paint69_linear)"/>
<path d="M47.8963 460.233V469.598L38.7986 464.514V455.149L47.8963 460.233Z" fill="url(#paint70_linear)"/>
<path d="M56.7266 455.149L47.8966 460.233L38.7989 455.149L47.8966 450.065L56.7266 455.149Z" fill="url(#paint71_linear)"/>
<path d="M613.287 249.917V258.212L605.26 263.029V254.466L613.287 249.917Z" fill="url(#paint72_linear)"/>
<path d="M605.26 254.466V263.029L597.232 258.212V249.917L605.26 254.466Z" fill="url(#paint73_linear)"/>
<path d="M613.287 249.917L605.26 254.466L597.233 249.917L605.26 245.368L613.287 249.917Z" fill="url(#paint74_linear)"/>
<defs>
<linearGradient id="paint0_linear" x1="215.735" y1="291.588" x2="400.299" y2="204.645" gradientUnits="userSpaceOnUse">
<stop stop-color="#F2FFF7"/>
<stop offset="1" stop-color="white"/>
</linearGradient>
<linearGradient id="paint1_linear" x1="312.921" y1="555.855" x2="320.547" y2="159.271" gradientUnits="userSpaceOnUse">
<stop stop-color="#A3AEEB"/>
<stop offset="0.1545" stop-color="#B1BCED"/>
<stop offset="0.7192" stop-color="#E0ECF4"/>
<stop offset="1" stop-color="#F2FFF7"/>
</linearGradient>
<linearGradient id="paint2_linear" x1="91.0479" y1="385.259" x2="547.119" y2="222.05" gradientUnits="userSpaceOnUse">
<stop stop-color="#A3AEEB"/>
<stop offset="0.1545" stop-color="#B1BCED"/>
<stop offset="0.7192" stop-color="#E0ECF4"/>
<stop offset="1" stop-color="#F2FFF7"/>
</linearGradient>
<linearGradient id="paint3_linear" x1="91.0479" y1="385.259" x2="547.119" y2="222.05" gradientUnits="userSpaceOnUse">
<stop stop-color="#A3AEEB"/>
<stop offset="0.1545" stop-color="#B1BCED"/>
<stop offset="0.7192" stop-color="#E0ECF4"/>
<stop offset="1" stop-color="#F2FFF7"/>
</linearGradient>
<linearGradient id="paint4_linear" x1="215.735" y1="291.588" x2="400.299" y2="204.645" gradientUnits="userSpaceOnUse">
<stop stop-color="#F2FFF7"/>
<stop offset="1" stop-color="white"/>
</linearGradient>
<linearGradient id="paint5_linear" x1="316.41" y1="170.246" x2="316.41" y2="318.083" gradientUnits="userSpaceOnUse">
<stop stop-color="#FFE2E4"/>
<stop offset="1" stop-color="#BAC2E8"/>
<stop offset="1" stop-color="white" stop-opacity="0"/>
</linearGradient>
<linearGradient id="paint6_linear" x1="253.631" y1="-46.1078" x2="363.337" y2="349.906" gradientUnits="userSpaceOnUse">
<stop stop-color="#DDE9F4"/>
<stop offset="0.1366" stop-color="#E0ECF4"/>
<stop offset="1" stop-color="#F2FFF7"/>
</linearGradient>
<linearGradient id="paint7_linear" x1="218.699" y1="122.324" x2="399.225" y2="122.324" gradientUnits="userSpaceOnUse">
<stop stop-color="#F2FFF7"/>
<stop offset="0.2808" stop-color="#E0ECF4"/>
<stop offset="0.8455" stop-color="#B1BCED"/>
<stop offset="1" stop-color="#A3AEEB"/>
</linearGradient>
<linearGradient id="paint8_linear" x1="344.155" y1="272.614" x2="265.358" y2="8.2803" gradientUnits="userSpaceOnUse">
<stop stop-color="#778CD7"/>
<stop offset="1" stop-color="#475EC4"/>
</linearGradient>
<linearGradient id="paint9_linear" x1="347.843" y1="216.669" x2="294.032" y2="13.239" gradientUnits="userSpaceOnUse">
<stop stop-color="#778CD7"/>
<stop offset="1" stop-color="#475EC4"/>
</linearGradient>
<linearGradient id="paint10_linear" x1="143.288" y1="266.207" x2="143.288" y2="429.494" gradientUnits="userSpaceOnUse">
<stop stop-color="#FFE2E4"/>
<stop offset="1" stop-color="#BAC2E8"/>
<stop offset="1" stop-color="white" stop-opacity="0"/>
</linearGradient>
<linearGradient id="paint11_linear" x1="162.679" y1="461.988" x2="110.443" y2="261.351" gradientUnits="userSpaceOnUse">
<stop stop-color="#778CD7"/>
<stop offset="1" stop-color="#475EC4"/>
</linearGradient>
<linearGradient id="paint12_linear" x1="0.438018" y1="405.526" x2="43.4629" y2="405.526" gradientUnits="userSpaceOnUse">
<stop stop-color="#A3AEEB"/>
<stop offset="0.1545" stop-color="#B1BCED"/>
<stop offset="0.7192" stop-color="#E0ECF4"/>
<stop offset="1" stop-color="#F2FFF7"/>
</linearGradient>
<linearGradient id="paint13_linear" x1="21.9385" y1="433.411" x2="21.9385" y2="376.242" gradientUnits="userSpaceOnUse">
<stop stop-color="#A3AEEB"/>
<stop offset="0.1545" stop-color="#B1BCED"/>
<stop offset="0.7192" stop-color="#E0ECF4"/>
<stop offset="1" stop-color="#F2FFF7"/>
</linearGradient>
<linearGradient id="paint14_linear" x1="0.43811" y1="390.974" x2="43.463" y2="390.974" gradientUnits="userSpaceOnUse">
<stop stop-color="#F2FFF7"/>
<stop offset="1" stop-color="white"/>
</linearGradient>
<linearGradient id="paint15_linear" x1="31.3746" y1="402.051" x2="28.9748" y2="380.463" gradientUnits="userSpaceOnUse">
<stop stop-color="#778CD7"/>
<stop offset="1" stop-color="#475EC4"/>
</linearGradient>
<linearGradient id="paint16_linear" x1="22.0756" y1="374.274" x2="22.0756" y2="391.8" gradientUnits="userSpaceOnUse">
<stop stop-color="#FFE2E4"/>
<stop offset="1" stop-color="#BAC2E8"/>
<stop offset="1" stop-color="white" stop-opacity="0"/>
</linearGradient>
<linearGradient id="paint17_linear" x1="68.794" y1="509.542" x2="141.023" y2="509.542" gradientUnits="userSpaceOnUse">
<stop stop-color="#A3AEEB"/>
<stop offset="0.1545" stop-color="#B1BCED"/>
<stop offset="0.7192" stop-color="#E0ECF4"/>
<stop offset="1" stop-color="#F2FFF7"/>
</linearGradient>
<linearGradient id="paint18_linear" x1="104.886" y1="556.357" x2="104.886" y2="460.383" gradientUnits="userSpaceOnUse">
<stop stop-color="#A3AEEB"/>
<stop offset="0.1545" stop-color="#B1BCED"/>
<stop offset="0.7192" stop-color="#E0ECF4"/>
<stop offset="1" stop-color="#F2FFF7"/>
</linearGradient>
<linearGradient id="paint19_linear" x1="68.7939" y1="485.113" x2="141.023" y2="485.113" gradientUnits="userSpaceOnUse">
<stop stop-color="#F2FFF7"/>
<stop offset="1" stop-color="white"/>
</linearGradient>
<linearGradient id="paint20_linear" x1="120.691" y1="503.548" x2="116.747" y2="467.468" gradientUnits="userSpaceOnUse">
<stop stop-color="#778CD7"/>
<stop offset="1" stop-color="#475EC4"/>
</linearGradient>
<linearGradient id="paint21_linear" x1="104.891" y1="457.29" x2="104.891" y2="486.723" gradientUnits="userSpaceOnUse">
<stop stop-color="#FFE2E4"/>
<stop offset="1" stop-color="#BAC2E8"/>
<stop offset="1" stop-color="white" stop-opacity="0"/>
</linearGradient>
<linearGradient id="paint22_linear" x1="106.63" y1="82.1462" x2="106.63" y2="240.284" gradientUnits="userSpaceOnUse">
<stop stop-color="#FFE2E4"/>
<stop offset="1" stop-color="#BAC2E8"/>
<stop offset="1" stop-color="#FFD0D2"/>
</linearGradient>
<linearGradient id="paint23_linear" x1="122.684" y1="82.4139" x2="122.684" y2="218.611" gradientUnits="userSpaceOnUse">
<stop stop-color="#FFE2E4"/>
<stop offset="1" stop-color="#BAC2E8"/>
<stop offset="1" stop-color="#FFD0D2"/>
</linearGradient>
<linearGradient id="paint24_linear" x1="61.5335" y1="166.564" x2="133.992" y2="166.564" gradientUnits="userSpaceOnUse">
<stop stop-color="#F2FFF7"/>
<stop offset="1" stop-color="white"/>
</linearGradient>
<linearGradient id="paint25_linear" x1="77.7364" y1="107.438" x2="105.832" y2="328.189" gradientUnits="userSpaceOnUse">
<stop stop-color="#A3AEEB"/>
<stop offset="0.1545" stop-color="#B1BCED"/>
<stop offset="0.7192" stop-color="#E0ECF4"/>
<stop offset="1" stop-color="#F2FFF7"/>
</linearGradient>
<linearGradient id="paint26_linear" x1="91.4205" y1="105.696" x2="119.516" y2="326.448" gradientUnits="userSpaceOnUse">
<stop stop-color="#A3AEEB"/>
<stop offset="0.1545" stop-color="#B1BCED"/>
<stop offset="0.7192" stop-color="#E0ECF4"/>
<stop offset="1" stop-color="#F2FFF7"/>
</linearGradient>
<linearGradient id="paint27_linear" x1="80.5075" y1="107.086" x2="108.603" y2="327.836" gradientUnits="userSpaceOnUse">
<stop stop-color="#A3AEEB"/>
<stop offset="0.1545" stop-color="#B1BCED"/>
<stop offset="0.7192" stop-color="#E0ECF4"/>
<stop offset="1" stop-color="#F2FFF7"/>
</linearGradient>
<linearGradient id="paint28_linear" x1="86.9758" y1="106.263" x2="115.071" y2="327.014" gradientUnits="userSpaceOnUse">
<stop stop-color="#A3AEEB"/>
<stop offset="0.1545" stop-color="#B1BCED"/>
<stop offset="0.7192" stop-color="#E0ECF4"/>
<stop offset="1" stop-color="#F2FFF7"/>
</linearGradient>
<linearGradient id="paint29_linear" x1="469.819" y1="325.642" x2="469.819" y2="576.648" gradientUnits="userSpaceOnUse">
<stop stop-color="#FFE2E4"/>
<stop offset="1" stop-color="#BAC2E8"/>
<stop offset="1" stop-color="white" stop-opacity="0"/>
</linearGradient>
<linearGradient id="paint30_linear" x1="238.376" y1="627.061" x2="242.103" y2="433.247" gradientUnits="userSpaceOnUse">
<stop stop-color="#A3AEEB"/>
<stop offset="0.1545" stop-color="#B1BCED"/>
<stop offset="0.7192" stop-color="#E0ECF4"/>
<stop offset="1" stop-color="#F2FFF7"/>
</linearGradient>
<linearGradient id="paint31_linear" x1="137.439" y1="556.7" x2="345.525" y2="482.234" gradientUnits="userSpaceOnUse">
<stop stop-color="#A3AEEB"/>
<stop offset="0.1545" stop-color="#B1BCED"/>
<stop offset="0.7192" stop-color="#E0ECF4"/>
<stop offset="1" stop-color="#F2FFF7"/>
</linearGradient>
<linearGradient id="paint32_linear" x1="137.439" y1="556.7" x2="345.525" y2="482.234" gradientUnits="userSpaceOnUse">
<stop stop-color="#A3AEEB"/>
<stop offset="0.1545" stop-color="#B1BCED"/>
<stop offset="0.7192" stop-color="#E0ECF4"/>
<stop offset="1" stop-color="#F2FFF7"/>
</linearGradient>
<linearGradient id="paint33_linear" x1="190.88" y1="529.296" x2="281.078" y2="486.806" gradientUnits="userSpaceOnUse">
<stop stop-color="#F2FFF7"/>
<stop offset="1" stop-color="white"/>
</linearGradient>
<linearGradient id="paint34_linear" x1="239.884" y1="474.883" x2="239.884" y2="537.63" gradientUnits="userSpaceOnUse">
<stop stop-color="#FFE2E4"/>
<stop offset="1" stop-color="#BAC2E8"/>
<stop offset="1" stop-color="white" stop-opacity="0"/>
</linearGradient>
<linearGradient id="paint35_linear" x1="239.884" y1="456.955" x2="239.884" y2="519.702" gradientUnits="userSpaceOnUse">
<stop stop-color="#FFE2E4"/>
<stop offset="1" stop-color="#BAC2E8"/>
<stop offset="1" stop-color="white" stop-opacity="0"/>
</linearGradient>
<linearGradient id="paint36_linear" x1="529.912" y1="327.795" x2="640.671" y2="327.795" gradientUnits="userSpaceOnUse">
<stop stop-color="#A3AEEB"/>
<stop offset="0.1545" stop-color="#B1BCED"/>
<stop offset="0.7192" stop-color="#E0ECF4"/>
<stop offset="1" stop-color="#F2FFF7"/>
</linearGradient>
<linearGradient id="paint37_linear" x1="585.258" y1="399.582" x2="585.258" y2="252.412" gradientUnits="userSpaceOnUse">
<stop stop-color="#A3AEEB"/>
<stop offset="0.1545" stop-color="#B1BCED"/>
<stop offset="0.7192" stop-color="#E0ECF4"/>
<stop offset="1" stop-color="#F2FFF7"/>
</linearGradient>
<linearGradient id="paint38_linear" x1="529.912" y1="290.335" x2="640.671" y2="290.335" gradientUnits="userSpaceOnUse">
<stop stop-color="#F2FFF7"/>
<stop offset="1" stop-color="white"/>
</linearGradient>
<linearGradient id="paint39_linear" x1="609.602" y1="318.855" x2="603.509" y2="263.264" gradientUnits="userSpaceOnUse">
<stop stop-color="#778CD7"/>
<stop offset="1" stop-color="#475EC4"/>
</linearGradient>
<linearGradient id="paint40_linear" x1="585.058" y1="247.442" x2="585.058" y2="293.064" gradientUnits="userSpaceOnUse">
<stop stop-color="#FFE2E4"/>
<stop offset="1" stop-color="#BAC2E8"/>
<stop offset="1" stop-color="white" stop-opacity="0"/>
</linearGradient>
<linearGradient id="paint41_linear" x1="585.058" y1="235.936" x2="585.058" y2="281.558" gradientUnits="userSpaceOnUse">
<stop stop-color="#FFE2E4"/>
<stop offset="1" stop-color="#BAC2E8"/>
<stop offset="1" stop-color="white" stop-opacity="0"/>
</linearGradient>
<linearGradient id="paint42_linear" x1="533.774" y1="606.999" x2="539.139" y2="328.043" gradientUnits="userSpaceOnUse">
<stop stop-color="#A3AEEB"/>
<stop offset="0.1545" stop-color="#B1BCED"/>
<stop offset="0.7192" stop-color="#E0ECF4"/>
<stop offset="1" stop-color="#F2FFF7"/>
</linearGradient>
<linearGradient id="paint43_linear" x1="388.497" y1="505.728" x2="687.994" y2="398.55" gradientUnits="userSpaceOnUse">
<stop stop-color="#A3AEEB"/>
<stop offset="0.1545" stop-color="#B1BCED"/>
<stop offset="0.7192" stop-color="#E0ECF4"/>
<stop offset="1" stop-color="#F2FFF7"/>
</linearGradient>
<linearGradient id="paint44_linear" x1="388.497" y1="505.728" x2="687.994" y2="398.55" gradientUnits="userSpaceOnUse">
<stop stop-color="#A3AEEB"/>
<stop offset="0.1545" stop-color="#B1BCED"/>
<stop offset="0.7192" stop-color="#E0ECF4"/>
<stop offset="1" stop-color="#F2FFF7"/>
</linearGradient>
<linearGradient id="paint45_linear" x1="465.415" y1="466.285" x2="595.236" y2="405.13" gradientUnits="userSpaceOnUse">
<stop stop-color="#F2FFF7"/>
<stop offset="1" stop-color="white"/>
</linearGradient>
<linearGradient id="paint46_linear" x1="550.837" y1="441.685" x2="539.033" y2="413.911" gradientUnits="userSpaceOnUse">
<stop stop-color="#438454"/>
<stop offset="1" stop-color="#00C540"/>
</linearGradient>
<linearGradient id="paint47_linear" x1="527.147" y1="297.09" x2="541.351" y2="439.512" gradientUnits="userSpaceOnUse">
<stop stop-color="#2C3939"/>
<stop offset="1" stop-color="#0A0818"/>
</linearGradient>
<linearGradient id="paint48_linear" x1="549.946" y1="467.86" x2="459.739" y2="317.456" gradientUnits="userSpaceOnUse">
<stop stop-color="#778CD7"/>
<stop offset="1" stop-color="#475EC4"/>
</linearGradient>
<linearGradient id="paint49_linear" x1="586.262" y1="332.505" x2="586.262" y2="362.393" gradientUnits="userSpaceOnUse">
<stop stop-color="#FFE2E4"/>
<stop offset="1" stop-color="#BAC2E8"/>
<stop offset="1" stop-color="white" stop-opacity="0"/>
</linearGradient>
<linearGradient id="paint50_linear" x1="67.1622" y1="229.488" x2="67.1622" y2="259.376" gradientUnits="userSpaceOnUse">
<stop stop-color="#FFE2E4"/>
<stop offset="1" stop-color="#BAC2E8"/>
<stop offset="1" stop-color="white" stop-opacity="0"/>
</linearGradient>
<linearGradient id="paint51_linear" x1="206.302" y1="384.683" x2="206.302" y2="414.571" gradientUnits="userSpaceOnUse">
<stop stop-color="#FFE2E4"/>
<stop offset="1" stop-color="#BAC2E8"/>
<stop offset="1" stop-color="white" stop-opacity="0"/>
</linearGradient>
<linearGradient id="paint52_linear" x1="484.583" y1="343.476" x2="484.583" y2="373.364" gradientUnits="userSpaceOnUse">
<stop stop-color="#FFE2E4"/>
<stop offset="1" stop-color="#BAC2E8"/>
<stop offset="1" stop-color="white" stop-opacity="0"/>
</linearGradient>
<linearGradient id="paint53_linear" x1="581.713" y1="364.492" x2="581.713" y2="380.175" gradientUnits="userSpaceOnUse">
<stop stop-color="#FFE2E4"/>
<stop offset="1" stop-color="#BAC2E8"/>
<stop offset="1" stop-color="white" stop-opacity="0"/>
</linearGradient>
<linearGradient id="paint54_linear" x1="574.905" y1="183.834" x2="549.039" y2="273.918" gradientUnits="userSpaceOnUse">
<stop stop-color="#A3AEEB"/>
<stop offset="0.1545" stop-color="#B1BCED"/>
<stop offset="0.7192" stop-color="#E0ECF4"/>
<stop offset="1" stop-color="#F2FFF7"/>
</linearGradient>
<linearGradient id="paint55_linear" x1="544.732" y1="247.563" x2="548.3" y2="173.534" gradientUnits="userSpaceOnUse">
<stop stop-color="#A3AEEB"/>
<stop offset="0.1545" stop-color="#B1BCED"/>
<stop offset="0.7192" stop-color="#E0ECF4"/>
<stop offset="1" stop-color="#F2FFF7"/>
</linearGradient>
<linearGradient id="paint56_linear" x1="537.544" y1="217.251" x2="569.583" y2="217.251" gradientUnits="userSpaceOnUse">
<stop stop-color="#F2FFF7"/>
<stop offset="1" stop-color="white"/>
</linearGradient>
<linearGradient id="paint57_linear" x1="615.348" y1="191.71" x2="600.995" y2="241.695" gradientUnits="userSpaceOnUse">
<stop stop-color="#A3AEEB"/>
<stop offset="0.1545" stop-color="#B1BCED"/>
<stop offset="0.7192" stop-color="#E0ECF4"/>
<stop offset="1" stop-color="#F2FFF7"/>
</linearGradient>
<linearGradient id="paint58_linear" x1="598.606" y1="227.071" x2="600.586" y2="185.995" gradientUnits="userSpaceOnUse">
<stop stop-color="#A3AEEB"/>
<stop offset="0.1545" stop-color="#B1BCED"/>
<stop offset="0.7192" stop-color="#E0ECF4"/>
<stop offset="1" stop-color="#F2FFF7"/>
</linearGradient>
<linearGradient id="paint59_linear" x1="594.618" y1="210.252" x2="612.395" y2="210.252" gradientUnits="userSpaceOnUse">
<stop stop-color="#F2FFF7"/>
<stop offset="1" stop-color="white"/>
</linearGradient>
<linearGradient id="paint60_linear" x1="360.646" y1="504.775" x2="346.294" y2="554.759" gradientUnits="userSpaceOnUse">
<stop stop-color="#A3AEEB"/>
<stop offset="0.1545" stop-color="#B1BCED"/>
<stop offset="0.7192" stop-color="#E0ECF4"/>
<stop offset="1" stop-color="#F2FFF7"/>
</linearGradient>
<linearGradient id="paint61_linear" x1="343.904" y1="540.136" x2="345.884" y2="499.059" gradientUnits="userSpaceOnUse">
<stop stop-color="#A3AEEB"/>
<stop offset="0.1545" stop-color="#B1BCED"/>
<stop offset="0.7192" stop-color="#E0ECF4"/>
<stop offset="1" stop-color="#F2FFF7"/>
</linearGradient>
<linearGradient id="paint62_linear" x1="339.916" y1="523.317" x2="357.693" y2="523.317" gradientUnits="userSpaceOnUse">
<stop stop-color="#F2FFF7"/>
<stop offset="1" stop-color="white"/>
</linearGradient>
<linearGradient id="paint63_linear" x1="488.985" y1="510.559" x2="468.268" y2="582.71" gradientUnits="userSpaceOnUse">
<stop stop-color="#A3AEEB"/>
<stop offset="0.1545" stop-color="#B1BCED"/>
<stop offset="0.7192" stop-color="#E0ECF4"/>
<stop offset="1" stop-color="#F2FFF7"/>
</linearGradient>
<linearGradient id="paint64_linear" x1="464.82" y1="561.602" x2="467.677" y2="502.31" gradientUnits="userSpaceOnUse">
<stop stop-color="#A3AEEB"/>
<stop offset="0.1545" stop-color="#B1BCED"/>
<stop offset="0.7192" stop-color="#E0ECF4"/>
<stop offset="1" stop-color="#F2FFF7"/>
</linearGradient>
<linearGradient id="paint65_linear" x1="459.062" y1="537.323" x2="484.723" y2="537.323" gradientUnits="userSpaceOnUse">
<stop stop-color="#F2FFF7"/>
<stop offset="1" stop-color="white"/>
</linearGradient>
<linearGradient id="paint66_linear" x1="85.0414" y1="408.447" x2="70.6896" y2="458.431" gradientUnits="userSpaceOnUse">
<stop stop-color="#A3AEEB"/>
<stop offset="0.1545" stop-color="#B1BCED"/>
<stop offset="0.7192" stop-color="#E0ECF4"/>
<stop offset="1" stop-color="#F2FFF7"/>
</linearGradient>
<linearGradient id="paint67_linear" x1="68.2997" y1="443.808" x2="70.2792" y2="402.731" gradientUnits="userSpaceOnUse">
<stop stop-color="#A3AEEB"/>
<stop offset="0.1545" stop-color="#B1BCED"/>
<stop offset="0.7192" stop-color="#E0ECF4"/>
<stop offset="1" stop-color="#F2FFF7"/>
</linearGradient>
<linearGradient id="paint68_linear" x1="64.311" y1="426.989" x2="82.0886" y2="426.989" gradientUnits="userSpaceOnUse">
<stop stop-color="#F2FFF7"/>
<stop offset="1" stop-color="white"/>
</linearGradient>
<linearGradient id="paint69_linear" x1="59.6327" y1="436.672" x2="45.2806" y2="486.657" gradientUnits="userSpaceOnUse">
<stop stop-color="#A3AEEB"/>
<stop offset="0.1545" stop-color="#B1BCED"/>
<stop offset="0.7192" stop-color="#E0ECF4"/>
<stop offset="1" stop-color="#F2FFF7"/>
</linearGradient>
<linearGradient id="paint70_linear" x1="42.8907" y1="472.034" x2="44.8702" y2="430.957" gradientUnits="userSpaceOnUse">
<stop stop-color="#A3AEEB"/>
<stop offset="0.1545" stop-color="#B1BCED"/>
<stop offset="0.7192" stop-color="#E0ECF4"/>
<stop offset="1" stop-color="#F2FFF7"/>
</linearGradient>
<linearGradient id="paint71_linear" x1="38.9022" y1="455.214" x2="56.6798" y2="455.214" gradientUnits="userSpaceOnUse">
<stop stop-color="#F2FFF7"/>
<stop offset="1" stop-color="white"/>
</linearGradient>
<linearGradient id="paint72_linear" x1="615.944" y1="233.277" x2="603.031" y2="278.249" gradientUnits="userSpaceOnUse">
<stop stop-color="#A3AEEB"/>
<stop offset="0.1545" stop-color="#B1BCED"/>
<stop offset="0.7192" stop-color="#E0ECF4"/>
<stop offset="1" stop-color="#F2FFF7"/>
</linearGradient>
<linearGradient id="paint73_linear" x1="600.881" y1="265.093" x2="602.662" y2="228.135" gradientUnits="userSpaceOnUse">
<stop stop-color="#A3AEEB"/>
<stop offset="0.1545" stop-color="#B1BCED"/>
<stop offset="0.7192" stop-color="#E0ECF4"/>
<stop offset="1" stop-color="#F2FFF7"/>
</linearGradient>
<linearGradient id="paint74_linear" x1="597.293" y1="249.96" x2="613.287" y2="249.96" gradientUnits="userSpaceOnUse">
<stop stop-color="#F2FFF7"/>
<stop offset="1" stop-color="white"/>
</linearGradient>
</defs>
</svg>
