<svg width="36" height="36" viewBox="0 0 36 36" fill="none" xmlns="http://www.w3.org/2000/svg">
<path d="M29.25 0H6.75C3.02344 0 0 3.02344 0 6.75V29.25C0 32.9766 3.02344 36 6.75 36H29.25C32.9766 36 36 32.9766 36 29.25V6.75C36 3.02344 32.9766 0 29.25 0ZM11.131 30.5589H5.53846L5.50601 13.8137H11.0986L11.131 30.5589ZM8.19411 11.6232H8.16166C6.33353 11.6232 5.15445 10.363 5.15445 8.79447C5.15445 7.1881 6.3714 5.97115 8.23197 5.97115C10.0925 5.97115 11.2338 7.1881 11.2716 8.79447C11.2716 10.363 10.0871 11.6232 8.19411 11.6232ZM30.521 30.5589H24.8798V21.4615C24.8798 19.2602 24.2957 17.762 22.3269 17.762C20.8233 17.762 20.012 18.7734 19.6226 19.7524C19.4766 20.104 19.4387 20.5853 19.4387 21.0775V30.5589H13.7704L13.738 13.8137H19.4062L19.4387 16.1773C20.1635 15.0577 21.3696 13.473 24.2578 13.473C27.8383 13.473 30.5156 15.8095 30.5156 20.8341V30.5589H30.521Z" fill="white"/>
</svg>
