<svg width="1003" height="481" viewBox="0 0 1003 481" fill="none" xmlns="http://www.w3.org/2000/svg">
<g opacity="0.65">
<path d="M728.097 128.351C727.121 127.728 719.422 123.129 716.372 121.726L712.591 112.576C713.713 109.55 715.872 101.071 716.251 99.5952C716.402 98.9234 716.381 98.2241 716.189 97.5627C715.997 96.9014 715.64 96.2994 715.152 95.8132L709.187 89.884C708.702 89.3944 708.1 89.0365 707.438 88.8444C706.776 88.6523 706.076 88.6322 705.405 88.786C704.282 89.0422 695.645 91.226 692.424 92.446L683.274 88.664C681.944 85.736 677.467 78.233 676.649 76.9398C676.288 76.348 675.781 75.8588 675.176 75.5192C674.572 75.1795 673.89 75.0008 673.197 75H664.803C664.114 75.0003 663.436 75.175 662.832 75.5078C662.229 75.8405 661.719 76.3206 661.351 76.9032C660.728 77.8792 656.129 85.5774 654.726 88.6274L645.576 92.4094C642.55 91.287 634.071 89.1276 632.595 88.7494C631.923 88.5979 631.224 88.6191 630.563 88.8112C629.901 89.0032 629.299 89.3597 628.813 89.8474L622.884 95.8132C622.394 96.2981 622.037 96.9 621.844 97.5618C621.652 98.2236 621.632 98.9234 621.786 99.5952C622.042 100.718 624.226 109.355 625.446 112.576L621.664 121.726C618.736 123.056 611.233 127.533 609.94 128.351C609.348 128.712 608.859 129.219 608.519 129.824C608.18 130.428 608.001 131.11 608 131.803V140.185C608 140.874 608.175 141.552 608.508 142.156C608.841 142.759 609.321 143.269 609.903 143.637C610.879 144.259 618.577 148.859 621.627 150.262L625.409 159.412C624.287 162.437 622.128 170.916 621.749 172.393C621.598 173.064 621.619 173.764 621.811 174.425C622.003 175.086 622.36 175.688 622.847 176.175L628.777 182.104C629.262 182.593 629.863 182.951 630.525 183.143C631.187 183.335 631.887 183.356 632.559 183.202C633.681 182.946 642.319 180.762 645.539 179.542L654.689 183.324C656.019 186.252 660.497 193.755 661.314 195.048C661.677 195.647 662.189 196.142 662.801 196.484C663.412 196.827 664.102 197.004 664.803 197H673.185C673.874 197 674.552 196.825 675.155 196.492C675.759 196.159 676.269 195.679 676.637 195.097C677.259 194.121 681.859 186.423 683.262 183.373L692.412 179.591C695.437 180.713 703.916 182.872 705.393 183.251C706.064 183.402 706.764 183.381 707.425 183.189C708.086 182.997 708.688 182.64 709.175 182.153L715.104 176.223C715.593 175.738 715.951 175.137 716.143 174.475C716.335 173.813 716.356 173.113 716.202 172.441C715.946 171.319 713.762 162.681 712.542 159.461L716.324 150.311C719.252 148.981 726.755 144.503 728.048 143.686C728.647 143.323 729.142 142.811 729.484 142.199C729.827 141.587 730.004 140.898 730 140.197V131.803C730.005 131.113 729.833 130.433 729.5 129.828C729.167 129.223 728.683 128.715 728.097 128.351ZM669 162.559C663.742 162.555 658.604 160.991 654.235 158.066C649.866 155.141 646.462 150.986 644.455 146.126C642.447 141.267 641.926 135.921 642.956 130.765C643.987 125.61 646.523 120.875 650.244 117.161C653.965 113.446 658.704 110.919 663.862 109.898C669.02 108.877 674.364 109.408 679.22 111.425C684.076 113.441 688.224 116.852 691.141 121.227C694.059 125.601 695.613 130.742 695.608 136C695.592 143.047 692.782 149.801 687.794 154.78C682.806 159.758 676.047 162.556 669 162.559Z" fill="#FFE2E4"/>
<path d="M728.097 128.351C727.121 127.728 719.422 123.129 716.372 121.726L712.591 112.576C713.713 109.55 715.872 101.071 716.251 99.5952C716.402 98.9234 716.381 98.2241 716.189 97.5627C715.997 96.9014 715.64 96.2994 715.152 95.8132L709.187 89.884C708.702 89.3944 708.1 89.0365 707.438 88.8444C706.776 88.6523 706.076 88.6322 705.405 88.786C704.282 89.0422 695.645 91.226 692.424 92.446L683.274 88.664C681.944 85.736 677.467 78.233 676.649 76.9398C676.288 76.348 675.781 75.8588 675.176 75.5192C674.572 75.1795 673.89 75.0008 673.197 75H664.803C664.114 75.0003 663.436 75.175 662.832 75.5078C662.229 75.8405 661.719 76.3206 661.351 76.9032C660.728 77.8792 656.129 85.5774 654.726 88.6274L645.576 92.4094C642.55 91.287 634.071 89.1276 632.595 88.7494C631.923 88.5979 631.224 88.6191 630.563 88.8112C629.901 89.0032 629.299 89.3597 628.813 89.8474L622.884 95.8132C622.394 96.2981 622.037 96.9 621.844 97.5618C621.652 98.2236 621.632 98.9234 621.786 99.5952C622.042 100.718 624.226 109.355 625.446 112.576L621.664 121.726C618.736 123.056 611.233 127.533 609.94 128.351C609.348 128.712 608.859 129.219 608.519 129.824C608.18 130.428 608.001 131.11 608 131.803V140.185C608 140.874 608.175 141.552 608.508 142.156C608.841 142.759 609.321 143.269 609.903 143.637C610.879 144.259 618.577 148.859 621.627 150.262L625.409 159.412C624.287 162.437 622.128 170.916 621.749 172.393C621.598 173.064 621.619 173.764 621.811 174.425C622.003 175.086 622.36 175.688 622.847 176.175L628.777 182.104C629.262 182.593 629.863 182.951 630.525 183.143C631.187 183.335 631.887 183.356 632.559 183.202C633.681 182.946 642.319 180.762 645.539 179.542L654.689 183.324C656.019 186.252 660.497 193.755 661.314 195.048C661.677 195.647 662.189 196.142 662.801 196.484C663.412 196.827 664.102 197.004 664.803 197H673.185C673.874 197 674.552 196.825 675.155 196.492C675.759 196.159 676.269 195.679 676.637 195.097C677.259 194.121 681.859 186.423 683.262 183.373L692.412 179.591C695.437 180.713 703.916 182.872 705.393 183.251C706.064 183.402 706.764 183.381 707.425 183.189C708.086 182.997 708.688 182.64 709.175 182.153L715.104 176.223C715.593 175.738 715.951 175.137 716.143 174.475C716.335 173.813 716.356 173.113 716.202 172.441C715.946 171.319 713.762 162.681 712.542 159.461L716.324 150.311C719.252 148.981 726.755 144.503 728.048 143.686C728.647 143.323 729.142 142.811 729.484 142.199C729.827 141.587 730.004 140.898 730 140.197V131.803C730.005 131.113 729.833 130.433 729.5 129.828C729.167 129.223 728.683 128.715 728.097 128.351ZM669 162.559C663.742 162.555 658.604 160.991 654.235 158.066C649.866 155.141 646.462 150.986 644.455 146.126C642.447 141.267 641.926 135.921 642.956 130.765C643.987 125.61 646.523 120.875 650.244 117.161C653.965 113.446 658.704 110.919 663.862 109.898C669.02 108.877 674.364 109.408 679.22 111.425C684.076 113.441 688.224 116.852 691.141 121.227C694.059 125.601 695.613 130.742 695.608 136C695.592 143.047 692.782 149.801 687.794 154.78C682.806 159.758 676.047 162.556 669 162.559Z" fill="url(#paint0_linear)"/>
</g>
<g opacity="0.2">
<path d="M124.231 260.022C134.839 266.545 172.199 267.985 208.983 267.669C108.4 223.396 46.8885 127.353 46.8885 127.353C72.1593 163.983 300.864 248.83 300.864 248.83L293.829 275.487L296.079 289.214C212.74 318.747 124.231 260.022 124.231 260.022Z" fill="#FFE2E4"/>
<path d="M124.231 260.022C134.839 266.545 172.199 267.985 208.983 267.669C108.4 223.396 46.8885 127.353 46.8885 127.353C72.1593 163.983 300.864 248.83 300.864 248.83L293.829 275.487L296.079 289.214C212.74 318.747 124.231 260.022 124.231 260.022Z" fill="url(#paint1_linear)"/>
</g>
<g opacity="0.2">
<path d="M854.973 255.44C843.507 264.035 802.044 270.212 761.132 274.354C870.733 212.528 888.935 140.805 888.935 140.805C862.68 184.876 658.036 264.506 658.036 264.506L667.197 293.471L665.385 309.104C759.523 331.959 854.973 255.44 854.973 255.44Z" fill="#FFE2E4"/>
<path d="M854.973 255.44C843.507 264.035 802.044 270.212 761.132 274.354C870.733 212.528 888.935 140.805 888.935 140.805C862.68 184.876 658.036 264.506 658.036 264.506L667.197 293.471L665.385 309.104C759.523 331.959 854.973 255.44 854.973 255.44Z" fill="url(#paint2_linear)"/>
</g>
<path d="M163.481 220.787C158.148 234.165 168.344 249.259 181.481 257.287C208.481 273.788 350.481 249.786 350.481 249.786C350.481 249.786 332.481 188.287 326.981 135.787C325.036 117.224 312.141 100.796 294.981 100.287C266.163 99.4316 270.98 166.286 258.481 170.786C245.981 175.287 212.981 46.2856 163.481 72.2861C113.981 98.2866 228.48 196.288 216.98 206.787C200.574 221.766 170.939 202.075 163.481 220.787Z" fill="white"/>
<path d="M163.481 220.787C158.148 234.165 168.344 249.259 181.481 257.287C208.481 273.788 350.481 249.786 350.481 249.786C350.481 249.786 332.481 188.287 326.981 135.787C325.036 117.224 312.141 100.796 294.981 100.287C266.163 99.4316 270.98 166.286 258.481 170.786C245.981 175.287 212.981 46.2856 163.481 72.2861C113.981 98.2866 228.48 196.288 216.98 206.787C200.574 221.766 170.939 202.075 163.481 220.787Z" fill="url(#paint3_linear)"/>
<path d="M310.814 272.235C310.206 271.847 305.411 268.982 303.511 268.108L301.155 262.408C301.854 260.523 303.199 255.241 303.435 254.322C303.529 253.903 303.516 253.467 303.396 253.055C303.277 252.643 303.055 252.268 302.751 251.966L299.034 248.272C298.732 247.967 298.357 247.744 297.945 247.624C297.533 247.505 297.097 247.492 296.678 247.588C295.979 247.748 290.598 249.108 288.592 249.868L282.892 247.512C282.064 245.688 279.274 241.014 278.765 240.208C278.54 239.84 278.224 239.535 277.848 239.323C277.471 239.112 277.046 239 276.614 239H271.386C270.956 239 270.534 239.109 270.158 239.316C269.782 239.524 269.464 239.823 269.235 240.186C268.847 240.794 265.982 245.589 265.108 247.489L259.408 249.845C257.523 249.146 252.241 247.801 251.322 247.565C250.903 247.471 250.467 247.484 250.055 247.604C249.643 247.723 249.268 247.945 248.966 248.249L245.272 251.966C244.967 252.268 244.744 252.643 244.624 253.055C244.505 253.467 244.492 253.903 244.588 254.322C244.748 255.021 246.108 260.402 246.868 262.408L244.512 268.108C242.688 268.936 238.014 271.726 237.208 272.235C236.84 272.46 236.535 272.776 236.323 273.152C236.112 273.529 236 273.954 236 274.386V279.607C236 280.036 236.109 280.459 236.316 280.835C236.524 281.211 236.823 281.528 237.186 281.758C237.794 282.145 242.589 285.01 244.489 285.884L246.845 291.584C246.146 293.469 244.801 298.751 244.565 299.671C244.471 300.089 244.484 300.525 244.604 300.937C244.723 301.349 244.945 301.724 245.249 302.027L248.943 305.72C249.245 306.025 249.62 306.248 250.032 306.368C250.444 306.488 250.88 306.5 251.299 306.404C251.998 306.245 257.379 304.884 259.385 304.124L265.085 306.48C265.914 308.304 268.703 312.978 269.212 313.784C269.438 314.157 269.757 314.466 270.138 314.679C270.519 314.892 270.949 315.003 271.386 315H276.607C277.036 315 277.459 314.891 277.835 314.684C278.211 314.476 278.528 314.177 278.758 313.814C279.145 313.206 282.01 308.411 282.884 306.511L288.584 304.155C290.469 304.854 295.751 306.199 296.671 306.435C297.089 306.529 297.525 306.516 297.937 306.396C298.349 306.277 298.724 306.055 299.027 305.751L302.72 302.057C303.025 301.755 303.248 301.38 303.368 300.968C303.488 300.556 303.5 300.12 303.404 299.701C303.245 299.002 301.884 293.621 301.124 291.615L303.48 285.915C305.304 285.086 309.978 282.297 310.784 281.788C311.157 281.562 311.466 281.243 311.679 280.862C311.892 280.481 312.003 280.051 312 279.614V274.386C312.003 273.956 311.896 273.532 311.688 273.155C311.481 272.778 311.18 272.462 310.814 272.235ZM274 293.545C270.725 293.542 267.524 292.568 264.802 290.746C262.08 288.924 259.96 286.335 258.71 283.308C257.459 280.281 257.134 276.951 257.776 273.739C258.418 270.527 259.998 267.578 262.316 265.264C264.634 262.95 267.586 261.376 270.799 260.74C274.012 260.104 277.342 260.435 280.367 261.691C283.391 262.947 285.976 265.072 287.793 267.797C289.61 270.522 290.579 273.725 290.576 277C290.565 281.39 288.815 285.597 285.708 288.699C282.601 291.8 278.39 293.543 274 293.545Z" fill="#FFE2E4"/>
<path d="M310.814 272.235C310.206 271.847 305.411 268.982 303.511 268.108L301.155 262.408C301.854 260.523 303.199 255.241 303.435 254.322C303.529 253.903 303.516 253.467 303.396 253.055C303.277 252.643 303.055 252.268 302.751 251.966L299.034 248.272C298.732 247.967 298.357 247.744 297.945 247.624C297.533 247.505 297.097 247.492 296.678 247.588C295.979 247.748 290.598 249.108 288.592 249.868L282.892 247.512C282.064 245.688 279.274 241.014 278.765 240.208C278.54 239.84 278.224 239.535 277.848 239.323C277.471 239.112 277.046 239 276.614 239H271.386C270.956 239 270.534 239.109 270.158 239.316C269.782 239.524 269.464 239.823 269.235 240.186C268.847 240.794 265.982 245.589 265.108 247.489L259.408 249.845C257.523 249.146 252.241 247.801 251.322 247.565C250.903 247.471 250.467 247.484 250.055 247.604C249.643 247.723 249.268 247.945 248.966 248.249L245.272 251.966C244.967 252.268 244.744 252.643 244.624 253.055C244.505 253.467 244.492 253.903 244.588 254.322C244.748 255.021 246.108 260.402 246.868 262.408L244.512 268.108C242.688 268.936 238.014 271.726 237.208 272.235C236.84 272.46 236.535 272.776 236.323 273.152C236.112 273.529 236 273.954 236 274.386V279.607C236 280.036 236.109 280.459 236.316 280.835C236.524 281.211 236.823 281.528 237.186 281.758C237.794 282.145 242.589 285.01 244.489 285.884L246.845 291.584C246.146 293.469 244.801 298.751 244.565 299.671C244.471 300.089 244.484 300.525 244.604 300.937C244.723 301.349 244.945 301.724 245.249 302.027L248.943 305.72C249.245 306.025 249.62 306.248 250.032 306.368C250.444 306.488 250.88 306.5 251.299 306.404C251.998 306.245 257.379 304.884 259.385 304.124L265.085 306.48C265.914 308.304 268.703 312.978 269.212 313.784C269.438 314.157 269.757 314.466 270.138 314.679C270.519 314.892 270.949 315.003 271.386 315H276.607C277.036 315 277.459 314.891 277.835 314.684C278.211 314.476 278.528 314.177 278.758 313.814C279.145 313.206 282.01 308.411 282.884 306.511L288.584 304.155C290.469 304.854 295.751 306.199 296.671 306.435C297.089 306.529 297.525 306.516 297.937 306.396C298.349 306.277 298.724 306.055 299.027 305.751L302.72 302.057C303.025 301.755 303.248 301.38 303.368 300.968C303.488 300.556 303.5 300.12 303.404 299.701C303.245 299.002 301.884 293.621 301.124 291.615L303.48 285.915C305.304 285.086 309.978 282.297 310.784 281.788C311.157 281.562 311.466 281.243 311.679 280.862C311.892 280.481 312.003 280.051 312 279.614V274.386C312.003 273.956 311.896 273.532 311.688 273.155C311.481 272.778 311.18 272.462 310.814 272.235ZM274 293.545C270.725 293.542 267.524 292.568 264.802 290.746C262.08 288.924 259.96 286.335 258.71 283.308C257.459 280.281 257.134 276.951 257.776 273.739C258.418 270.527 259.998 267.578 262.316 265.264C264.634 262.95 267.586 261.376 270.799 260.74C274.012 260.104 277.342 260.435 280.367 261.691C283.391 262.947 285.976 265.072 287.793 267.797C289.61 270.522 290.579 273.725 290.576 277C290.565 281.39 288.815 285.597 285.708 288.699C282.601 291.8 278.39 293.543 274 293.545Z" fill="url(#paint4_linear)"/>
<g opacity="0.5">
<path opacity="0.5" d="M697.649 411.849C699.384 412.795 699.384 414.373 697.649 415.319L680.611 425.258C678.875 426.205 676.193 426.205 674.616 425.258L657.577 415.319C655.842 414.373 655.842 412.795 657.577 411.849L674.616 401.91C676.351 400.963 679.033 400.963 680.611 401.91L697.649 411.849Z" fill="url(#paint5_linear)"/>
</g>
<path d="M697.649 400.963L680.611 410.902C678.876 411.849 676.194 411.849 674.616 410.902L657.578 400.963C656.789 400.49 656.316 399.859 656.316 399.228V408.22C656.316 408.851 656.789 409.482 657.578 409.955L674.616 419.894C676.351 420.841 679.033 420.841 680.611 419.894L697.649 409.955C698.438 409.482 698.911 408.851 698.911 408.22V399.228C698.911 399.859 698.438 400.49 697.649 400.963Z" fill="url(#paint6_linear)"/>
<path d="M677.613 420.841C676.509 420.841 675.405 420.525 674.458 420.052L657.42 410.113C656.473 409.64 656 408.851 656 408.062V399.07H656.473C656.473 399.701 656.947 400.174 657.578 400.647L674.616 410.586C676.194 411.533 678.875 411.533 680.453 410.586L697.491 400.647C698.28 400.174 698.596 399.701 698.596 399.07H699.069V408.062C699.069 408.851 698.596 409.482 697.649 409.955L680.611 419.894C679.98 420.683 678.876 420.841 677.613 420.841ZM656.631 400.49V408.22C656.631 408.851 657.104 409.324 657.735 409.798L674.774 419.737C676.351 420.683 679.033 420.683 680.611 419.737L697.649 409.798C698.438 409.324 698.754 408.851 698.754 408.22V400.49C698.596 400.805 698.28 400.963 697.965 401.121L680.926 411.06C679.191 412.006 676.351 412.006 674.616 411.06L657.578 401.121C657.104 400.963 656.789 400.805 656.631 400.49Z" fill="white"/>
<path d="M697.649 397.492C699.385 398.439 699.385 400.016 697.649 400.963L680.611 410.902C678.875 411.849 676.194 411.849 674.616 410.902L657.578 400.963C655.842 400.016 655.842 398.439 657.578 397.492L674.616 387.553C676.351 386.607 679.033 386.607 680.611 387.553L697.649 397.492Z" fill="url(#paint7_linear)"/>
<path d="M691.812 392.759L679.822 399.701C678.718 400.332 676.667 400.332 675.563 399.701L663.415 392.759C662.784 392.444 662.468 391.971 662.468 391.497V399.228C662.468 399.701 662.784 400.174 663.415 400.49L675.563 407.431C676.667 408.062 678.718 408.062 679.822 407.431L691.812 400.49C692.443 400.174 692.759 399.701 692.759 399.228V391.497C692.759 391.971 692.443 392.444 691.812 392.759Z" fill="url(#paint8_linear)"/>
<path d="M691.813 390.235C692.917 390.866 693.075 391.971 691.813 392.759L679.823 399.701C678.718 400.332 676.667 400.332 675.563 399.701L663.415 392.759C662.311 392.128 662.153 391.024 663.415 390.235L675.405 383.294C676.51 382.663 678.561 382.663 679.665 383.294L691.813 390.235Z" fill="#FFE2E4"/>
<path d="M691.813 390.235C692.917 390.866 693.075 391.971 691.813 392.759L679.823 399.701C678.718 400.332 676.667 400.332 675.563 399.701L663.415 392.759C662.311 392.128 662.153 391.024 663.415 390.235L675.405 383.294C676.51 382.663 678.561 382.663 679.665 383.294L691.813 390.235Z" fill="url(#paint9_linear)"/>
<g opacity="0.5">
<path opacity="0.5" d="M105.736 354.29C108.26 355.71 108.26 358.234 105.736 359.654L79.7054 374.799C77.1812 376.219 73.0794 376.219 70.3974 374.799L44.2089 359.654C41.6847 358.234 41.6847 355.71 44.2089 354.29L70.2397 339.145C72.7639 337.725 76.8657 337.725 79.5477 339.145L105.736 354.29Z" fill="url(#paint10_linear)"/>
</g>
<path d="M105.736 337.568L79.7049 352.713C77.1807 354.133 73.0789 354.133 70.3969 352.713L44.2085 337.568C42.9464 336.779 42.3153 335.833 42.3153 334.886V348.769C42.3153 349.716 42.9464 350.662 44.2085 351.451L70.3969 366.596C72.9211 368.016 77.023 368.016 79.7049 366.596L105.736 351.451C106.998 350.662 107.629 349.716 107.629 348.769V334.886C107.629 335.833 106.998 336.779 105.736 337.568Z" fill="url(#paint11_linear)"/>
<path d="M75.13 368.016C73.3946 368.016 71.6593 367.701 70.2394 366.912L44.051 351.767C42.6311 350.978 42 349.874 42 348.77V334.886H42.7888C42.7888 335.833 43.4199 336.622 44.5243 337.253L70.7127 352.398C73.2369 353.818 77.181 353.818 79.5474 352.398L105.578 337.253C106.683 336.622 107.314 335.833 107.314 334.886H108.102V348.77C108.102 349.874 107.314 350.978 106.051 351.767L80.0207 366.912C78.6008 367.701 76.8654 368.016 75.13 368.016ZM42.7888 336.78V348.77C42.7888 349.716 43.4199 350.505 44.5243 351.136L70.7127 366.281C73.2369 367.701 77.181 367.701 79.5474 366.281L105.578 351.136C106.683 350.505 107.314 349.716 107.314 348.77V336.78C106.998 337.095 106.525 337.568 106.051 337.884L80.0207 353.029C77.3388 354.607 73.0791 354.607 70.3972 353.029L44.2087 337.884C43.5777 337.568 43.1043 337.253 42.7888 336.78Z" fill="white"/>
<path d="M105.736 332.204C108.26 333.624 108.26 336.148 105.736 337.568L79.7052 352.713C77.181 354.133 73.0791 354.133 70.3972 352.713L44.2087 337.568C41.6845 336.148 41.6845 333.624 44.2087 332.204L70.2394 317.059C72.7636 315.639 76.8655 315.639 79.5474 317.059L105.736 332.204Z" fill="url(#paint12_linear)"/>
<path d="M96.9017 324.947L78.4436 335.674C76.7082 336.779 73.7107 336.779 71.8175 335.674L53.2016 324.947C52.2551 324.473 51.7817 323.685 51.7817 323.053V334.886C51.7817 335.517 52.2551 336.305 53.2016 336.779L71.8175 347.507C73.5529 348.611 76.5504 348.611 78.4436 347.507L96.9017 336.779C97.8483 336.305 98.1638 335.517 98.3215 334.886V323.053C98.1638 323.685 97.6905 324.473 96.9017 324.947Z" fill="url(#paint13_linear)"/>
<path d="M96.7438 321.16C98.4792 322.264 98.637 323.842 96.7438 324.946L78.2856 335.674C76.5503 336.779 73.5529 336.779 71.6597 335.674L53.0437 324.946C51.3083 323.842 51.1506 322.264 53.0437 321.16L71.5019 310.432C73.2373 309.328 76.2348 309.328 77.9702 310.432L96.7438 321.16Z" fill="#FFE2E4"/>
<path d="M96.7438 321.16C98.4792 322.264 98.637 323.842 96.7438 324.946L78.2856 335.674C76.5503 336.779 73.5529 336.779 71.6597 335.674L53.0437 324.946C51.3083 323.842 51.1506 322.264 53.0437 321.16L71.5019 310.432C73.2373 309.328 76.2348 309.328 77.9702 310.432L96.7438 321.16Z" fill="url(#paint14_linear)"/>
<g opacity="0.65">
<g opacity="0.43">
<path d="M96.7433 314.376C98.4787 315.481 98.6365 317.058 96.7433 318.163L78.2852 328.891C76.5498 329.995 73.5524 329.995 71.6592 328.891L53.0432 318.163C51.3078 317.058 51.1501 315.481 53.0432 314.376L71.5014 303.649C73.2368 302.544 76.2343 302.544 77.9697 303.649L96.7433 314.376Z" fill="#FFE2E4"/>
<path d="M96.7433 314.376C98.4787 315.481 98.6365 317.058 96.7433 318.163L78.2852 328.891C76.5498 329.995 73.5524 329.995 71.6592 328.891L53.0432 318.163C51.3078 317.058 51.1501 315.481 53.0432 314.376L71.5014 303.649C73.2368 302.544 76.2343 302.544 77.9697 303.649L96.7433 314.376Z" fill="url(#paint15_linear)"/>
</g>
</g>
<rect x="278" y="145.82" width="205" height="181" rx="20" fill="#F5F7FC"/>
<rect x="278" y="145.82" width="205" height="181" rx="20" fill="url(#paint16_linear)" fill-opacity="0.35"/>
<rect x="307" y="173.82" width="106" height="14" fill="#C9D1E4"/>
<rect x="307" y="222.82" width="114" height="20" fill="white"/>
<rect x="308" y="256.82" width="114" height="20" fill="white"/>
<rect x="316" y="196.82" width="106" height="5" fill="#C9D1E4"/>
<rect x="630" y="157.82" width="126" height="88" rx="10" fill="#D3E0FF"/>
<rect x="630" y="157.82" width="126" height="88" rx="10" fill="url(#paint17_linear)" fill-opacity="0.5"/>
<rect x="630" y="175.82" width="126" height="15" fill="#4B62C5" fill-opacity="0.35"/>
<path d="M785.054 272.042C788.449 280.513 781.958 290.069 773.594 295.153C756.405 305.601 666 290.403 666 290.403C666 290.403 677.46 251.463 680.961 218.222C682.199 206.468 690.409 196.066 701.334 195.744C719.681 195.202 716.614 237.533 724.572 240.382C732.53 243.232 753.54 161.551 785.054 178.014C816.568 194.477 743.672 256.529 750.993 263.177C761.438 272.661 780.306 260.194 785.054 272.042Z" fill="white"/>
<path d="M785.054 272.042C788.449 280.513 781.958 290.069 773.594 295.153C756.405 305.601 666 290.403 666 290.403C666 290.403 677.46 251.463 680.961 218.222C682.199 206.468 690.409 196.066 701.334 195.744C719.681 195.202 716.614 237.533 724.572 240.382C732.53 243.232 753.54 161.551 785.054 178.014C816.568 194.477 743.672 256.529 750.993 263.177C761.438 272.661 780.306 260.194 785.054 272.042Z" fill="url(#paint18_linear)"/>
<rect x="607" y="232.82" width="88" height="105" rx="10" fill="#FEFEFF"/>
<rect x="607" y="232.82" width="88" height="105" rx="10" fill="url(#paint19_linear)" fill-opacity="0.35"/>
<rect x="619.572" y="249.717" width="64.9524" height="8.44828" fill="#C9D1E4"/>
<rect x="627.952" y="263.596" width="45.5024" height="3.01724" fill="#C9D1E4"/>
<g opacity="0.35">
<rect x="623.064" y="302.217" width="55.873" height="1.81034" fill="#C9D1E4" fill-opacity="0.5"/>
<rect x="623.064" y="302.217" width="55.873" height="1.81034" fill="#C9D1E4" fill-opacity="0.5"/>
<rect x="623.064" y="302.217" width="55.873" height="1.81034" fill="#C9D1E4" fill-opacity="0.5"/>
<rect x="623.064" y="296.785" width="55.873" height="1.81034" fill="#C9D1E4" fill-opacity="0.5"/>
<rect x="623.064" y="296.785" width="55.873" height="1.81034" fill="#C9D1E4" fill-opacity="0.5"/>
<rect x="623.064" y="296.785" width="55.873" height="1.81034" fill="#C9D1E4" fill-opacity="0.5"/>
<rect x="623.064" y="308.251" width="55.873" height="1.81034" fill="#C9D1E4" fill-opacity="0.5"/>
<rect x="623.064" y="308.251" width="55.873" height="1.81034" fill="#C9D1E4" fill-opacity="0.5"/>
<rect x="623.064" y="308.251" width="55.873" height="1.81034" fill="#C9D1E4" fill-opacity="0.5"/>
</g>
<path opacity="0.5" d="M427.451 371.424C432.895 374.448 432.895 379.591 427.451 382.616L354.249 425.266C349.107 428.291 340.335 428.291 335.192 425.266L261.084 382.616C255.639 379.591 255.639 374.448 261.084 371.424L334.285 328.773C339.427 325.748 348.199 325.748 353.342 328.773L427.451 371.424Z" fill="url(#paint20_linear)"/>
<path d="M427.451 360.178L354.249 402.829C349.107 405.853 340.335 405.853 335.193 402.829L261.084 360.178C258.362 358.666 257.152 356.548 257.152 354.431V365.018C257.152 367.135 258.362 368.95 261.084 370.765L334.89 413.416C340.335 416.44 348.805 416.44 353.947 413.416L427.148 370.765C429.871 369.253 431.081 367.135 431.081 365.32V354.733C431.383 356.548 430.173 358.666 427.451 360.178Z" fill="url(#paint21_linear)"/>
<path d="M427.451 360.178L354.249 402.829C349.107 405.853 340.335 405.853 335.193 402.829L261.084 360.178C258.362 358.666 257.152 356.548 257.152 354.431V365.018C257.152 367.135 258.362 368.95 261.084 370.765L334.89 413.416C340.335 416.44 348.805 416.44 353.947 413.416L427.148 370.765C429.871 369.253 431.081 367.135 431.081 365.32V354.733C431.383 356.548 430.173 358.666 427.451 360.178Z" fill="url(#paint22_linear)" stroke="white" stroke-width="0.5" stroke-miterlimit="10"/>
<path d="M427.451 348.986C432.895 352.011 432.895 357.153 427.451 360.178L354.249 402.828C349.107 405.853 340.335 405.853 335.192 402.828L261.084 360.178C255.639 357.153 255.639 352.011 261.084 348.986L334.285 306.335C339.427 303.31 348.199 303.31 353.342 306.335L427.451 348.986Z" fill="url(#paint23_linear)"/>
<path d="M402.344 350.801C405.974 352.919 405.974 356.548 402.344 358.666L350.922 388.612C347.292 390.729 341.242 390.729 337.612 388.612L285.888 358.666C282.258 356.548 282.258 352.919 285.888 350.801L337.31 320.855C340.94 318.738 346.99 318.738 350.619 320.855L402.344 350.801Z" fill="#FFE2E4"/>
<path d="M402.344 350.801C405.974 352.919 405.974 356.548 402.344 358.666L350.922 388.612C347.292 390.729 341.242 390.729 337.612 388.612L285.888 358.666C282.258 356.548 282.258 352.919 285.888 350.801L337.31 320.855C340.94 318.738 346.99 318.738 350.619 320.855L402.344 350.801Z" fill="url(#paint24_linear)"/>
<g opacity="0.55">
<path d="M402.344 330.534C405.974 332.652 405.974 336.281 402.344 338.399L350.922 368.345C347.292 370.462 341.242 370.462 337.612 368.345L285.888 338.399C282.258 336.281 282.258 332.652 285.888 330.534L337.31 300.588C340.94 298.471 346.99 298.471 350.619 300.588L402.344 330.534Z" fill="#FFE2E4"/>
<path d="M402.344 330.534C405.974 332.652 405.974 336.281 402.344 338.399L350.922 368.345C347.292 370.462 341.242 370.462 337.612 368.345L285.888 338.399C282.258 336.281 282.258 332.652 285.888 330.534L337.31 300.588C340.94 298.471 346.99 298.471 350.619 300.588L402.344 330.534Z" fill="url(#paint25_linear)"/>
</g>
<path d="M532.493 376C531.608 376 530.725 375.837 529.887 375.515C526.833 374.34 523.745 373.188 520.637 372.03C492.062 361.375 459.678 349.301 440.155 311.379C420.254 272.76 418.635 217.955 418.635 155.54C418.635 152.341 420.727 149.523 423.786 148.594L530.389 116.311C531.761 115.896 533.224 115.896 534.594 116.311L641.214 148.591C644.276 149.517 646.365 152.338 646.365 155.537C646.365 217.952 644.746 272.76 624.842 311.379C605.313 349.313 572.907 361.387 544.319 372.038C541.223 373.193 538.141 374.343 535.096 375.512C534.26 375.837 533.378 376 532.493 376ZM433.152 160.921C433.25 219.165 435.192 270.067 453.055 304.733C470.007 337.659 498.314 348.218 525.692 358.429C525.697 358.431 525.702 358.433 525.707 358.435C527.98 359.282 530.244 360.127 532.493 360.98C534.733 360.13 536.991 359.288 539.255 358.447C539.258 358.445 539.261 358.444 539.264 358.443C566.658 348.234 594.986 337.677 611.945 304.735C629.811 270.073 631.752 219.168 631.851 160.921L532.493 130.838L433.152 160.921Z" fill="#A3B7E9"/>
<path d="M433.152 160.921C433.25 219.165 435.192 270.067 453.055 304.733C470.007 337.659 498.314 348.218 525.692 358.429L525.707 358.435C527.98 359.282 530.244 360.127 532.493 360.98C534.733 360.13 536.991 359.288 539.255 358.447L539.264 358.443C566.658 348.234 594.986 337.677 611.945 304.735C629.811 270.073 631.752 219.168 631.851 160.921L532.493 130.838L433.152 160.921Z" fill="#A3B7E9"/>
<path d="M532.033 345.575C531.331 345.575 530.631 345.446 529.965 345.191C527.542 344.262 525.092 343.351 522.626 342.435C499.95 334.009 474.253 324.462 458.761 294.473C442.97 263.934 441.684 220.596 441.684 171.239C441.684 168.71 443.345 166.481 445.772 165.747L530.364 140.218C531.453 139.89 532.614 139.89 533.701 140.218L618.306 165.744C620.736 166.476 622.394 168.707 622.394 171.237C622.394 220.593 621.109 263.934 605.315 294.473C589.818 324.471 564.103 334.019 541.418 342.442C538.961 343.355 536.515 344.264 534.099 345.189C533.436 345.446 532.736 345.575 532.033 345.575ZM453.204 175.494C453.282 221.553 454.823 261.805 468.998 289.218C482.45 315.256 504.912 323.605 526.637 331.68C526.641 331.681 526.645 331.683 526.649 331.684C528.452 332.355 530.248 333.022 532.033 333.697C533.811 333.025 535.603 332.359 537.399 331.694C537.402 331.693 537.404 331.692 537.406 331.691C559.145 323.617 581.623 315.269 595.08 289.22C609.257 261.809 610.798 221.555 610.876 175.494L532.033 151.705L453.204 175.494Z" fill="#5970CB"/>
<path d="M532.033 345.575C531.331 345.575 530.631 345.446 529.965 345.191C527.542 344.262 525.092 343.351 522.626 342.435C499.95 334.009 474.253 324.462 458.761 294.473C442.97 263.934 441.684 220.596 441.684 171.239C441.684 168.71 443.345 166.481 445.772 165.747L530.364 140.218C531.453 139.89 532.614 139.89 533.701 140.218L618.306 165.744C620.736 166.476 622.394 168.707 622.394 171.237C622.394 220.593 621.109 263.934 605.315 294.473C589.818 324.471 564.103 334.019 541.418 342.442C538.961 343.355 536.515 344.264 534.099 345.189C533.436 345.446 532.736 345.575 532.033 345.575ZM453.204 175.494C453.282 221.553 454.823 261.805 468.998 289.218C482.45 315.256 504.912 323.605 526.637 331.68C526.641 331.681 526.645 331.683 526.649 331.684C528.452 332.355 530.248 333.022 532.033 333.697C533.811 333.025 535.603 332.359 537.399 331.694C537.402 331.693 537.404 331.692 537.406 331.691C559.145 323.617 581.623 315.269 595.08 289.22C609.257 261.809 610.798 221.555 610.876 175.494L532.033 151.705L453.204 175.494Z" fill="url(#paint26_linear)"/>
<path d="M453.204 175.494C453.282 221.553 454.823 261.805 468.998 289.218C482.45 315.256 504.912 323.605 526.637 331.68L526.649 331.684C528.452 332.355 530.248 333.022 532.033 333.697C533.811 333.025 535.603 332.359 537.399 331.694L537.406 331.691C559.145 323.617 581.623 315.269 595.08 289.22C609.257 261.809 610.798 221.555 610.876 175.494L532.033 151.705L453.204 175.494Z" fill="#5970CB"/>
<path d="M453.204 175.494C453.282 221.553 454.823 261.805 468.998 289.218C482.45 315.256 504.912 323.605 526.637 331.68L526.649 331.684C528.452 332.355 530.248 333.022 532.033 333.697C533.811 333.025 535.603 332.359 537.399 331.694L537.406 331.691C559.145 323.617 581.623 315.269 595.08 289.22C609.257 261.809 610.798 221.555 610.876 175.494L532.033 151.705L453.204 175.494Z" fill="url(#paint27_linear)"/>
<g clip-path="url(#clip0)">
<path d="M684.004 414.707L715.946 434.97C720.053 437.618 725.415 437.387 729.294 434.509L867.788 349.658C869.5 348.622 869.386 345.974 867.56 345.168L833.792 328.82" stroke="#FFE2E4" stroke-miterlimit="10"/>
<path d="M684.004 414.707L715.946 434.97C720.053 437.618 725.415 437.387 729.294 434.509L867.788 349.658C869.5 348.622 869.386 345.974 867.56 345.168L833.792 328.82" stroke="url(#paint28_linear)" stroke-miterlimit="10"/>
</g>
<g clip-path="url(#clip1)">
<path d="M85 355.805L219.846 438.196C226.769 442.646 235.808 442.259 242.346 437.422L475.809 294.838C478.693 293.096 478.501 288.647 475.424 287.292L418.501 259.82" stroke="#FFE2E4" stroke-miterlimit="10"/>
<path d="M85 355.805L219.846 438.196C226.769 442.646 235.808 442.259 242.346 437.422L475.809 294.838C478.693 293.096 478.501 288.647 475.424 287.292L418.501 259.82" stroke="url(#paint29_linear)" stroke-miterlimit="10"/>
<path d="M202.165 338.51V364.473L176.965 379.746V353.019L202.165 338.51Z" fill="url(#paint30_linear)"/>
<path d="M176.964 353.019V379.746L151 364.473V338.51L176.964 353.019Z" fill="url(#paint31_linear)"/>
<path d="M202.165 338.509L176.965 353.018L151.001 338.509L176.201 324L202.165 338.509Z" fill="url(#paint32_linear)"/>
</g>
<path opacity="0.3" d="M938.071 154.002C941.785 151.776 945.499 153.26 945.499 158.453V200.743C945.499 205.194 942.528 211.13 938.071 213.355L900.929 234.871C897.215 237.097 893.5 235.613 893.5 230.42V188.13C893.5 183.679 896.472 177.743 900.929 175.517L938.071 154.002Z" fill="#DEE8FF"/>
<path opacity="0.3" d="M957.57 163.751C961.284 161.526 964.999 163.009 964.999 168.203V210.492C964.999 214.944 962.027 220.879 957.57 223.105L920.428 244.621C916.714 246.847 913 245.363 913 240.169V197.88C913 193.428 915.971 187.493 920.428 185.267L957.57 163.751Z" fill="#BAC9FF"/>
<path opacity="0.45" d="M981.945 180.001C985.659 177.775 989.373 179.259 989.373 184.452V226.742C989.373 231.193 986.402 237.129 981.945 239.355L944.803 260.87C941.089 263.096 937.374 261.612 937.374 256.419V214.129C937.374 209.678 940.346 203.742 944.803 201.517L981.945 180.001Z" fill="#BAC9FF"/>
<path opacity="0.5" d="M890.917 367.637C894.428 369.588 894.428 372.904 890.917 374.854L843.714 402.357C840.398 404.307 834.741 404.307 831.425 402.357L783.637 374.854C780.126 372.904 780.126 369.588 783.637 367.637L830.84 340.135C834.156 338.184 839.813 338.184 843.129 340.135L890.917 367.637Z" fill="url(#paint33_linear)"/>
<path d="M890.917 360.27L843.714 387.773C840.398 389.723 834.742 389.723 831.426 387.773L783.637 360.27C781.882 359.295 781.102 357.93 781.102 356.564V363.391C781.102 364.757 781.882 365.927 783.637 367.097L831.231 394.6C834.742 396.55 840.203 396.55 843.519 394.6L890.722 367.097C892.478 366.122 893.258 364.757 893.258 363.586V356.759C893.453 357.93 892.673 359.295 890.917 360.27Z" fill="url(#paint34_linear)"/>
<path d="M890.917 360.27L843.714 387.773C840.398 389.723 834.742 389.723 831.426 387.773L783.637 360.27C781.882 359.295 781.102 357.93 781.102 356.564V363.391C781.102 364.757 781.882 365.927 783.637 367.097L831.231 394.6C834.742 396.55 840.203 396.55 843.519 394.6L890.722 367.097C892.478 366.122 893.258 364.757 893.258 363.586V356.759C893.453 357.93 892.673 359.295 890.917 360.27Z" fill="url(#paint35_linear)" stroke="white" stroke-width="0.5" stroke-miterlimit="10"/>
<path d="M890.917 353.053C894.428 355.004 894.428 358.319 890.917 360.27L843.714 387.773C840.398 389.723 834.741 389.723 831.425 387.773L783.637 360.27C780.126 358.319 780.126 355.004 783.637 353.053L830.84 325.55C834.156 323.6 839.813 323.6 843.129 325.55L890.917 353.053Z" fill="url(#paint36_linear)"/>
<path d="M874.728 354.224C877.068 355.589 877.068 357.93 874.728 359.295L841.568 378.605C839.228 379.971 835.326 379.971 832.986 378.605L799.632 359.295C797.291 357.93 797.291 355.589 799.632 354.224L832.791 334.913C835.131 333.548 839.033 333.548 841.373 334.913L874.728 354.224Z" fill="#FFE2E4"/>
<path d="M874.728 354.224C877.068 355.589 877.068 357.93 874.728 359.295L841.568 378.605C839.228 379.971 835.326 379.971 832.986 378.605L799.632 359.295C797.291 357.93 797.291 355.589 799.632 354.224L832.791 334.913C835.131 333.548 839.033 333.548 841.373 334.913L874.728 354.224Z" fill="url(#paint37_linear)"/>
<g opacity="0.55">
<path d="M874.728 341.155C877.068 342.52 877.068 344.861 874.728 346.226L841.568 365.536C839.228 366.902 835.326 366.902 832.986 365.536L799.632 346.226C797.291 344.861 797.291 342.52 799.632 341.155L832.791 321.844C835.131 320.479 839.033 320.479 841.373 321.844L874.728 341.155Z" fill="#FFE2E4"/>
<path d="M874.728 341.155C877.068 342.52 877.068 344.861 874.728 346.226L841.568 365.536C839.228 366.902 835.326 366.902 832.986 365.536L799.632 346.226C797.291 344.861 797.291 342.52 799.632 341.155L832.791 321.844C835.131 320.479 839.033 320.479 841.373 321.844L874.728 341.155Z" fill="url(#paint38_linear)"/>
</g>
<path d="M845.49 259.279V288.113L821.745 304.391V275.556L845.49 259.279Z" fill="url(#paint39_linear)"/>
<path d="M821.745 275.556V304.391L798 288.113V259.278L821.745 275.556Z" fill="url(#paint40_linear)"/>
<path d="M845.49 259.278L821.745 275.556L798 259.278L821.745 243L845.49 259.278Z" fill="url(#paint41_linear)"/>
<path d="M884.515 273.837V289.649L871.455 298.951V282.673L884.515 273.837Z" fill="url(#paint42_linear)"/>
<path d="M871.456 282.673V298.951L858 289.65V273.837L871.456 282.673Z" fill="url(#paint43_linear)"/>
<path d="M884.515 273.837L871.456 282.673L858 273.837L871.06 265L884.515 273.837Z" fill="url(#paint44_linear)"/>
<path d="M856.745 312.906V327.323L844.872 335.695V320.812L856.745 312.906Z" fill="url(#paint45_linear)"/>
<path d="M844.872 320.813V335.695L833 327.324V312.906L844.872 320.813Z" fill="url(#paint46_linear)"/>
<path d="M856.745 312.906L844.873 320.813L833 312.906L844.873 305L856.745 312.906Z" fill="url(#paint47_linear)"/>
<g opacity="0.5">
<path opacity="0.5" d="M24.9257 300.214C25.8723 300.845 25.8723 301.791 24.9257 302.264L14.829 308.102C13.8824 308.733 12.3048 308.733 11.2004 308.102L0.945891 302.264C-0.000681117 301.633 -0.000681117 300.687 0.945891 300.214L11.0427 294.376C11.9892 293.745 13.5669 293.745 14.6712 294.376L24.9257 300.214Z" fill="url(#paint48_linear)"/>
</g>
<path d="M24.9267 293.745L14.83 299.583C13.8834 300.214 12.3058 300.214 11.2014 299.583L0.946891 293.745C0.473605 293.43 0.158081 293.114 0.158081 292.641V298.005C0.158081 298.321 0.473605 298.794 0.946891 299.109L11.2014 304.947C12.148 305.578 13.7256 305.578 14.83 304.947L24.9267 299.109C25.4 298.794 25.7155 298.478 25.7155 298.005V292.641C25.5578 293.114 25.4 293.43 24.9267 293.745Z" fill="url(#paint49_linear)"/>
<path d="M12.9365 305.578C12.3055 305.578 11.5166 305.42 11.0433 305.104L0.78881 299.267C0.315524 298.952 0 298.478 0 298.163V292.799H0.315543C0.315543 293.114 0.631058 293.43 0.946582 293.745L11.2011 299.583C12.1477 300.056 13.7253 300.056 14.6719 299.583L24.7687 293.745C25.2419 293.43 25.3997 293.114 25.3997 292.799H25.7152V298.163C25.7152 298.636 25.3997 298.952 24.9264 299.267L14.8297 305.104C14.3564 305.42 13.7253 305.578 12.9365 305.578ZM0.473315 293.43V298.005C0.473315 298.32 0.788829 298.636 1.10435 298.952L11.3589 304.789C12.3055 305.262 13.8831 305.262 14.8297 304.789L24.9264 298.952C25.3997 298.636 25.5575 298.32 25.5575 298.005V293.43C25.3997 293.588 25.242 293.745 25.0842 293.903L14.9874 299.74C13.8831 300.371 12.3054 300.371 11.2011 299.74L0.946582 293.903C0.78882 293.745 0.473315 293.588 0.473315 293.43Z" fill="white"/>
<path d="M24.926 291.694C25.8726 292.325 25.8726 293.272 24.926 293.745L14.8292 299.582C13.8826 300.213 12.305 300.213 11.2007 299.582L0.946135 293.745C-0.000436977 293.114 -0.000436977 292.168 0.946135 291.694L11.0429 285.857C11.9895 285.226 13.5671 285.226 14.6714 285.857L24.926 291.694Z" fill="url(#paint50_linear)"/>
<path d="M21.4553 288.854L14.356 292.956C13.7249 293.43 12.4628 293.43 11.8318 292.956L4.57476 288.854C4.25923 288.697 4.10144 288.381 4.10144 288.066V292.641C4.10144 292.956 4.25923 293.114 4.57476 293.43L11.8318 297.531C12.4628 298.005 13.7249 298.005 14.356 297.531L21.4553 293.43C21.7708 293.272 21.9286 292.956 21.9286 292.641V288.066C21.9286 288.381 21.7708 288.539 21.4553 288.854Z" fill="url(#paint51_linear)"/>
<path d="M21.4556 287.277C22.0867 287.75 22.0867 288.381 21.4556 288.697L14.3563 292.799C13.7253 293.272 12.4632 293.272 11.8321 292.799L4.57509 288.697C3.94404 288.224 3.94404 287.593 4.57509 287.277L11.6744 283.175C12.3054 282.702 13.5675 282.702 14.1985 283.175L21.4556 287.277Z" fill="#FFE2E4"/>
<path d="M21.4556 287.277C22.0867 287.75 22.0867 288.381 21.4556 288.697L14.3563 292.799C13.7253 293.272 12.4632 293.272 11.8321 292.799L4.57509 288.697C3.94404 288.224 3.94404 287.593 4.57509 287.277L11.6744 283.175C12.3054 282.702 13.5675 282.702 14.1985 283.175L21.4556 287.277Z" fill="url(#paint52_linear)"/>
<defs>
<linearGradient id="paint0_linear" x1="669" y1="75" x2="669" y2="197" gradientUnits="userSpaceOnUse">
<stop stop-color="#FFE2E4"/>
<stop offset="1" stop-color="#BAC2E8"/>
<stop offset="1" stop-color="white" stop-opacity="0"/>
</linearGradient>
<linearGradient id="paint1_linear" x1="67.8802" y1="106.785" x2="270.854" y2="313.931" gradientUnits="userSpaceOnUse">
<stop stop-color="#FFE2E4"/>
<stop offset="1" stop-color="#BAC2E8"/>
<stop offset="1" stop-color="white" stop-opacity="0"/>
</linearGradient>
<linearGradient id="paint2_linear" x1="869.889" y1="124.826" x2="694.671" y2="333.674" gradientUnits="userSpaceOnUse">
<stop stop-color="#FFE2E4"/>
<stop offset="1" stop-color="#BAC2E8"/>
<stop offset="1" stop-color="white" stop-opacity="0"/>
</linearGradient>
<linearGradient id="paint3_linear" x1="162.5" y1="68.821" x2="316.5" y2="249.821" gradientUnits="userSpaceOnUse">
<stop stop-color="#FFE2E4"/>
<stop offset="0.0001" stop-color="#FEF1F2"/>
<stop offset="0.5" stop-color="#F0E9F1"/>
<stop offset="0.75" stop-color="#E2E0F1"/>
<stop offset="0.9999" stop-color="#B6C5EE"/>
<stop offset="1" stop-color="#BAC2E8"/>
<stop offset="1" stop-color="#F7F8FD"/>
</linearGradient>
<linearGradient id="paint4_linear" x1="274" y1="239" x2="274" y2="315" gradientUnits="userSpaceOnUse">
<stop stop-color="#FFE2E4"/>
<stop offset="1" stop-color="#BAC2E8"/>
<stop offset="1" stop-color="white" stop-opacity="0"/>
</linearGradient>
<linearGradient id="paint5_linear" x1="656.331" y1="413.629" x2="698.917" y2="413.629" gradientUnits="userSpaceOnUse">
<stop stop-color="#A3AEEB"/>
<stop offset="0.1545" stop-color="#B1BCED"/>
<stop offset="0.7192" stop-color="#E0ECF4"/>
<stop offset="1" stop-color="#F2FFF7"/>
</linearGradient>
<linearGradient id="paint6_linear" x1="677.611" y1="441.23" x2="677.611" y2="384.644" gradientUnits="userSpaceOnUse">
<stop stop-color="#A3AEEB"/>
<stop offset="0.1545" stop-color="#B1BCED"/>
<stop offset="0.7192" stop-color="#E0ECF4"/>
<stop offset="1" stop-color="#F2FFF7"/>
</linearGradient>
<linearGradient id="paint7_linear" x1="656.331" y1="399.225" x2="698.917" y2="399.225" gradientUnits="userSpaceOnUse">
<stop stop-color="#F2FFF7"/>
<stop offset="1" stop-color="white"/>
</linearGradient>
<linearGradient id="paint8_linear" x1="686.929" y1="410.094" x2="684.604" y2="388.822" gradientUnits="userSpaceOnUse">
<stop stop-color="#778CD7"/>
<stop offset="1" stop-color="#475EC4"/>
</linearGradient>
<linearGradient id="paint9_linear" x1="677.614" y1="382.82" x2="677.614" y2="400.174" gradientUnits="userSpaceOnUse">
<stop stop-color="#FFE2E4"/>
<stop offset="1" stop-color="#BAC2E8"/>
<stop offset="1" stop-color="white" stop-opacity="0"/>
</linearGradient>
<linearGradient id="paint10_linear" x1="42.38" y1="356.98" x2="107.683" y2="356.98" gradientUnits="userSpaceOnUse">
<stop stop-color="#A3AEEB"/>
<stop offset="0.1545" stop-color="#B1BCED"/>
<stop offset="0.7192" stop-color="#E0ECF4"/>
<stop offset="1" stop-color="#F2FFF7"/>
</linearGradient>
<linearGradient id="paint11_linear" x1="75.0112" y1="399.305" x2="75.0112" y2="312.535" gradientUnits="userSpaceOnUse">
<stop stop-color="#A3AEEB"/>
<stop offset="0.1545" stop-color="#B1BCED"/>
<stop offset="0.7192" stop-color="#E0ECF4"/>
<stop offset="1" stop-color="#F2FFF7"/>
</linearGradient>
<linearGradient id="paint12_linear" x1="42.3798" y1="334.894" x2="107.683" y2="334.894" gradientUnits="userSpaceOnUse">
<stop stop-color="#F2FFF7"/>
<stop offset="1" stop-color="white"/>
</linearGradient>
<linearGradient id="paint13_linear" x1="89.3648" y1="351.709" x2="85.7719" y2="318.933" gradientUnits="userSpaceOnUse">
<stop stop-color="#778CD7"/>
<stop offset="1" stop-color="#475EC4"/>
</linearGradient>
<linearGradient id="paint14_linear" x1="74.8938" y1="309.604" x2="74.8938" y2="336.502" gradientUnits="userSpaceOnUse">
<stop stop-color="#FFE2E4"/>
<stop offset="1" stop-color="#BAC2E8"/>
<stop offset="1" stop-color="white" stop-opacity="0"/>
</linearGradient>
<linearGradient id="paint15_linear" x1="74.8933" y1="302.82" x2="74.8933" y2="329.719" gradientUnits="userSpaceOnUse">
<stop stop-color="#FFE2E4"/>
<stop offset="1" stop-color="#BAC2E8"/>
<stop offset="1" stop-color="white" stop-opacity="0"/>
</linearGradient>
<linearGradient id="paint16_linear" x1="380.5" y1="145.82" x2="380.5" y2="326.82" gradientUnits="userSpaceOnUse">
<stop stop-color="white"/>
<stop offset="1" stop-color="white" stop-opacity="0"/>
</linearGradient>
<linearGradient id="paint17_linear" x1="693" y1="157.82" x2="693" y2="245.82" gradientUnits="userSpaceOnUse">
<stop stop-color="white"/>
<stop offset="1" stop-color="white" stop-opacity="0"/>
</linearGradient>
<linearGradient id="paint18_linear" x1="785.678" y1="175.82" x2="688.256" y2="290.952" gradientUnits="userSpaceOnUse">
<stop stop-color="#FFE2E4"/>
<stop offset="0.0001" stop-color="#FEF1F2"/>
<stop offset="0.5" stop-color="#F0E9F1"/>
<stop offset="0.75" stop-color="#E2E0F1"/>
<stop offset="0.9999" stop-color="#B6C5EE"/>
<stop offset="1" stop-color="#BAC2E8"/>
<stop offset="1" stop-color="#F7F8FD"/>
</linearGradient>
<linearGradient id="paint19_linear" x1="651" y1="232.82" x2="651" y2="337.82" gradientUnits="userSpaceOnUse">
<stop stop-color="white"/>
<stop offset="1" stop-color="white" stop-opacity="0"/>
</linearGradient>
<linearGradient id="paint20_linear" x1="342.411" y1="476.833" x2="346.625" y2="257.733" gradientUnits="userSpaceOnUse">
<stop stop-color="#A3AEEB"/>
<stop offset="0.1545" stop-color="#B1BCED"/>
<stop offset="0.7192" stop-color="#E0ECF4"/>
<stop offset="1" stop-color="#F2FFF7"/>
</linearGradient>
<linearGradient id="paint21_linear" x1="228.306" y1="411.758" x2="463.54" y2="327.577" gradientUnits="userSpaceOnUse">
<stop stop-color="#A3AEEB"/>
<stop offset="0.1545" stop-color="#B1BCED"/>
<stop offset="0.7192" stop-color="#E0ECF4"/>
<stop offset="1" stop-color="#F2FFF7"/>
</linearGradient>
<linearGradient id="paint22_linear" x1="228.306" y1="411.758" x2="463.54" y2="327.577" gradientUnits="userSpaceOnUse">
<stop stop-color="#A3AEEB"/>
<stop offset="0.1545" stop-color="#B1BCED"/>
<stop offset="0.7192" stop-color="#E0ECF4"/>
<stop offset="1" stop-color="#F2FFF7"/>
</linearGradient>
<linearGradient id="paint23_linear" x1="288.719" y1="380.778" x2="390.685" y2="332.745" gradientUnits="userSpaceOnUse">
<stop stop-color="#F2FFF7"/>
<stop offset="1" stop-color="white"/>
</linearGradient>
<linearGradient id="paint24_linear" x1="344.116" y1="319.267" x2="344.116" y2="390.2" gradientUnits="userSpaceOnUse">
<stop stop-color="#FFE2E4"/>
<stop offset="1" stop-color="#BAC2E8"/>
<stop offset="1" stop-color="white" stop-opacity="0"/>
</linearGradient>
<linearGradient id="paint25_linear" x1="344.116" y1="299" x2="344.116" y2="369.933" gradientUnits="userSpaceOnUse">
<stop stop-color="#FFE2E4"/>
<stop offset="1" stop-color="#BAC2E8"/>
<stop offset="1" stop-color="white" stop-opacity="0"/>
</linearGradient>
<linearGradient id="paint26_linear" x1="532.039" y1="139.972" x2="532.039" y2="345.575" gradientUnits="userSpaceOnUse">
<stop stop-color="#455CC3"/>
<stop offset="1" stop-color="#A3B7E9" stop-opacity="0.5"/>
</linearGradient>
<linearGradient id="paint27_linear" x1="532.039" y1="139.972" x2="532.039" y2="345.575" gradientUnits="userSpaceOnUse">
<stop stop-color="#455CC3"/>
<stop offset="1" stop-color="#A3B7E9" stop-opacity="0.5"/>
</linearGradient>
<linearGradient id="paint28_linear" x1="776.504" y1="328.82" x2="776.504" y2="436.82" gradientUnits="userSpaceOnUse">
<stop stop-color="#FFE2E4"/>
<stop offset="1" stop-color="#BAC2E8"/>
<stop offset="1" stop-color="white" stop-opacity="0"/>
</linearGradient>
<linearGradient id="paint29_linear" x1="281.429" y1="259.82" x2="281.429" y2="441.305" gradientUnits="userSpaceOnUse">
<stop stop-color="#FFE2E4"/>
<stop offset="1" stop-color="#BAC2E8"/>
<stop offset="1" stop-color="white" stop-opacity="0"/>
</linearGradient>
<linearGradient id="paint30_linear" x1="210.426" y1="285.409" x2="169.468" y2="428.059" gradientUnits="userSpaceOnUse">
<stop stop-color="#A3AEEB"/>
<stop offset="0.1545" stop-color="#B1BCED"/>
<stop offset="0.7192" stop-color="#E0ECF4"/>
<stop offset="1" stop-color="#F2FFF7"/>
</linearGradient>
<linearGradient id="paint31_linear" x1="162.647" y1="386.326" x2="168.296" y2="269.097" gradientUnits="userSpaceOnUse">
<stop stop-color="#A3AEEB"/>
<stop offset="0.1545" stop-color="#B1BCED"/>
<stop offset="0.7192" stop-color="#E0ECF4"/>
<stop offset="1" stop-color="#F2FFF7"/>
</linearGradient>
<linearGradient id="paint32_linear" x1="151.265" y1="338.324" x2="202" y2="338.324" gradientUnits="userSpaceOnUse">
<stop stop-color="#F2FFF7"/>
<stop offset="1" stop-color="white"/>
</linearGradient>
<linearGradient id="paint33_linear" x1="836.08" y1="435.609" x2="838.797" y2="294.325" gradientUnits="userSpaceOnUse">
<stop stop-color="#A3AEEB"/>
<stop offset="0.1545" stop-color="#B1BCED"/>
<stop offset="0.7192" stop-color="#E0ECF4"/>
<stop offset="1" stop-color="#F2FFF7"/>
</linearGradient>
<linearGradient id="paint34_linear" x1="762.501" y1="393.531" x2="914.189" y2="339.248" gradientUnits="userSpaceOnUse">
<stop stop-color="#A3AEEB"/>
<stop offset="0.1545" stop-color="#B1BCED"/>
<stop offset="0.7192" stop-color="#E0ECF4"/>
<stop offset="1" stop-color="#F2FFF7"/>
</linearGradient>
<linearGradient id="paint35_linear" x1="762.501" y1="393.531" x2="914.189" y2="339.248" gradientUnits="userSpaceOnUse">
<stop stop-color="#A3AEEB"/>
<stop offset="0.1545" stop-color="#B1BCED"/>
<stop offset="0.7192" stop-color="#E0ECF4"/>
<stop offset="1" stop-color="#F2FFF7"/>
</linearGradient>
<linearGradient id="paint36_linear" x1="801.458" y1="373.554" x2="867.209" y2="342.58" gradientUnits="userSpaceOnUse">
<stop stop-color="#F2FFF7"/>
<stop offset="1" stop-color="white"/>
</linearGradient>
<linearGradient id="paint37_linear" x1="837.18" y1="333.889" x2="837.18" y2="379.629" gradientUnits="userSpaceOnUse">
<stop stop-color="#FFE2E4"/>
<stop offset="1" stop-color="#BAC2E8"/>
<stop offset="1" stop-color="white" stop-opacity="0"/>
</linearGradient>
<linearGradient id="paint38_linear" x1="837.18" y1="320.82" x2="837.18" y2="366.56" gradientUnits="userSpaceOnUse">
<stop stop-color="#FFE2E4"/>
<stop offset="1" stop-color="#BAC2E8"/>
<stop offset="1" stop-color="white" stop-opacity="0"/>
</linearGradient>
<linearGradient id="paint39_linear" x1="853.228" y1="201.158" x2="801.884" y2="353.318" gradientUnits="userSpaceOnUse">
<stop stop-color="#A3AEEB"/>
<stop offset="0.1545" stop-color="#B1BCED"/>
<stop offset="0.7192" stop-color="#E0ECF4"/>
<stop offset="1" stop-color="#F2FFF7"/>
</linearGradient>
<linearGradient id="paint40_linear" x1="808.603" y1="311.926" x2="815.884" y2="183.369" gradientUnits="userSpaceOnUse">
<stop stop-color="#A3AEEB"/>
<stop offset="0.1545" stop-color="#B1BCED"/>
<stop offset="0.7192" stop-color="#E0ECF4"/>
<stop offset="1" stop-color="#F2FFF7"/>
</linearGradient>
<linearGradient id="paint41_linear" x1="797.972" y1="259.239" x2="845.358" y2="259.239" gradientUnits="userSpaceOnUse">
<stop stop-color="#F2FFF7"/>
<stop offset="1" stop-color="white"/>
</linearGradient>
<linearGradient id="paint42_linear" x1="888.75" y1="241.497" x2="860.26" y2="325.926" gradientUnits="userSpaceOnUse">
<stop stop-color="#A3AEEB"/>
<stop offset="0.1545" stop-color="#B1BCED"/>
<stop offset="0.7192" stop-color="#E0ECF4"/>
<stop offset="1" stop-color="#F2FFF7"/>
</linearGradient>
<linearGradient id="paint43_linear" x1="863.99" y1="302.96" x2="868.03" y2="231.627" gradientUnits="userSpaceOnUse">
<stop stop-color="#A3AEEB"/>
<stop offset="0.1545" stop-color="#B1BCED"/>
<stop offset="0.7192" stop-color="#E0ECF4"/>
<stop offset="1" stop-color="#F2FFF7"/>
</linearGradient>
<linearGradient id="paint44_linear" x1="858.09" y1="273.725" x2="884.383" y2="273.725" gradientUnits="userSpaceOnUse">
<stop stop-color="#F2FFF7"/>
<stop offset="1" stop-color="white"/>
</linearGradient>
<linearGradient id="paint45_linear" x1="860.674" y1="283.984" x2="835.042" y2="359.946" gradientUnits="userSpaceOnUse">
<stop stop-color="#A3AEEB"/>
<stop offset="0.1545" stop-color="#B1BCED"/>
<stop offset="0.7192" stop-color="#E0ECF4"/>
<stop offset="1" stop-color="#F2FFF7"/>
</linearGradient>
<linearGradient id="paint46_linear" x1="838.396" y1="339.283" x2="842.031" y2="275.103" gradientUnits="userSpaceOnUse">
<stop stop-color="#A3AEEB"/>
<stop offset="0.1545" stop-color="#B1BCED"/>
<stop offset="0.7192" stop-color="#E0ECF4"/>
<stop offset="1" stop-color="#F2FFF7"/>
</linearGradient>
<linearGradient id="paint47_linear" x1="833.089" y1="312.98" x2="856.745" y2="312.98" gradientUnits="userSpaceOnUse">
<stop stop-color="#F2FFF7"/>
<stop offset="1" stop-color="white"/>
</linearGradient>
<linearGradient id="paint48_linear" x1="0.257733" y1="301.246" x2="25.6249" y2="301.246" gradientUnits="userSpaceOnUse">
<stop stop-color="#A3AEEB"/>
<stop offset="0.1545" stop-color="#B1BCED"/>
<stop offset="0.7192" stop-color="#E0ECF4"/>
<stop offset="1" stop-color="#F2FFF7"/>
</linearGradient>
<linearGradient id="paint49_linear" x1="12.9348" y1="317.688" x2="12.9348" y2="283.981" gradientUnits="userSpaceOnUse">
<stop stop-color="#A3AEEB"/>
<stop offset="0.1545" stop-color="#B1BCED"/>
<stop offset="0.7192" stop-color="#E0ECF4"/>
<stop offset="1" stop-color="#F2FFF7"/>
</linearGradient>
<linearGradient id="paint50_linear" x1="0.257977" y1="292.666" x2="25.6252" y2="292.666" gradientUnits="userSpaceOnUse">
<stop stop-color="#F2FFF7"/>
<stop offset="1" stop-color="white"/>
</linearGradient>
<linearGradient id="paint51_linear" x1="18.4977" y1="299.197" x2="17.0828" y2="286.469" gradientUnits="userSpaceOnUse">
<stop stop-color="#778CD7"/>
<stop offset="1" stop-color="#475EC4"/>
</linearGradient>
<linearGradient id="paint52_linear" x1="13.0153" y1="282.82" x2="13.0153" y2="293.154" gradientUnits="userSpaceOnUse">
<stop stop-color="#FFE2E4"/>
<stop offset="1" stop-color="#BAC2E8"/>
<stop offset="1" stop-color="white" stop-opacity="0"/>
</linearGradient>
<clipPath id="clip0">
<rect width="173" height="97" fill="white" transform="translate(686.004 339.82)"/>
</clipPath>
<clipPath id="clip1">
<rect width="304" height="163" fill="white" transform="translate(19 285.82)"/>
</clipPath>
</defs>
</svg>
