<svg width="1003" height="481" viewBox="0 0 1003 481" fill="none" xmlns="http://www.w3.org/2000/svg">
<path opacity="0.5" d="M596.887 421.945C600.983 424.403 600.983 428.171 596.887 430.629L539.701 463.892C535.605 466.349 528.887 466.349 524.79 463.892L467.113 430.465C463.017 428.007 463.017 424.239 467.113 421.781L524.299 388.518C528.395 386.06 535.113 386.06 539.21 388.518L596.887 421.945Z" fill="url(#paint0_linear)"/>
<path d="M596.887 401.626L539.701 434.889C535.605 437.347 528.887 437.347 524.79 434.889L467.277 401.626C465.147 400.479 464.164 398.841 464.164 397.202L464 405.559C464 407.198 464.983 408.672 467.113 409.983L524.627 443.246C528.723 445.704 535.441 445.704 539.537 443.246L596.723 409.983C598.689 408.836 599.836 407.198 599.836 405.723L600 397.366C600 399.005 598.853 400.479 596.887 401.626Z" fill="url(#paint1_linear)"/>
<path d="M596.887 401.626L539.701 434.889C535.605 437.347 528.887 437.347 524.79 434.889L467.277 401.626C465.147 400.479 464.164 398.841 464.164 397.202L464 405.559C464 407.198 464.983 408.672 467.113 409.983L524.627 443.246C528.723 445.704 535.441 445.704 539.537 443.246L596.723 409.983C598.689 408.836 599.836 407.198 599.836 405.723L600 397.366C600 399.005 598.853 400.479 596.887 401.626Z" fill="url(#paint2_linear)" stroke="white" stroke-width="0.5" stroke-miterlimit="10"/>
<path d="M596.887 393.106C600.983 395.564 600.983 399.333 596.887 401.79L539.701 435.053C535.605 437.511 528.887 437.511 524.79 435.053L467.277 401.79C463.181 399.333 463.181 395.564 467.277 393.106L524.463 359.843C528.559 357.386 535.277 357.386 539.374 359.843L596.887 393.106Z" fill="url(#paint3_linear)"/>
<path d="M596.887 393.106C600.983 395.564 600.983 399.333 596.887 401.79L539.701 435.053C535.605 437.511 528.887 437.511 524.79 435.053L467.277 401.79C463.181 399.333 463.181 395.564 467.277 393.106L524.463 359.843C528.559 357.386 535.277 357.386 539.374 359.843L596.887 393.106Z" fill="white"/>
<path opacity="0.5" d="M999.808 290.012C1003.27 292.088 1003.27 295.271 999.808 297.347L951.505 325.443C948.045 327.519 942.37 327.519 938.91 325.443L890.192 297.209C886.732 295.133 886.732 291.95 890.192 289.874L938.495 261.778C941.955 259.702 947.63 259.702 951.09 261.778L999.808 290.012Z" fill="url(#paint4_linear)"/>
<path d="M999.808 272.85L951.505 300.945C948.045 303.022 942.37 303.022 938.91 300.945L890.331 272.85C888.532 271.881 887.701 270.497 887.701 269.113L887.563 276.171C887.563 277.555 888.393 278.801 890.192 279.908L938.772 308.004C942.232 310.08 947.906 310.08 951.367 308.004L999.669 279.908C1001.33 278.939 1002.3 277.555 1002.3 276.31L1002.44 269.251C1002.44 270.635 1001.47 271.881 999.808 272.85Z" fill="url(#paint5_linear)"/>
<path d="M999.808 272.85L951.505 300.945C948.045 303.022 942.37 303.022 938.91 300.945L890.331 272.85C888.532 271.881 887.701 270.497 887.701 269.113L887.563 276.171C887.563 277.555 888.393 278.801 890.192 279.908L938.772 308.004C942.232 310.08 947.906 310.08 951.367 308.004L999.669 279.908C1001.33 278.939 1002.3 277.555 1002.3 276.31L1002.44 269.251C1002.44 270.635 1001.47 271.881 999.808 272.85Z" fill="url(#paint6_linear)" stroke="white" stroke-width="0.5" stroke-miterlimit="10"/>
<path d="M999.808 265.653C1003.27 267.729 1003.27 270.912 999.808 272.988L951.505 301.084C948.045 303.16 942.37 303.16 938.91 301.084L890.331 272.988C886.871 270.912 886.871 267.729 890.331 265.653L938.633 237.557C942.094 235.481 947.768 235.481 951.228 237.557L999.808 265.653Z" fill="url(#paint7_linear)"/>
<path d="M999.808 265.653C1003.27 267.729 1003.27 270.912 999.808 272.988L951.505 301.084C948.045 303.16 942.37 303.16 938.91 301.084L890.331 272.988C886.871 270.912 886.871 267.729 890.331 265.653L938.633 237.557C942.094 235.481 947.768 235.481 951.228 237.557L999.808 265.653Z" fill="white"/>
<g opacity="0.65">
<path d="M728.097 128.351C727.121 127.728 719.422 123.129 716.372 121.726L712.591 112.576C713.713 109.55 715.872 101.071 716.251 99.5952C716.402 98.9234 716.381 98.2241 716.189 97.5627C715.997 96.9014 715.64 96.2994 715.152 95.8132L709.187 89.884C708.702 89.3944 708.1 89.0365 707.438 88.8444C706.776 88.6523 706.076 88.6322 705.405 88.786C704.282 89.0422 695.645 91.226 692.424 92.446L683.274 88.664C681.944 85.736 677.467 78.233 676.649 76.9398C676.288 76.348 675.781 75.8588 675.176 75.5192C674.572 75.1795 673.89 75.0008 673.197 75H664.803C664.114 75.0003 663.436 75.175 662.832 75.5078C662.229 75.8405 661.719 76.3206 661.351 76.9032C660.728 77.8792 656.129 85.5774 654.726 88.6274L645.576 92.4094C642.55 91.287 634.071 89.1276 632.595 88.7494C631.923 88.5979 631.224 88.6191 630.563 88.8112C629.901 89.0032 629.299 89.3597 628.813 89.8474L622.884 95.8132C622.394 96.2981 622.037 96.9 621.844 97.5618C621.652 98.2236 621.632 98.9234 621.786 99.5952C622.042 100.718 624.226 109.355 625.446 112.576L621.664 121.726C618.736 123.056 611.233 127.533 609.94 128.351C609.348 128.712 608.859 129.219 608.519 129.824C608.18 130.428 608.001 131.11 608 131.803V140.185C608 140.874 608.175 141.552 608.508 142.156C608.841 142.759 609.321 143.269 609.903 143.637C610.879 144.259 618.577 148.859 621.627 150.262L625.409 159.412C624.287 162.437 622.128 170.916 621.749 172.393C621.598 173.064 621.619 173.764 621.811 174.425C622.003 175.086 622.36 175.688 622.847 176.175L628.777 182.104C629.262 182.593 629.863 182.951 630.525 183.143C631.187 183.335 631.887 183.356 632.559 183.202C633.681 182.946 642.319 180.762 645.539 179.542L654.689 183.324C656.019 186.252 660.497 193.755 661.314 195.048C661.677 195.647 662.189 196.142 662.801 196.484C663.412 196.827 664.102 197.004 664.803 197H673.185C673.874 197 674.552 196.825 675.155 196.492C675.759 196.159 676.269 195.679 676.637 195.097C677.259 194.121 681.859 186.423 683.262 183.373L692.412 179.591C695.437 180.713 703.916 182.872 705.393 183.251C706.064 183.402 706.764 183.381 707.425 183.189C708.086 182.997 708.688 182.64 709.175 182.153L715.104 176.223C715.593 175.738 715.951 175.137 716.143 174.475C716.335 173.813 716.356 173.113 716.202 172.441C715.946 171.319 713.762 162.681 712.542 159.461L716.324 150.311C719.252 148.981 726.755 144.503 728.048 143.686C728.647 143.323 729.142 142.811 729.484 142.199C729.827 141.587 730.004 140.898 730 140.197V131.803C730.005 131.113 729.833 130.433 729.5 129.828C729.167 129.223 728.683 128.715 728.097 128.351ZM669 162.559C663.742 162.555 658.604 160.991 654.235 158.066C649.866 155.141 646.462 150.986 644.455 146.126C642.447 141.267 641.926 135.921 642.956 130.765C643.987 125.61 646.523 120.875 650.244 117.161C653.965 113.446 658.704 110.919 663.862 109.898C669.02 108.877 674.364 109.408 679.22 111.425C684.076 113.441 688.224 116.852 691.141 121.227C694.059 125.601 695.613 130.742 695.608 136C695.592 143.047 692.782 149.801 687.794 154.78C682.806 159.758 676.047 162.556 669 162.559Z" fill="#FFE2E4"/>
<path d="M728.097 128.351C727.121 127.728 719.422 123.129 716.372 121.726L712.591 112.576C713.713 109.55 715.872 101.071 716.251 99.5952C716.402 98.9234 716.381 98.2241 716.189 97.5627C715.997 96.9014 715.64 96.2994 715.152 95.8132L709.187 89.884C708.702 89.3944 708.1 89.0365 707.438 88.8444C706.776 88.6523 706.076 88.6322 705.405 88.786C704.282 89.0422 695.645 91.226 692.424 92.446L683.274 88.664C681.944 85.736 677.467 78.233 676.649 76.9398C676.288 76.348 675.781 75.8588 675.176 75.5192C674.572 75.1795 673.89 75.0008 673.197 75H664.803C664.114 75.0003 663.436 75.175 662.832 75.5078C662.229 75.8405 661.719 76.3206 661.351 76.9032C660.728 77.8792 656.129 85.5774 654.726 88.6274L645.576 92.4094C642.55 91.287 634.071 89.1276 632.595 88.7494C631.923 88.5979 631.224 88.6191 630.563 88.8112C629.901 89.0032 629.299 89.3597 628.813 89.8474L622.884 95.8132C622.394 96.2981 622.037 96.9 621.844 97.5618C621.652 98.2236 621.632 98.9234 621.786 99.5952C622.042 100.718 624.226 109.355 625.446 112.576L621.664 121.726C618.736 123.056 611.233 127.533 609.94 128.351C609.348 128.712 608.859 129.219 608.519 129.824C608.18 130.428 608.001 131.11 608 131.803V140.185C608 140.874 608.175 141.552 608.508 142.156C608.841 142.759 609.321 143.269 609.903 143.637C610.879 144.259 618.577 148.859 621.627 150.262L625.409 159.412C624.287 162.437 622.128 170.916 621.749 172.393C621.598 173.064 621.619 173.764 621.811 174.425C622.003 175.086 622.36 175.688 622.847 176.175L628.777 182.104C629.262 182.593 629.863 182.951 630.525 183.143C631.187 183.335 631.887 183.356 632.559 183.202C633.681 182.946 642.319 180.762 645.539 179.542L654.689 183.324C656.019 186.252 660.497 193.755 661.314 195.048C661.677 195.647 662.189 196.142 662.801 196.484C663.412 196.827 664.102 197.004 664.803 197H673.185C673.874 197 674.552 196.825 675.155 196.492C675.759 196.159 676.269 195.679 676.637 195.097C677.259 194.121 681.859 186.423 683.262 183.373L692.412 179.591C695.437 180.713 703.916 182.872 705.393 183.251C706.064 183.402 706.764 183.381 707.425 183.189C708.086 182.997 708.688 182.64 709.175 182.153L715.104 176.223C715.593 175.738 715.951 175.137 716.143 174.475C716.335 173.813 716.356 173.113 716.202 172.441C715.946 171.319 713.762 162.681 712.542 159.461L716.324 150.311C719.252 148.981 726.755 144.503 728.048 143.686C728.647 143.323 729.142 142.811 729.484 142.199C729.827 141.587 730.004 140.898 730 140.197V131.803C730.005 131.113 729.833 130.433 729.5 129.828C729.167 129.223 728.683 128.715 728.097 128.351ZM669 162.559C663.742 162.555 658.604 160.991 654.235 158.066C649.866 155.141 646.462 150.986 644.455 146.126C642.447 141.267 641.926 135.921 642.956 130.765C643.987 125.61 646.523 120.875 650.244 117.161C653.965 113.446 658.704 110.919 663.862 109.898C669.02 108.877 674.364 109.408 679.22 111.425C684.076 113.441 688.224 116.852 691.141 121.227C694.059 125.601 695.613 130.742 695.608 136C695.592 143.047 692.782 149.801 687.794 154.78C682.806 159.758 676.047 162.556 669 162.559Z" fill="url(#paint8_linear)"/>
</g>
<g opacity="0.2">
<path d="M124.231 260.022C134.839 266.545 172.199 267.985 208.984 267.669C108.4 223.396 46.8886 127.353 46.8886 127.353C72.1594 163.983 300.864 248.83 300.864 248.83L293.829 275.487L296.079 289.214C212.74 318.747 124.231 260.022 124.231 260.022Z" fill="#FFE2E4"/>
<path d="M124.231 260.022C134.839 266.545 172.199 267.985 208.984 267.669C108.4 223.396 46.8886 127.353 46.8886 127.353C72.1594 163.983 300.864 248.83 300.864 248.83L293.829 275.487L296.079 289.214C212.74 318.747 124.231 260.022 124.231 260.022Z" fill="url(#paint9_linear)"/>
</g>
<g opacity="0.2">
<path d="M854.973 255.44C843.507 264.035 802.044 270.212 761.133 274.354C870.733 212.528 888.935 140.805 888.935 140.805C862.68 184.876 658.036 264.506 658.036 264.506L667.197 293.471L665.385 309.104C759.523 331.959 854.973 255.44 854.973 255.44Z" fill="#FFE2E4"/>
<path d="M854.973 255.44C843.507 264.035 802.044 270.212 761.133 274.354C870.733 212.528 888.935 140.805 888.935 140.805C862.68 184.876 658.036 264.506 658.036 264.506L667.197 293.471L665.385 309.104C759.523 331.959 854.973 255.44 854.973 255.44Z" fill="url(#paint10_linear)"/>
</g>
<path d="M163.481 220.787C158.148 234.165 168.344 249.259 181.481 257.287C208.481 273.788 350.481 249.786 350.481 249.786C350.481 249.786 332.481 188.287 326.981 135.787C325.036 117.224 312.141 100.796 294.981 100.287C266.163 99.4316 270.981 166.286 258.481 170.786C245.981 175.287 212.981 46.2856 163.481 72.2861C113.981 98.2866 228.48 196.288 216.981 206.787C200.575 221.766 170.939 202.075 163.481 220.787Z" fill="white"/>
<path d="M163.481 220.787C158.148 234.165 168.344 249.259 181.481 257.287C208.481 273.788 350.481 249.786 350.481 249.786C350.481 249.786 332.481 188.287 326.981 135.787C325.036 117.224 312.141 100.796 294.981 100.287C266.163 99.4316 270.981 166.286 258.481 170.786C245.981 175.287 212.981 46.2856 163.481 72.2861C113.981 98.2866 228.48 196.288 216.981 206.787C200.575 221.766 170.939 202.075 163.481 220.787Z" fill="url(#paint11_linear)"/>
<path d="M310.814 272.235C310.206 271.847 305.411 268.982 303.511 268.108L301.155 262.408C301.854 260.523 303.199 255.241 303.435 254.322C303.529 253.903 303.516 253.467 303.396 253.055C303.277 252.643 303.055 252.268 302.751 251.966L299.034 248.272C298.732 247.967 298.357 247.744 297.945 247.624C297.533 247.505 297.097 247.492 296.678 247.588C295.979 247.748 290.598 249.108 288.592 249.868L282.892 247.512C282.064 245.688 279.274 241.014 278.765 240.208C278.54 239.84 278.224 239.535 277.848 239.323C277.471 239.112 277.046 239 276.614 239H271.386C270.956 239 270.534 239.109 270.158 239.316C269.782 239.524 269.464 239.823 269.235 240.186C268.847 240.794 265.982 245.589 265.108 247.489L259.408 249.845C257.523 249.146 252.241 247.801 251.322 247.565C250.903 247.471 250.468 247.484 250.056 247.604C249.644 247.723 249.269 247.945 248.966 248.249L245.272 251.966C244.967 252.268 244.744 252.643 244.624 253.055C244.505 253.467 244.492 253.903 244.588 254.322C244.748 255.021 246.108 260.402 246.868 262.408L244.512 268.108C242.688 268.936 238.014 271.726 237.208 272.235C236.84 272.46 236.535 272.776 236.323 273.152C236.112 273.529 236.001 273.954 236 274.386V279.607C236 280.036 236.109 280.459 236.316 280.835C236.524 281.211 236.823 281.528 237.186 281.758C237.794 282.145 242.589 285.01 244.489 285.884L246.845 291.584C246.146 293.469 244.801 298.751 244.565 299.671C244.471 300.089 244.484 300.525 244.604 300.937C244.723 301.349 244.945 301.724 245.249 302.027L248.943 305.72C249.245 306.025 249.62 306.248 250.032 306.368C250.444 306.488 250.88 306.5 251.299 306.404C251.998 306.245 257.379 304.884 259.385 304.124L265.085 306.48C265.914 308.304 268.703 312.978 269.212 313.784C269.438 314.157 269.757 314.466 270.138 314.679C270.519 314.892 270.949 315.003 271.386 315H276.607C277.036 315 277.459 314.891 277.835 314.684C278.211 314.476 278.528 314.177 278.758 313.814C279.145 313.206 282.01 308.411 282.884 306.511L288.584 304.155C290.469 304.854 295.751 306.199 296.671 306.435C297.089 306.529 297.525 306.516 297.937 306.396C298.349 306.277 298.724 306.055 299.027 305.751L302.72 302.057C303.025 301.755 303.248 301.38 303.368 300.968C303.488 300.556 303.5 300.12 303.404 299.701C303.245 299.002 301.884 293.621 301.124 291.615L303.48 285.915C305.304 285.086 309.978 282.297 310.784 281.788C311.157 281.562 311.466 281.243 311.679 280.862C311.892 280.481 312.003 280.051 312 279.614V274.386C312.003 273.956 311.896 273.532 311.688 273.155C311.481 272.778 311.18 272.462 310.814 272.235ZM274 293.545C270.725 293.542 267.524 292.568 264.802 290.746C262.08 288.924 259.96 286.335 258.71 283.308C257.459 280.281 257.134 276.951 257.776 273.739C258.418 270.527 259.998 267.578 262.316 265.264C264.634 262.95 267.586 261.376 270.799 260.74C274.012 260.104 277.342 260.435 280.367 261.691C283.392 262.947 285.976 265.072 287.793 267.797C289.61 270.522 290.579 273.725 290.576 277C290.566 281.39 288.815 285.597 285.708 288.699C282.601 291.8 278.39 293.543 274 293.545Z" fill="#FFE2E4"/>
<path d="M310.814 272.235C310.206 271.847 305.411 268.982 303.511 268.108L301.155 262.408C301.854 260.523 303.199 255.241 303.435 254.322C303.529 253.903 303.516 253.467 303.396 253.055C303.277 252.643 303.055 252.268 302.751 251.966L299.034 248.272C298.732 247.967 298.357 247.744 297.945 247.624C297.533 247.505 297.097 247.492 296.678 247.588C295.979 247.748 290.598 249.108 288.592 249.868L282.892 247.512C282.064 245.688 279.274 241.014 278.765 240.208C278.54 239.84 278.224 239.535 277.848 239.323C277.471 239.112 277.046 239 276.614 239H271.386C270.956 239 270.534 239.109 270.158 239.316C269.782 239.524 269.464 239.823 269.235 240.186C268.847 240.794 265.982 245.589 265.108 247.489L259.408 249.845C257.523 249.146 252.241 247.801 251.322 247.565C250.903 247.471 250.468 247.484 250.056 247.604C249.644 247.723 249.269 247.945 248.966 248.249L245.272 251.966C244.967 252.268 244.744 252.643 244.624 253.055C244.505 253.467 244.492 253.903 244.588 254.322C244.748 255.021 246.108 260.402 246.868 262.408L244.512 268.108C242.688 268.936 238.014 271.726 237.208 272.235C236.84 272.46 236.535 272.776 236.323 273.152C236.112 273.529 236.001 273.954 236 274.386V279.607C236 280.036 236.109 280.459 236.316 280.835C236.524 281.211 236.823 281.528 237.186 281.758C237.794 282.145 242.589 285.01 244.489 285.884L246.845 291.584C246.146 293.469 244.801 298.751 244.565 299.671C244.471 300.089 244.484 300.525 244.604 300.937C244.723 301.349 244.945 301.724 245.249 302.027L248.943 305.72C249.245 306.025 249.62 306.248 250.032 306.368C250.444 306.488 250.88 306.5 251.299 306.404C251.998 306.245 257.379 304.884 259.385 304.124L265.085 306.48C265.914 308.304 268.703 312.978 269.212 313.784C269.438 314.157 269.757 314.466 270.138 314.679C270.519 314.892 270.949 315.003 271.386 315H276.607C277.036 315 277.459 314.891 277.835 314.684C278.211 314.476 278.528 314.177 278.758 313.814C279.145 313.206 282.01 308.411 282.884 306.511L288.584 304.155C290.469 304.854 295.751 306.199 296.671 306.435C297.089 306.529 297.525 306.516 297.937 306.396C298.349 306.277 298.724 306.055 299.027 305.751L302.72 302.057C303.025 301.755 303.248 301.38 303.368 300.968C303.488 300.556 303.5 300.12 303.404 299.701C303.245 299.002 301.884 293.621 301.124 291.615L303.48 285.915C305.304 285.086 309.978 282.297 310.784 281.788C311.157 281.562 311.466 281.243 311.679 280.862C311.892 280.481 312.003 280.051 312 279.614V274.386C312.003 273.956 311.896 273.532 311.688 273.155C311.481 272.778 311.18 272.462 310.814 272.235ZM274 293.545C270.725 293.542 267.524 292.568 264.802 290.746C262.08 288.924 259.96 286.335 258.71 283.308C257.459 280.281 257.134 276.951 257.776 273.739C258.418 270.527 259.998 267.578 262.316 265.264C264.634 262.95 267.586 261.376 270.799 260.74C274.012 260.104 277.342 260.435 280.367 261.691C283.392 262.947 285.976 265.072 287.793 267.797C289.61 270.522 290.579 273.725 290.576 277C290.566 281.39 288.815 285.597 285.708 288.699C282.601 291.8 278.39 293.543 274 293.545Z" fill="url(#paint12_linear)"/>
<g opacity="0.5">
<path opacity="0.5" d="M697.649 411.849C699.385 412.795 699.385 414.373 697.649 415.319L680.611 425.258C678.876 426.205 676.194 426.205 674.616 425.258L657.578 415.319C655.842 414.373 655.842 412.795 657.578 411.849L674.616 401.91C676.351 400.963 679.033 400.963 680.611 401.91L697.649 411.849Z" fill="url(#paint13_linear)"/>
</g>
<path d="M697.649 400.963L680.611 410.902C678.876 411.849 676.194 411.849 674.616 410.902L657.578 400.963C656.789 400.49 656.316 399.859 656.316 399.228V408.22C656.316 408.851 656.789 409.482 657.578 409.955L674.616 419.894C676.352 420.841 679.034 420.841 680.611 419.894L697.649 409.955C698.438 409.482 698.912 408.851 698.912 408.22V399.228C698.912 399.859 698.438 400.49 697.649 400.963Z" fill="url(#paint14_linear)"/>
<path d="M677.614 420.841C676.509 420.841 675.405 420.525 674.458 420.052L657.42 410.113C656.473 409.64 656 408.851 656 408.062V399.07H656.473C656.473 399.701 656.947 400.174 657.578 400.647L674.616 410.586C676.194 411.533 678.876 411.533 680.453 410.586L697.492 400.647C698.28 400.174 698.596 399.701 698.596 399.07H699.069V408.062C699.069 408.851 698.596 409.482 697.649 409.955L680.611 419.894C679.98 420.683 678.876 420.841 677.614 420.841ZM656.631 400.49V408.22C656.631 408.851 657.104 409.324 657.736 409.798L674.774 419.737C676.351 420.683 679.033 420.683 680.611 419.737L697.649 409.798C698.438 409.324 698.754 408.851 698.754 408.22V400.49C698.596 400.805 698.28 400.963 697.965 401.121L680.927 411.06C679.191 412.006 676.351 412.006 674.616 411.06L657.578 401.121C657.104 400.963 656.789 400.805 656.631 400.49Z" fill="white"/>
<path d="M697.649 397.492C699.385 398.439 699.385 400.016 697.649 400.963L680.611 410.902C678.876 411.849 676.194 411.849 674.616 410.902L657.578 400.963C655.842 400.016 655.842 398.439 657.578 397.492L674.616 387.553C676.351 386.607 679.033 386.607 680.611 387.553L697.649 397.492Z" fill="url(#paint15_linear)"/>
<path d="M691.812 392.759L679.822 399.701C678.718 400.332 676.667 400.332 675.563 399.701L663.415 392.759C662.784 392.444 662.468 391.971 662.468 391.497V399.228C662.468 399.701 662.784 400.174 663.415 400.49L675.563 407.431C676.667 408.062 678.718 408.062 679.822 407.431L691.812 400.49C692.443 400.174 692.759 399.701 692.759 399.228V391.497C692.759 391.971 692.443 392.444 691.812 392.759Z" fill="url(#paint16_linear)"/>
<path d="M691.813 390.235C692.917 390.866 693.075 391.971 691.813 392.759L679.823 399.701C678.718 400.332 676.668 400.332 675.563 399.701L663.415 392.759C662.311 392.128 662.153 391.024 663.415 390.235L675.405 383.294C676.51 382.663 678.561 382.663 679.665 383.294L691.813 390.235Z" fill="#FFE2E4"/>
<path d="M691.813 390.235C692.917 390.866 693.075 391.971 691.813 392.759L679.823 399.701C678.718 400.332 676.668 400.332 675.563 399.701L663.415 392.759C662.311 392.128 662.153 391.024 663.415 390.235L675.405 383.294C676.51 382.663 678.561 382.663 679.665 383.294L691.813 390.235Z" fill="url(#paint17_linear)"/>
<g opacity="0.5">
<path opacity="0.5" d="M105.736 354.29C108.26 355.71 108.26 358.234 105.736 359.654L79.7055 374.799C77.1813 376.219 73.0794 376.219 70.3975 374.799L44.209 359.654C41.6848 358.234 41.6848 355.71 44.209 354.29L70.2397 339.145C72.7639 337.725 76.8658 337.725 79.5477 339.145L105.736 354.29Z" fill="url(#paint18_linear)"/>
</g>
<path d="M105.736 337.568L79.705 352.713C77.1809 354.133 73.079 354.133 70.397 352.713L44.2086 337.568C42.9465 336.779 42.3154 335.833 42.3154 334.886V348.769C42.3154 349.716 42.9465 350.662 44.2086 351.451L70.397 366.596C72.9212 368.016 77.0231 368.016 79.705 366.596L105.736 351.451C106.998 350.662 107.629 349.716 107.629 348.769V334.886C107.629 335.833 106.998 336.779 105.736 337.568Z" fill="url(#paint19_linear)"/>
<path d="M75.1301 368.016C73.3948 368.016 71.6594 367.701 70.2396 366.912L44.0511 351.767C42.6312 350.978 42.0001 349.874 42.0001 348.77V334.886H42.7889C42.7889 335.833 43.42 336.622 44.5244 337.253L70.7128 352.398C73.237 353.818 77.1811 353.818 79.5476 352.398L105.578 337.253C106.683 336.622 107.314 335.833 107.314 334.886H108.102V348.77C108.102 349.874 107.314 350.978 106.052 351.767L80.0208 366.912C78.601 367.701 76.8655 368.016 75.1301 368.016ZM42.7889 336.78V348.77C42.7889 349.716 43.42 350.505 44.5244 351.136L70.7128 366.281C73.237 367.701 77.1811 367.701 79.5476 366.281L105.578 351.136C106.683 350.505 107.314 349.716 107.314 348.77V336.78C106.998 337.095 106.525 337.568 106.052 337.884L80.0208 353.029C77.3389 354.607 73.0792 354.607 70.3973 353.029L44.2088 337.884C43.5778 337.568 43.1045 337.253 42.7889 336.78Z" fill="white"/>
<path d="M105.736 332.204C108.26 333.624 108.26 336.148 105.736 337.568L79.7053 352.713C77.1811 354.133 73.0792 354.133 70.3973 352.713L44.2088 337.568C41.6846 336.148 41.6846 333.624 44.2088 332.204L70.2396 317.059C72.7637 315.639 76.8656 315.639 79.5476 317.059L105.736 332.204Z" fill="url(#paint20_linear)"/>
<path d="M96.9018 324.947L78.4436 335.674C76.7082 336.779 73.7107 336.779 71.8176 335.674L53.2017 324.947C52.2551 324.473 51.7818 323.685 51.7818 323.053V334.886C51.7818 335.517 52.2551 336.305 53.2017 336.779L71.8176 347.507C73.553 348.611 76.5505 348.611 78.4436 347.507L96.9018 336.779C97.8484 336.305 98.1638 335.517 98.3216 334.886V323.053C98.1638 323.685 97.6906 324.473 96.9018 324.947Z" fill="url(#paint21_linear)"/>
<path d="M96.7439 321.16C98.4793 322.264 98.6371 323.842 96.7439 324.946L78.2858 335.674C76.5504 336.779 73.553 336.779 71.6598 335.674L53.0438 324.946C51.3085 323.842 51.1507 322.264 53.0438 321.16L71.502 310.432C73.2374 309.328 76.2349 309.328 77.9703 310.432L96.7439 321.16Z" fill="#FFE2E4"/>
<path d="M96.7439 321.16C98.4793 322.264 98.6371 323.842 96.7439 324.946L78.2858 335.674C76.5504 336.779 73.553 336.779 71.6598 335.674L53.0438 324.946C51.3085 323.842 51.1507 322.264 53.0438 321.16L71.502 310.432C73.2374 309.328 76.2349 309.328 77.9703 310.432L96.7439 321.16Z" fill="url(#paint22_linear)"/>
<g opacity="0.65">
<g opacity="0.43">
<path d="M96.7435 314.376C98.4788 315.481 98.6366 317.058 96.7435 318.163L78.2853 328.891C76.5499 329.995 73.5525 329.995 71.6593 328.891L53.0433 318.163C51.308 317.058 51.1502 315.481 53.0433 314.376L71.5015 303.649C73.2369 302.544 76.2344 302.544 77.9698 303.649L96.7435 314.376Z" fill="#FFE2E4"/>
<path d="M96.7435 314.376C98.4788 315.481 98.6366 317.058 96.7435 318.163L78.2853 328.891C76.5499 329.995 73.5525 329.995 71.6593 328.891L53.0433 318.163C51.308 317.058 51.1502 315.481 53.0433 314.376L71.5015 303.649C73.2369 302.544 76.2344 302.544 77.9698 303.649L96.7435 314.376Z" fill="url(#paint23_linear)"/>
</g>
</g>
<rect x="278" y="145.82" width="205" height="181" rx="20" fill="#F5F7FC"/>
<rect x="278" y="145.82" width="205" height="181" rx="20" fill="url(#paint24_linear)" fill-opacity="0.35"/>
<rect x="307" y="173.82" width="106" height="14" fill="#C9D1E4"/>
<rect x="307" y="222.82" width="114" height="20" fill="white"/>
<rect x="308" y="256.82" width="114" height="20" fill="white"/>
<rect x="316" y="196.82" width="106" height="5" fill="#C9D1E4"/>
<rect x="630" y="157.82" width="126" height="88" rx="10" fill="#D3E0FF"/>
<rect x="630" y="157.82" width="126" height="88" rx="10" fill="url(#paint25_linear)" fill-opacity="0.5"/>
<rect x="630" y="175.82" width="126" height="15" fill="#4B62C5" fill-opacity="0.35"/>
<path d="M785.054 272.042C788.449 280.513 781.958 290.069 773.594 295.153C756.405 305.601 666 290.403 666 290.403C666 290.403 677.46 251.463 680.961 218.222C682.199 206.468 690.409 196.066 701.334 195.744C719.681 195.202 716.614 237.533 724.572 240.382C732.53 243.232 753.54 161.551 785.054 178.014C816.568 194.477 743.672 256.529 750.993 263.177C761.438 272.661 780.306 260.194 785.054 272.042Z" fill="white"/>
<path d="M785.054 272.042C788.449 280.513 781.958 290.069 773.594 295.153C756.405 305.601 666 290.403 666 290.403C666 290.403 677.46 251.463 680.961 218.222C682.199 206.468 690.409 196.066 701.334 195.744C719.681 195.202 716.614 237.533 724.572 240.382C732.53 243.232 753.54 161.551 785.054 178.014C816.568 194.477 743.672 256.529 750.993 263.177C761.438 272.661 780.306 260.194 785.054 272.042Z" fill="url(#paint26_linear)"/>
<rect x="607" y="232.82" width="88" height="105" rx="10" fill="#FEFEFF"/>
<rect x="607" y="232.82" width="88" height="105" rx="10" fill="url(#paint27_linear)" fill-opacity="0.35"/>
<rect x="619.572" y="249.717" width="64.9524" height="8.44828" fill="#C9D1E4"/>
<rect x="627.952" y="263.596" width="45.5024" height="3.01724" fill="#C9D1E4"/>
<g opacity="0.35">
<rect x="623.064" y="302.217" width="55.873" height="1.81034" fill="#C9D1E4" fill-opacity="0.5"/>
<rect x="623.064" y="302.217" width="55.873" height="1.81034" fill="#C9D1E4" fill-opacity="0.5"/>
<rect x="623.064" y="302.217" width="55.873" height="1.81034" fill="#C9D1E4" fill-opacity="0.5"/>
<rect x="623.064" y="296.785" width="55.873" height="1.81034" fill="#C9D1E4" fill-opacity="0.5"/>
<rect x="623.064" y="296.785" width="55.873" height="1.81034" fill="#C9D1E4" fill-opacity="0.5"/>
<rect x="623.064" y="296.785" width="55.873" height="1.81034" fill="#C9D1E4" fill-opacity="0.5"/>
<rect x="623.064" y="308.251" width="55.873" height="1.81034" fill="#C9D1E4" fill-opacity="0.5"/>
<rect x="623.064" y="308.251" width="55.873" height="1.81034" fill="#C9D1E4" fill-opacity="0.5"/>
<rect x="623.064" y="308.251" width="55.873" height="1.81034" fill="#C9D1E4" fill-opacity="0.5"/>
</g>
<path opacity="0.5" d="M427.451 371.424C432.895 374.448 432.895 379.591 427.451 382.616L354.249 425.266C349.107 428.291 340.335 428.291 335.193 425.266L261.084 382.616C255.639 379.591 255.639 374.448 261.084 371.424L334.285 328.773C339.428 325.748 348.2 325.748 353.342 328.773L427.451 371.424Z" fill="url(#paint28_linear)"/>
<path d="M427.451 360.178L354.25 402.829C349.107 405.853 340.335 405.853 335.193 402.829L261.084 360.178C258.362 358.666 257.152 356.548 257.152 354.431V365.018C257.152 367.135 258.362 368.95 261.084 370.765L334.891 413.416C340.335 416.44 348.805 416.44 353.947 413.416L427.149 370.765C429.871 369.253 431.081 367.135 431.081 365.32V354.733C431.383 356.548 430.174 358.666 427.451 360.178Z" fill="url(#paint29_linear)"/>
<path d="M427.451 360.178L354.25 402.829C349.107 405.853 340.335 405.853 335.193 402.829L261.084 360.178C258.362 358.666 257.152 356.548 257.152 354.431V365.018C257.152 367.135 258.362 368.95 261.084 370.765L334.891 413.416C340.335 416.44 348.805 416.44 353.947 413.416L427.149 370.765C429.871 369.253 431.081 367.135 431.081 365.32V354.733C431.383 356.548 430.174 358.666 427.451 360.178Z" fill="url(#paint30_linear)" stroke="white" stroke-width="0.5" stroke-miterlimit="10"/>
<path d="M427.451 348.986C432.895 352.011 432.895 357.153 427.451 360.178L354.249 402.828C349.107 405.853 340.335 405.853 335.193 402.828L261.084 360.178C255.639 357.153 255.639 352.011 261.084 348.986L334.285 306.335C339.428 303.31 348.2 303.31 353.342 306.335L427.451 348.986Z" fill="url(#paint31_linear)"/>
<path d="M402.345 350.801C405.974 352.919 405.974 356.548 402.345 358.666L350.922 388.612C347.292 390.729 341.242 390.729 337.613 388.612L285.888 358.666C282.258 356.548 282.258 352.919 285.888 350.801L337.31 320.855C340.94 318.738 346.99 318.738 350.62 320.855L402.345 350.801Z" fill="#FFE2E4"/>
<path d="M402.345 350.801C405.974 352.919 405.974 356.548 402.345 358.666L350.922 388.612C347.292 390.729 341.242 390.729 337.613 388.612L285.888 358.666C282.258 356.548 282.258 352.919 285.888 350.801L337.31 320.855C340.94 318.738 346.99 318.738 350.62 320.855L402.345 350.801Z" fill="url(#paint32_linear)"/>
<g opacity="0.55">
<path d="M402.345 330.534C405.974 332.652 405.974 336.281 402.345 338.399L350.922 368.345C347.292 370.462 341.242 370.462 337.613 368.345L285.888 338.399C282.258 336.281 282.258 332.652 285.888 330.534L337.31 300.588C340.94 298.471 346.99 298.471 350.62 300.588L402.345 330.534Z" fill="#FFE2E4"/>
<path d="M402.345 330.534C405.974 332.652 405.974 336.281 402.345 338.399L350.922 368.345C347.292 370.462 341.242 370.462 337.613 368.345L285.888 338.399C282.258 336.281 282.258 332.652 285.888 330.534L337.31 300.588C340.94 298.471 346.99 298.471 350.62 300.588L402.345 330.534Z" fill="url(#paint33_linear)"/>
</g>
<path d="M532.493 376C531.608 376 530.725 375.837 529.887 375.515C526.833 374.34 523.746 373.188 520.637 372.03C492.062 361.375 459.678 349.301 440.155 311.379C420.254 272.76 418.635 217.955 418.635 155.54C418.635 152.341 420.727 149.523 423.786 148.594L530.389 116.311C531.762 115.896 533.224 115.896 534.594 116.311L641.214 148.591C644.276 149.517 646.365 152.338 646.365 155.537C646.365 217.952 644.746 272.76 624.842 311.379C605.313 349.313 572.907 361.387 544.32 372.038C541.223 373.193 538.141 374.343 535.096 375.512C534.26 375.837 533.378 376 532.493 376ZM433.152 160.921C433.251 219.165 435.192 270.067 453.056 304.733C470.007 337.659 498.314 348.218 525.692 358.429C525.697 358.431 525.702 358.433 525.707 358.435C527.98 359.282 530.244 360.127 532.493 360.98C534.733 360.13 536.991 359.288 539.255 358.447C539.258 358.445 539.261 358.444 539.264 358.443C566.659 348.234 594.986 337.677 611.945 304.735C629.811 270.073 631.753 219.168 631.851 160.921L532.493 130.838L433.152 160.921Z" fill="#A3B7E9"/>
<path d="M433.152 160.921C433.251 219.165 435.192 270.067 453.056 304.733C470.007 337.659 498.314 348.218 525.692 358.429L525.707 358.435C527.98 359.282 530.244 360.127 532.493 360.98C534.733 360.13 536.991 359.288 539.255 358.447L539.264 358.443C566.659 348.234 594.986 337.677 611.945 304.735C629.811 270.073 631.753 219.168 631.851 160.921L532.493 130.838L433.152 160.921Z" fill="#A3B7E9"/>
<path d="M532.033 345.575C531.331 345.575 530.631 345.446 529.965 345.191C527.543 344.262 525.092 343.351 522.626 342.435C499.95 334.009 474.254 324.462 458.761 294.473C442.97 263.934 441.685 220.596 441.685 171.239C441.685 168.71 443.345 166.481 445.772 165.747L530.364 140.218C531.453 139.89 532.614 139.89 533.701 140.218L618.306 165.744C620.736 166.476 622.394 168.707 622.394 171.237C622.394 220.593 621.109 263.934 605.315 294.473C589.818 324.471 564.103 334.019 541.418 342.442C538.961 343.355 536.515 344.264 534.099 345.189C533.436 345.446 532.736 345.575 532.033 345.575ZM453.204 175.494C453.282 221.553 454.823 261.805 468.998 289.218C482.45 315.256 504.912 323.605 526.637 331.68C526.641 331.681 526.645 331.683 526.649 331.684C528.452 332.355 530.249 333.022 532.033 333.697C533.811 333.025 535.603 332.359 537.399 331.694C537.402 331.693 537.404 331.692 537.407 331.691C559.145 323.617 581.623 315.269 595.08 289.22C609.258 261.809 610.798 221.555 610.877 175.494L532.033 151.705L453.204 175.494Z" fill="#5970CB"/>
<path d="M532.033 345.575C531.331 345.575 530.631 345.446 529.965 345.191C527.543 344.262 525.092 343.351 522.626 342.435C499.95 334.009 474.254 324.462 458.761 294.473C442.97 263.934 441.685 220.596 441.685 171.239C441.685 168.71 443.345 166.481 445.772 165.747L530.364 140.218C531.453 139.89 532.614 139.89 533.701 140.218L618.306 165.744C620.736 166.476 622.394 168.707 622.394 171.237C622.394 220.593 621.109 263.934 605.315 294.473C589.818 324.471 564.103 334.019 541.418 342.442C538.961 343.355 536.515 344.264 534.099 345.189C533.436 345.446 532.736 345.575 532.033 345.575ZM453.204 175.494C453.282 221.553 454.823 261.805 468.998 289.218C482.45 315.256 504.912 323.605 526.637 331.68C526.641 331.681 526.645 331.683 526.649 331.684C528.452 332.355 530.249 333.022 532.033 333.697C533.811 333.025 535.603 332.359 537.399 331.694C537.402 331.693 537.404 331.692 537.407 331.691C559.145 323.617 581.623 315.269 595.08 289.22C609.258 261.809 610.798 221.555 610.877 175.494L532.033 151.705L453.204 175.494Z" fill="url(#paint34_linear)"/>
<path d="M453.204 175.494C453.282 221.553 454.823 261.805 468.998 289.218C482.45 315.256 504.912 323.605 526.637 331.68L526.649 331.684C528.452 332.355 530.249 333.022 532.033 333.697C533.811 333.025 535.603 332.359 537.399 331.694L537.407 331.691C559.145 323.617 581.623 315.269 595.08 289.22C609.258 261.809 610.798 221.555 610.877 175.494L532.033 151.705L453.204 175.494Z" fill="#5970CB"/>
<path d="M453.204 175.494C453.282 221.553 454.823 261.805 468.998 289.218C482.45 315.256 504.912 323.605 526.637 331.68L526.649 331.684C528.452 332.355 530.249 333.022 532.033 333.697C533.811 333.025 535.603 332.359 537.399 331.694L537.407 331.691C559.145 323.617 581.623 315.269 595.08 289.22C609.258 261.809 610.798 221.555 610.877 175.494L532.033 151.705L453.204 175.494Z" fill="url(#paint35_linear)"/>
<g clip-path="url(#clip0)">
<path d="M684.004 414.707L715.946 434.97C720.053 437.618 725.415 437.387 729.294 434.509L867.788 349.658C869.5 348.622 869.386 345.974 867.56 345.168L833.792 328.82" stroke="#FFE2E4" stroke-miterlimit="10"/>
<path d="M684.004 414.707L715.946 434.97C720.053 437.618 725.415 437.387 729.294 434.509L867.788 349.658C869.5 348.622 869.386 345.974 867.56 345.168L833.792 328.82" stroke="url(#paint36_linear)" stroke-miterlimit="10"/>
</g>
<g clip-path="url(#clip1)">
<path d="M85.0001 355.805L219.846 438.196C226.769 442.646 235.808 442.259 242.346 437.422L475.809 294.838C478.693 293.096 478.501 288.647 475.424 287.292L418.501 259.82" stroke="#FFE2E4" stroke-miterlimit="10"/>
<path d="M85.0001 355.805L219.846 438.196C226.769 442.646 235.808 442.259 242.346 437.422L475.809 294.838C478.693 293.096 478.501 288.647 475.424 287.292L418.501 259.82" stroke="url(#paint37_linear)" stroke-miterlimit="10"/>
<path d="M202.165 338.51V364.473L176.966 379.746V353.019L202.165 338.51Z" fill="url(#paint38_linear)"/>
<path d="M176.964 353.019V379.746L151 364.473V338.51L176.964 353.019Z" fill="url(#paint39_linear)"/>
<path d="M202.165 338.509L176.965 353.018L151.001 338.509L176.201 324L202.165 338.509Z" fill="url(#paint40_linear)"/>
</g>
<path opacity="0.3" d="M938.071 154.002C941.785 151.776 945.499 153.26 945.499 158.453V200.743C945.499 205.194 942.528 211.13 938.071 213.355L900.929 234.871C897.215 237.097 893.5 235.613 893.5 230.42V188.13C893.5 183.679 896.472 177.743 900.929 175.517L938.071 154.002Z" fill="#DEE8FF"/>
<path opacity="0.3" d="M957.57 163.751C961.284 161.526 964.999 163.009 964.999 168.203V210.492C964.999 214.944 962.027 220.879 957.57 223.105L920.428 244.621C916.714 246.847 913 245.363 913 240.169V197.88C913 193.428 915.971 187.493 920.428 185.267L957.57 163.751Z" fill="#BAC9FF"/>
<path opacity="0.45" d="M981.945 180.001C985.659 177.775 989.373 179.259 989.373 184.452V226.742C989.373 231.193 986.402 237.129 981.945 239.355L944.803 260.87C941.089 263.096 937.374 261.612 937.374 256.419V214.129C937.374 209.678 940.346 203.742 944.803 201.517L981.945 180.001Z" fill="#BAC9FF"/>
<path opacity="0.5" d="M890.917 367.637C894.428 369.588 894.428 372.904 890.917 374.854L843.714 402.357C840.398 404.307 834.741 404.307 831.426 402.357L783.637 374.854C780.126 372.904 780.126 369.588 783.637 367.637L830.84 340.135C834.156 338.184 839.813 338.184 843.129 340.135L890.917 367.637Z" fill="url(#paint41_linear)"/>
<path d="M890.918 360.27L843.714 387.773C840.398 389.723 834.742 389.723 831.426 387.773L783.637 360.27C781.882 359.295 781.102 357.93 781.102 356.564V363.391C781.102 364.757 781.882 365.927 783.637 367.097L831.231 394.6C834.742 396.55 840.203 396.55 843.519 394.6L890.722 367.097C892.478 366.122 893.258 364.757 893.258 363.586V356.759C893.453 357.93 892.673 359.295 890.918 360.27Z" fill="url(#paint42_linear)"/>
<path d="M890.918 360.27L843.714 387.773C840.398 389.723 834.742 389.723 831.426 387.773L783.637 360.27C781.882 359.295 781.102 357.93 781.102 356.564V363.391C781.102 364.757 781.882 365.927 783.637 367.097L831.231 394.6C834.742 396.55 840.203 396.55 843.519 394.6L890.722 367.097C892.478 366.122 893.258 364.757 893.258 363.586V356.759C893.453 357.93 892.673 359.295 890.918 360.27Z" fill="url(#paint43_linear)" stroke="white" stroke-width="0.5" stroke-miterlimit="10"/>
<path d="M890.917 353.053C894.428 355.004 894.428 358.319 890.917 360.27L843.714 387.773C840.398 389.723 834.741 389.723 831.426 387.773L783.637 360.27C780.126 358.319 780.126 355.004 783.637 353.053L830.84 325.55C834.156 323.6 839.813 323.6 843.129 325.55L890.917 353.053Z" fill="url(#paint44_linear)"/>
<path d="M874.728 354.224C877.068 355.589 877.068 357.93 874.728 359.295L841.568 378.605C839.228 379.971 835.327 379.971 832.986 378.605L799.632 359.295C797.291 357.93 797.291 355.589 799.632 354.224L832.791 334.913C835.132 333.548 839.033 333.548 841.373 334.913L874.728 354.224Z" fill="#FFE2E4"/>
<path d="M874.728 354.224C877.068 355.589 877.068 357.93 874.728 359.295L841.568 378.605C839.228 379.971 835.327 379.971 832.986 378.605L799.632 359.295C797.291 357.93 797.291 355.589 799.632 354.224L832.791 334.913C835.132 333.548 839.033 333.548 841.373 334.913L874.728 354.224Z" fill="url(#paint45_linear)"/>
<g opacity="0.55">
<path d="M874.728 341.155C877.068 342.52 877.068 344.861 874.728 346.226L841.568 365.536C839.228 366.902 835.327 366.902 832.986 365.536L799.632 346.226C797.291 344.861 797.291 342.52 799.632 341.155L832.791 321.844C835.132 320.479 839.033 320.479 841.373 321.844L874.728 341.155Z" fill="#FFE2E4"/>
<path d="M874.728 341.155C877.068 342.52 877.068 344.861 874.728 346.226L841.568 365.536C839.228 366.902 835.327 366.902 832.986 365.536L799.632 346.226C797.291 344.861 797.291 342.52 799.632 341.155L832.791 321.844C835.132 320.479 839.033 320.479 841.373 321.844L874.728 341.155Z" fill="url(#paint46_linear)"/>
</g>
<path d="M845.49 259.279V288.113L821.745 304.391V275.556L845.49 259.279Z" fill="url(#paint47_linear)"/>
<path d="M821.745 275.556V304.391L798 288.113V259.278L821.745 275.556Z" fill="url(#paint48_linear)"/>
<path d="M845.49 259.278L821.745 275.556L798.001 259.278L821.745 243L845.49 259.278Z" fill="url(#paint49_linear)"/>
<path d="M884.515 273.837V289.649L871.455 298.951V282.673L884.515 273.837Z" fill="url(#paint50_linear)"/>
<path d="M871.456 282.673V298.951L858 289.65V273.837L871.456 282.673Z" fill="url(#paint51_linear)"/>
<path d="M884.515 273.837L871.456 282.673L858 273.837L871.06 265L884.515 273.837Z" fill="url(#paint52_linear)"/>
<path d="M856.745 312.906V327.323L844.873 335.695V320.812L856.745 312.906Z" fill="url(#paint53_linear)"/>
<path d="M844.873 320.813V335.695L833 327.324V312.906L844.873 320.813Z" fill="url(#paint54_linear)"/>
<path d="M856.745 312.906L844.873 320.813L833.001 312.906L844.873 305L856.745 312.906Z" fill="url(#paint55_linear)"/>
<g opacity="0.5">
<path opacity="0.5" d="M24.9258 300.214C25.8724 300.845 25.8724 301.791 24.9258 302.264L14.829 308.102C13.8825 308.733 12.3048 308.733 11.2005 308.102L0.945952 302.264C-0.000620082 301.633 -0.000620082 300.687 0.945952 300.214L11.0427 294.376C11.9893 293.745 13.5669 293.745 14.6713 294.376L24.9258 300.214Z" fill="url(#paint56_linear)"/>
</g>
<path d="M24.9267 293.745L14.83 299.583C13.8834 300.214 12.3058 300.214 11.2014 299.583L0.946891 293.745C0.473605 293.43 0.158081 293.114 0.158081 292.641V298.005C0.158081 298.321 0.473605 298.794 0.946891 299.109L11.2014 304.947C12.148 305.578 13.7256 305.578 14.83 304.947L24.9267 299.109C25.4 298.794 25.7155 298.478 25.7155 298.005V292.641C25.5578 293.114 25.4 293.43 24.9267 293.745Z" fill="url(#paint57_linear)"/>
<path d="M12.9366 305.578C12.3055 305.578 11.5167 305.42 11.0434 305.104L0.788871 299.267C0.315585 298.952 6.10352e-05 298.478 6.10352e-05 298.163V292.799H0.315604C0.315604 293.114 0.631119 293.43 0.946643 293.745L11.2012 299.583C12.1477 300.056 13.7254 300.056 14.672 299.583L24.7687 293.745C25.242 293.43 25.3998 293.114 25.3998 292.799H25.7153V298.163C25.7153 298.636 25.3998 298.952 24.9265 299.267L14.8297 305.104C14.3564 305.42 13.7254 305.578 12.9366 305.578ZM0.473376 293.43V298.005C0.473376 298.32 0.78889 298.636 1.10441 298.952L11.3589 304.789C12.3055 305.262 13.8832 305.262 14.8297 304.789L24.9265 298.952C25.3998 298.636 25.5575 298.32 25.5575 298.005V293.43C25.3998 293.588 25.242 293.745 25.0843 293.903L14.9875 299.74C13.8831 300.371 12.3055 300.371 11.2012 299.74L0.946643 293.903C0.788881 293.745 0.473376 293.588 0.473376 293.43Z" fill="white"/>
<path d="M24.926 291.694C25.8726 292.325 25.8726 293.272 24.926 293.745L14.8292 299.582C13.8826 300.213 12.305 300.213 11.2007 299.582L0.946135 293.745C-0.000436977 293.114 -0.000436977 292.168 0.946135 291.694L11.0429 285.857C11.9895 285.226 13.5671 285.226 14.6714 285.857L24.926 291.694Z" fill="url(#paint58_linear)"/>
<path d="M21.4554 288.854L14.3561 292.956C13.725 293.43 12.4629 293.43 11.8319 292.956L4.57488 288.854C4.25935 288.697 4.10156 288.381 4.10156 288.066V292.641C4.10156 292.956 4.25935 293.114 4.57488 293.43L11.8319 297.531C12.4629 298.005 13.725 298.005 14.3561 297.531L21.4554 293.43C21.7709 293.272 21.9287 292.956 21.9287 292.641V288.066C21.9287 288.381 21.7709 288.539 21.4554 288.854Z" fill="url(#paint59_linear)"/>
<path d="M21.4557 287.277C22.0868 287.75 22.0868 288.381 21.4557 288.697L14.3564 292.799C13.7254 293.272 12.4633 293.272 11.8322 292.799L4.57521 288.697C3.94417 288.224 3.94417 287.593 4.57521 287.277L11.6745 283.175C12.3056 282.702 13.5676 282.702 14.1987 283.175L21.4557 287.277Z" fill="#FFE2E4"/>
<path d="M21.4557 287.277C22.0868 287.75 22.0868 288.381 21.4557 288.697L14.3564 292.799C13.7254 293.272 12.4633 293.272 11.8322 292.799L4.57521 288.697C3.94417 288.224 3.94417 287.593 4.57521 287.277L11.6745 283.175C12.3056 282.702 13.5676 282.702 14.1987 283.175L21.4557 287.277Z" fill="url(#paint60_linear)"/>
<g opacity="0.15">
<path d="M32.0001 197.81C29.0001 196.01 26.0001 197.21 26.0001 201.409V235.598C26.0001 239.197 28.4001 243.996 32.0001 245.795L62.0001 263.19C65.0001 264.99 68.0001 263.79 68.0001 259.591V225.402C68.0001 221.803 65.6001 217.004 62.0001 215.205L32.0001 197.81Z" fill="#FFE2E4"/>
<path d="M32.0001 197.81C29.0001 196.01 26.0001 197.21 26.0001 201.409V235.598C26.0001 239.197 28.4001 243.996 32.0001 245.795L62.0001 263.19C65.0001 264.99 68.0001 263.79 68.0001 259.591V225.402C68.0001 221.803 65.6001 217.004 62.0001 215.205L32.0001 197.81Z" fill="url(#paint61_linear)"/>
</g>
<g opacity="0.1">
<path d="M58.0001 193.81C55.0001 192.01 52.0001 193.21 52.0001 197.409V231.598C52.0001 235.197 54.4001 239.996 58.0001 241.795L88.0001 259.19C91.0001 260.99 94.0001 259.79 94.0001 255.591V221.402C94.0001 217.803 91.6001 213.004 88.0001 211.205L58.0001 193.81Z" fill="#FFE2E4"/>
<path d="M58.0001 193.81C55.0001 192.01 52.0001 193.21 52.0001 197.409V231.598C52.0001 235.197 54.4001 239.996 58.0001 241.795L88.0001 259.19C91.0001 260.99 94.0001 259.79 94.0001 255.591V221.402C94.0001 217.803 91.6001 213.004 88.0001 211.205L58.0001 193.81Z" fill="url(#paint62_linear)"/>
</g>
<path d="M436 416.926V435.209L418.762 445.134V426.851L436 416.926Z" fill="url(#paint63_linear)"/>
<path d="M418.761 426.851V445.134L401 435.209V416.926L418.761 426.851Z" fill="url(#paint64_linear)"/>
<path d="M436 416.925L418.762 426.85L401.001 416.925L418.762 407L436 416.925Z" fill="url(#paint65_linear)"/>
<g opacity="0.75">
<rect x="523.026" y="246.103" width="26.4615" height="29.7692" fill="#ACBEEB"/>
<path d="M556.881 233.775V225.356C556.881 212.501 546.348 202 533.455 202C520.561 202 510.028 212.501 510.028 225.356V233.775C503.672 234.318 498.769 239.568 498.769 246.086V275.598C498.769 282.478 504.308 288 511.209 288H555.791C562.692 288 568.231 282.478 568.231 275.598V246.086C568.231 239.568 563.237 234.318 556.881 233.775ZM538.903 271.615C539.084 272.52 538.449 273.335 537.541 273.335H529.278C528.37 273.335 527.734 272.52 527.916 271.615L530.64 260.933C528.37 259.937 526.736 257.674 526.736 254.958C526.736 251.337 529.732 248.349 533.364 248.349C536.996 248.349 539.992 251.337 539.992 254.958C539.992 257.583 538.358 259.846 536.088 260.933L538.903 271.615ZM544.986 233.684H521.923V225.446C521.923 219.109 527.099 213.949 533.455 213.949C539.811 213.949 544.986 219.109 544.986 225.446V233.684Z" fill="#3E55BF"/>
<path d="M556.881 233.775V225.356C556.881 212.501 546.348 202 533.455 202C520.561 202 510.028 212.501 510.028 225.356V233.775C503.672 234.318 498.769 239.568 498.769 246.086V275.598C498.769 282.478 504.308 288 511.209 288H555.791C562.692 288 568.231 282.478 568.231 275.598V246.086C568.231 239.568 563.237 234.318 556.881 233.775ZM538.903 271.615C539.084 272.52 538.449 273.335 537.541 273.335H529.278C528.37 273.335 527.734 272.52 527.916 271.615L530.64 260.933C528.37 259.937 526.736 257.674 526.736 254.958C526.736 251.337 529.732 248.349 533.364 248.349C536.996 248.349 539.992 251.337 539.992 254.958C539.992 257.583 538.358 259.846 536.088 260.933L538.903 271.615ZM544.986 233.684H521.923V225.446C521.923 219.109 527.099 213.949 533.455 213.949C539.811 213.949 544.986 219.109 544.986 225.446V233.684Z" fill="url(#paint66_linear)"/>
</g>
<g opacity="0.5">
<path opacity="0.5" d="M1000.65 383.028C1002.38 383.975 1002.38 385.553 1000.65 386.499L983.611 396.438C981.875 397.385 979.193 397.385 977.616 396.438L960.578 386.499C958.842 385.553 958.842 383.975 960.578 383.028L977.616 373.089C979.351 372.143 982.033 372.143 983.611 373.089L1000.65 383.028Z" fill="url(#paint67_linear)"/>
</g>
<path d="M1000.65 372.143L983.611 382.082C981.876 383.028 979.194 383.028 977.616 382.082L960.578 372.143C959.789 371.669 959.316 371.038 959.316 370.407V379.4C959.316 380.031 959.789 380.662 960.578 381.135L977.616 391.074C979.351 392.021 982.033 392.021 983.611 391.074L1000.65 381.135C1001.44 380.662 1001.91 380.031 1001.91 379.4V370.407C1001.91 371.038 1001.44 371.669 1000.65 372.143Z" fill="url(#paint68_linear)"/>
<path d="M980.613 392.021C979.509 392.021 978.405 391.705 977.458 391.232L960.42 381.293C959.473 380.82 959 380.031 959 379.242V370.25H959.473C959.473 370.881 959.947 371.354 960.578 371.827L977.616 381.766C979.194 382.713 981.875 382.713 983.453 381.766L1000.49 371.827C1001.28 371.354 1001.6 370.881 1001.6 370.25H1002.07V379.242C1002.07 380.031 1001.6 380.662 1000.65 381.135L983.611 391.074C982.98 391.863 981.876 392.021 980.613 392.021ZM959.631 371.669V379.4C959.631 380.031 960.104 380.504 960.735 380.977L977.774 390.916C979.351 391.863 982.033 391.863 983.611 390.916L1000.65 380.977C1001.44 380.504 1001.75 380.031 1001.75 379.4V371.669C1001.6 371.985 1001.28 372.143 1000.96 372.3L983.926 382.239C982.191 383.186 979.351 383.186 977.616 382.239L960.578 372.3C960.104 372.143 959.789 371.985 959.631 371.669Z" fill="white"/>
<path d="M1000.65 368.672C1002.38 369.618 1002.38 371.196 1000.65 372.143L983.611 382.082C981.876 383.028 979.194 383.028 977.616 382.082L960.578 372.143C958.842 371.196 958.842 369.618 960.578 368.672L977.616 358.733C979.351 357.786 982.033 357.786 983.611 358.733L1000.65 368.672Z" fill="url(#paint69_linear)"/>
<path d="M994.812 363.939L982.822 370.881C981.718 371.512 979.667 371.512 978.563 370.881L966.415 363.939C965.784 363.624 965.468 363.15 965.468 362.677V370.407C965.468 370.881 965.784 371.354 966.415 371.669L978.563 378.611C979.667 379.242 981.718 379.242 982.822 378.611L994.812 371.669C995.443 371.354 995.759 370.881 995.759 370.407V362.677C995.759 363.15 995.443 363.624 994.812 363.939Z" fill="url(#paint70_linear)"/>
<path d="M994.813 361.415C995.917 362.046 996.075 363.15 994.813 363.939L982.823 370.881C981.718 371.512 979.667 371.512 978.563 370.881L966.415 363.939C965.311 363.308 965.153 362.204 966.415 361.415L978.405 354.473C979.51 353.842 981.561 353.842 982.665 354.473L994.813 361.415Z" fill="#FFE2E4"/>
<path d="M994.813 361.415C995.917 362.046 996.075 363.15 994.813 363.939L982.823 370.881C981.718 371.512 979.667 371.512 978.563 370.881L966.415 363.939C965.311 363.308 965.153 362.204 966.415 361.415L978.405 354.473C979.51 353.842 981.561 353.842 982.665 354.473L994.813 361.415Z" fill="url(#paint71_linear)"/>
<defs>
<linearGradient id="paint0_linear" x1="530.499" y1="503.954" x2="533.784" y2="333.131" gradientUnits="userSpaceOnUse">
<stop stop-color="#A3AEEB"/>
<stop offset="0.1545" stop-color="#B1BCED"/>
<stop offset="0.7192" stop-color="#E0ECF4"/>
<stop offset="1" stop-color="#F2FFF7"/>
</linearGradient>
<linearGradient id="paint1_linear" x1="441.536" y1="441.939" x2="624.938" y2="376.307" gradientUnits="userSpaceOnUse">
<stop stop-color="#A3AEEB"/>
<stop offset="0.1545" stop-color="#B1BCED"/>
<stop offset="0.7192" stop-color="#E0ECF4"/>
<stop offset="1" stop-color="#F2FFF7"/>
</linearGradient>
<linearGradient id="paint2_linear" x1="441.536" y1="441.939" x2="624.938" y2="376.307" gradientUnits="userSpaceOnUse">
<stop stop-color="#A3AEEB"/>
<stop offset="0.1545" stop-color="#B1BCED"/>
<stop offset="0.7192" stop-color="#E0ECF4"/>
<stop offset="1" stop-color="#F2FFF7"/>
</linearGradient>
<linearGradient id="paint3_linear" x1="488.638" y1="417.786" x2="568.136" y2="380.336" gradientUnits="userSpaceOnUse">
<stop stop-color="#F2FFF7"/>
<stop offset="1" stop-color="white"/>
</linearGradient>
<linearGradient id="paint4_linear" x1="943.732" y1="359.282" x2="946.507" y2="214.994" gradientUnits="userSpaceOnUse">
<stop stop-color="#A3AEEB"/>
<stop offset="0.1545" stop-color="#B1BCED"/>
<stop offset="0.7192" stop-color="#E0ECF4"/>
<stop offset="1" stop-color="#F2FFF7"/>
</linearGradient>
<linearGradient id="paint5_linear" x1="868.588" y1="306.9" x2="1023.5" y2="251.463" gradientUnits="userSpaceOnUse">
<stop stop-color="#A3AEEB"/>
<stop offset="0.1545" stop-color="#B1BCED"/>
<stop offset="0.7192" stop-color="#E0ECF4"/>
<stop offset="1" stop-color="#F2FFF7"/>
</linearGradient>
<linearGradient id="paint6_linear" x1="868.588" y1="306.9" x2="1023.5" y2="251.463" gradientUnits="userSpaceOnUse">
<stop stop-color="#A3AEEB"/>
<stop offset="0.1545" stop-color="#B1BCED"/>
<stop offset="0.7192" stop-color="#E0ECF4"/>
<stop offset="1" stop-color="#F2FFF7"/>
</linearGradient>
<linearGradient id="paint7_linear" x1="908.374" y1="286.499" x2="975.523" y2="254.867" gradientUnits="userSpaceOnUse">
<stop stop-color="#F2FFF7"/>
<stop offset="1" stop-color="white"/>
</linearGradient>
<linearGradient id="paint8_linear" x1="669" y1="75" x2="669" y2="197" gradientUnits="userSpaceOnUse">
<stop stop-color="#FFE2E4"/>
<stop offset="1" stop-color="#BAC2E8"/>
<stop offset="1" stop-color="white" stop-opacity="0"/>
</linearGradient>
<linearGradient id="paint9_linear" x1="67.8803" y1="106.785" x2="270.854" y2="313.931" gradientUnits="userSpaceOnUse">
<stop stop-color="#FFE2E4"/>
<stop offset="1" stop-color="#BAC2E8"/>
<stop offset="1" stop-color="white" stop-opacity="0"/>
</linearGradient>
<linearGradient id="paint10_linear" x1="869.889" y1="124.826" x2="694.672" y2="333.674" gradientUnits="userSpaceOnUse">
<stop stop-color="#FFE2E4"/>
<stop offset="1" stop-color="#BAC2E8"/>
<stop offset="1" stop-color="white" stop-opacity="0"/>
</linearGradient>
<linearGradient id="paint11_linear" x1="162.5" y1="68.821" x2="316.5" y2="249.821" gradientUnits="userSpaceOnUse">
<stop stop-color="#FFE2E4"/>
<stop offset="0.0001" stop-color="#FEF1F2"/>
<stop offset="0.5" stop-color="#F0E9F1"/>
<stop offset="0.75" stop-color="#E2E0F1"/>
<stop offset="0.9999" stop-color="#B6C5EE"/>
<stop offset="1" stop-color="#BAC2E8"/>
<stop offset="1" stop-color="#F7F8FD"/>
</linearGradient>
<linearGradient id="paint12_linear" x1="274" y1="239" x2="274" y2="315" gradientUnits="userSpaceOnUse">
<stop stop-color="#FFE2E4"/>
<stop offset="1" stop-color="#BAC2E8"/>
<stop offset="1" stop-color="white" stop-opacity="0"/>
</linearGradient>
<linearGradient id="paint13_linear" x1="656.331" y1="413.629" x2="698.917" y2="413.629" gradientUnits="userSpaceOnUse">
<stop stop-color="#A3AEEB"/>
<stop offset="0.1545" stop-color="#B1BCED"/>
<stop offset="0.7192" stop-color="#E0ECF4"/>
<stop offset="1" stop-color="#F2FFF7"/>
</linearGradient>
<linearGradient id="paint14_linear" x1="677.611" y1="441.23" x2="677.611" y2="384.644" gradientUnits="userSpaceOnUse">
<stop stop-color="#A3AEEB"/>
<stop offset="0.1545" stop-color="#B1BCED"/>
<stop offset="0.7192" stop-color="#E0ECF4"/>
<stop offset="1" stop-color="#F2FFF7"/>
</linearGradient>
<linearGradient id="paint15_linear" x1="656.331" y1="399.225" x2="698.917" y2="399.225" gradientUnits="userSpaceOnUse">
<stop stop-color="#F2FFF7"/>
<stop offset="1" stop-color="white"/>
</linearGradient>
<linearGradient id="paint16_linear" x1="686.929" y1="410.094" x2="684.604" y2="388.822" gradientUnits="userSpaceOnUse">
<stop stop-color="#778CD7"/>
<stop offset="1" stop-color="#475EC4"/>
</linearGradient>
<linearGradient id="paint17_linear" x1="677.614" y1="382.82" x2="677.614" y2="400.174" gradientUnits="userSpaceOnUse">
<stop stop-color="#FFE2E4"/>
<stop offset="1" stop-color="#BAC2E8"/>
<stop offset="1" stop-color="white" stop-opacity="0"/>
</linearGradient>
<linearGradient id="paint18_linear" x1="42.3801" y1="356.98" x2="107.683" y2="356.98" gradientUnits="userSpaceOnUse">
<stop stop-color="#A3AEEB"/>
<stop offset="0.1545" stop-color="#B1BCED"/>
<stop offset="0.7192" stop-color="#E0ECF4"/>
<stop offset="1" stop-color="#F2FFF7"/>
</linearGradient>
<linearGradient id="paint19_linear" x1="75.0113" y1="399.305" x2="75.0113" y2="312.535" gradientUnits="userSpaceOnUse">
<stop stop-color="#A3AEEB"/>
<stop offset="0.1545" stop-color="#B1BCED"/>
<stop offset="0.7192" stop-color="#E0ECF4"/>
<stop offset="1" stop-color="#F2FFF7"/>
</linearGradient>
<linearGradient id="paint20_linear" x1="42.3799" y1="334.894" x2="107.683" y2="334.894" gradientUnits="userSpaceOnUse">
<stop stop-color="#F2FFF7"/>
<stop offset="1" stop-color="white"/>
</linearGradient>
<linearGradient id="paint21_linear" x1="89.3649" y1="351.709" x2="85.7719" y2="318.933" gradientUnits="userSpaceOnUse">
<stop stop-color="#778CD7"/>
<stop offset="1" stop-color="#475EC4"/>
</linearGradient>
<linearGradient id="paint22_linear" x1="74.8939" y1="309.604" x2="74.8939" y2="336.502" gradientUnits="userSpaceOnUse">
<stop stop-color="#FFE2E4"/>
<stop offset="1" stop-color="#BAC2E8"/>
<stop offset="1" stop-color="white" stop-opacity="0"/>
</linearGradient>
<linearGradient id="paint23_linear" x1="74.8934" y1="302.82" x2="74.8934" y2="329.719" gradientUnits="userSpaceOnUse">
<stop stop-color="#FFE2E4"/>
<stop offset="1" stop-color="#BAC2E8"/>
<stop offset="1" stop-color="white" stop-opacity="0"/>
</linearGradient>
<linearGradient id="paint24_linear" x1="380.5" y1="145.82" x2="380.5" y2="326.82" gradientUnits="userSpaceOnUse">
<stop stop-color="white"/>
<stop offset="1" stop-color="white" stop-opacity="0"/>
</linearGradient>
<linearGradient id="paint25_linear" x1="693" y1="157.82" x2="693" y2="245.82" gradientUnits="userSpaceOnUse">
<stop stop-color="white"/>
<stop offset="1" stop-color="white" stop-opacity="0"/>
</linearGradient>
<linearGradient id="paint26_linear" x1="785.678" y1="175.82" x2="688.256" y2="290.952" gradientUnits="userSpaceOnUse">
<stop stop-color="#FFE2E4"/>
<stop offset="0.0001" stop-color="#FEF1F2"/>
<stop offset="0.5" stop-color="#F0E9F1"/>
<stop offset="0.75" stop-color="#E2E0F1"/>
<stop offset="0.9999" stop-color="#B6C5EE"/>
<stop offset="1" stop-color="#BAC2E8"/>
<stop offset="1" stop-color="#F7F8FD"/>
</linearGradient>
<linearGradient id="paint27_linear" x1="651" y1="232.82" x2="651" y2="337.82" gradientUnits="userSpaceOnUse">
<stop stop-color="white"/>
<stop offset="1" stop-color="white" stop-opacity="0"/>
</linearGradient>
<linearGradient id="paint28_linear" x1="342.411" y1="476.833" x2="346.625" y2="257.733" gradientUnits="userSpaceOnUse">
<stop stop-color="#A3AEEB"/>
<stop offset="0.1545" stop-color="#B1BCED"/>
<stop offset="0.7192" stop-color="#E0ECF4"/>
<stop offset="1" stop-color="#F2FFF7"/>
</linearGradient>
<linearGradient id="paint29_linear" x1="228.307" y1="411.758" x2="463.54" y2="327.577" gradientUnits="userSpaceOnUse">
<stop stop-color="#A3AEEB"/>
<stop offset="0.1545" stop-color="#B1BCED"/>
<stop offset="0.7192" stop-color="#E0ECF4"/>
<stop offset="1" stop-color="#F2FFF7"/>
</linearGradient>
<linearGradient id="paint30_linear" x1="228.307" y1="411.758" x2="463.54" y2="327.577" gradientUnits="userSpaceOnUse">
<stop stop-color="#A3AEEB"/>
<stop offset="0.1545" stop-color="#B1BCED"/>
<stop offset="0.7192" stop-color="#E0ECF4"/>
<stop offset="1" stop-color="#F2FFF7"/>
</linearGradient>
<linearGradient id="paint31_linear" x1="288.719" y1="380.778" x2="390.685" y2="332.745" gradientUnits="userSpaceOnUse">
<stop stop-color="#F2FFF7"/>
<stop offset="1" stop-color="white"/>
</linearGradient>
<linearGradient id="paint32_linear" x1="344.116" y1="319.267" x2="344.116" y2="390.2" gradientUnits="userSpaceOnUse">
<stop stop-color="#FFE2E4"/>
<stop offset="1" stop-color="#BAC2E8"/>
<stop offset="1" stop-color="white" stop-opacity="0"/>
</linearGradient>
<linearGradient id="paint33_linear" x1="344.116" y1="299" x2="344.116" y2="369.933" gradientUnits="userSpaceOnUse">
<stop stop-color="#FFE2E4"/>
<stop offset="1" stop-color="#BAC2E8"/>
<stop offset="1" stop-color="white" stop-opacity="0"/>
</linearGradient>
<linearGradient id="paint34_linear" x1="532.039" y1="139.972" x2="532.039" y2="345.575" gradientUnits="userSpaceOnUse">
<stop stop-color="#455CC3"/>
<stop offset="1" stop-color="#A3B7E9" stop-opacity="0.5"/>
</linearGradient>
<linearGradient id="paint35_linear" x1="532.039" y1="139.972" x2="532.039" y2="345.575" gradientUnits="userSpaceOnUse">
<stop stop-color="#455CC3"/>
<stop offset="1" stop-color="#A3B7E9" stop-opacity="0.5"/>
</linearGradient>
<linearGradient id="paint36_linear" x1="776.504" y1="328.82" x2="776.504" y2="436.82" gradientUnits="userSpaceOnUse">
<stop stop-color="#FFE2E4"/>
<stop offset="1" stop-color="#BAC2E8"/>
<stop offset="1" stop-color="white" stop-opacity="0"/>
</linearGradient>
<linearGradient id="paint37_linear" x1="281.429" y1="259.82" x2="281.429" y2="441.305" gradientUnits="userSpaceOnUse">
<stop stop-color="#FFE2E4"/>
<stop offset="1" stop-color="#BAC2E8"/>
<stop offset="1" stop-color="white" stop-opacity="0"/>
</linearGradient>
<linearGradient id="paint38_linear" x1="210.426" y1="285.409" x2="169.468" y2="428.059" gradientUnits="userSpaceOnUse">
<stop stop-color="#A3AEEB"/>
<stop offset="0.1545" stop-color="#B1BCED"/>
<stop offset="0.7192" stop-color="#E0ECF4"/>
<stop offset="1" stop-color="#F2FFF7"/>
</linearGradient>
<linearGradient id="paint39_linear" x1="162.647" y1="386.326" x2="168.296" y2="269.097" gradientUnits="userSpaceOnUse">
<stop stop-color="#A3AEEB"/>
<stop offset="0.1545" stop-color="#B1BCED"/>
<stop offset="0.7192" stop-color="#E0ECF4"/>
<stop offset="1" stop-color="#F2FFF7"/>
</linearGradient>
<linearGradient id="paint40_linear" x1="151.265" y1="338.324" x2="202" y2="338.324" gradientUnits="userSpaceOnUse">
<stop stop-color="#F2FFF7"/>
<stop offset="1" stop-color="white"/>
</linearGradient>
<linearGradient id="paint41_linear" x1="836.08" y1="435.609" x2="838.797" y2="294.325" gradientUnits="userSpaceOnUse">
<stop stop-color="#A3AEEB"/>
<stop offset="0.1545" stop-color="#B1BCED"/>
<stop offset="0.7192" stop-color="#E0ECF4"/>
<stop offset="1" stop-color="#F2FFF7"/>
</linearGradient>
<linearGradient id="paint42_linear" x1="762.501" y1="393.531" x2="914.189" y2="339.248" gradientUnits="userSpaceOnUse">
<stop stop-color="#A3AEEB"/>
<stop offset="0.1545" stop-color="#B1BCED"/>
<stop offset="0.7192" stop-color="#E0ECF4"/>
<stop offset="1" stop-color="#F2FFF7"/>
</linearGradient>
<linearGradient id="paint43_linear" x1="762.501" y1="393.531" x2="914.189" y2="339.248" gradientUnits="userSpaceOnUse">
<stop stop-color="#A3AEEB"/>
<stop offset="0.1545" stop-color="#B1BCED"/>
<stop offset="0.7192" stop-color="#E0ECF4"/>
<stop offset="1" stop-color="#F2FFF7"/>
</linearGradient>
<linearGradient id="paint44_linear" x1="801.458" y1="373.554" x2="867.209" y2="342.58" gradientUnits="userSpaceOnUse">
<stop stop-color="#F2FFF7"/>
<stop offset="1" stop-color="white"/>
</linearGradient>
<linearGradient id="paint45_linear" x1="837.18" y1="333.889" x2="837.18" y2="379.629" gradientUnits="userSpaceOnUse">
<stop stop-color="#FFE2E4"/>
<stop offset="1" stop-color="#BAC2E8"/>
<stop offset="1" stop-color="white" stop-opacity="0"/>
</linearGradient>
<linearGradient id="paint46_linear" x1="837.18" y1="320.82" x2="837.18" y2="366.56" gradientUnits="userSpaceOnUse">
<stop stop-color="#FFE2E4"/>
<stop offset="1" stop-color="#BAC2E8"/>
<stop offset="1" stop-color="white" stop-opacity="0"/>
</linearGradient>
<linearGradient id="paint47_linear" x1="853.228" y1="201.158" x2="801.884" y2="353.318" gradientUnits="userSpaceOnUse">
<stop stop-color="#A3AEEB"/>
<stop offset="0.1545" stop-color="#B1BCED"/>
<stop offset="0.7192" stop-color="#E0ECF4"/>
<stop offset="1" stop-color="#F2FFF7"/>
</linearGradient>
<linearGradient id="paint48_linear" x1="808.603" y1="311.926" x2="815.884" y2="183.369" gradientUnits="userSpaceOnUse">
<stop stop-color="#A3AEEB"/>
<stop offset="0.1545" stop-color="#B1BCED"/>
<stop offset="0.7192" stop-color="#E0ECF4"/>
<stop offset="1" stop-color="#F2FFF7"/>
</linearGradient>
<linearGradient id="paint49_linear" x1="797.972" y1="259.239" x2="845.359" y2="259.239" gradientUnits="userSpaceOnUse">
<stop stop-color="#F2FFF7"/>
<stop offset="1" stop-color="white"/>
</linearGradient>
<linearGradient id="paint50_linear" x1="888.75" y1="241.497" x2="860.261" y2="325.926" gradientUnits="userSpaceOnUse">
<stop stop-color="#A3AEEB"/>
<stop offset="0.1545" stop-color="#B1BCED"/>
<stop offset="0.7192" stop-color="#E0ECF4"/>
<stop offset="1" stop-color="#F2FFF7"/>
</linearGradient>
<linearGradient id="paint51_linear" x1="863.99" y1="302.96" x2="868.03" y2="231.627" gradientUnits="userSpaceOnUse">
<stop stop-color="#A3AEEB"/>
<stop offset="0.1545" stop-color="#B1BCED"/>
<stop offset="0.7192" stop-color="#E0ECF4"/>
<stop offset="1" stop-color="#F2FFF7"/>
</linearGradient>
<linearGradient id="paint52_linear" x1="858.09" y1="273.725" x2="884.383" y2="273.725" gradientUnits="userSpaceOnUse">
<stop stop-color="#F2FFF7"/>
<stop offset="1" stop-color="white"/>
</linearGradient>
<linearGradient id="paint53_linear" x1="860.674" y1="283.984" x2="835.042" y2="359.946" gradientUnits="userSpaceOnUse">
<stop stop-color="#A3AEEB"/>
<stop offset="0.1545" stop-color="#B1BCED"/>
<stop offset="0.7192" stop-color="#E0ECF4"/>
<stop offset="1" stop-color="#F2FFF7"/>
</linearGradient>
<linearGradient id="paint54_linear" x1="838.397" y1="339.283" x2="842.031" y2="275.103" gradientUnits="userSpaceOnUse">
<stop stop-color="#A3AEEB"/>
<stop offset="0.1545" stop-color="#B1BCED"/>
<stop offset="0.7192" stop-color="#E0ECF4"/>
<stop offset="1" stop-color="#F2FFF7"/>
</linearGradient>
<linearGradient id="paint55_linear" x1="833.089" y1="312.98" x2="856.745" y2="312.98" gradientUnits="userSpaceOnUse">
<stop stop-color="#F2FFF7"/>
<stop offset="1" stop-color="white"/>
</linearGradient>
<linearGradient id="paint56_linear" x1="0.257794" y1="301.246" x2="25.625" y2="301.246" gradientUnits="userSpaceOnUse">
<stop stop-color="#A3AEEB"/>
<stop offset="0.1545" stop-color="#B1BCED"/>
<stop offset="0.7192" stop-color="#E0ECF4"/>
<stop offset="1" stop-color="#F2FFF7"/>
</linearGradient>
<linearGradient id="paint57_linear" x1="12.9348" y1="317.688" x2="12.9348" y2="283.981" gradientUnits="userSpaceOnUse">
<stop stop-color="#A3AEEB"/>
<stop offset="0.1545" stop-color="#B1BCED"/>
<stop offset="0.7192" stop-color="#E0ECF4"/>
<stop offset="1" stop-color="#F2FFF7"/>
</linearGradient>
<linearGradient id="paint58_linear" x1="0.257977" y1="292.666" x2="25.6252" y2="292.666" gradientUnits="userSpaceOnUse">
<stop stop-color="#F2FFF7"/>
<stop offset="1" stop-color="white"/>
</linearGradient>
<linearGradient id="paint59_linear" x1="18.4978" y1="299.197" x2="17.0829" y2="286.469" gradientUnits="userSpaceOnUse">
<stop stop-color="#778CD7"/>
<stop offset="1" stop-color="#475EC4"/>
</linearGradient>
<linearGradient id="paint60_linear" x1="13.0155" y1="282.82" x2="13.0155" y2="293.154" gradientUnits="userSpaceOnUse">
<stop stop-color="#FFE2E4"/>
<stop offset="1" stop-color="#BAC2E8"/>
<stop offset="1" stop-color="white" stop-opacity="0"/>
</linearGradient>
<linearGradient id="paint61_linear" x1="47.0001" y1="197" x2="47.0001" y2="264" gradientUnits="userSpaceOnUse">
<stop stop-color="#FFE2E4"/>
<stop offset="1" stop-color="#BAC2E8"/>
<stop offset="1" stop-color="white" stop-opacity="0"/>
</linearGradient>
<linearGradient id="paint62_linear" x1="73.0001" y1="193" x2="73.0001" y2="260" gradientUnits="userSpaceOnUse">
<stop stop-color="#FFE2E4"/>
<stop offset="1" stop-color="#BAC2E8"/>
<stop offset="1" stop-color="white" stop-opacity="0"/>
</linearGradient>
<linearGradient id="paint63_linear" x1="441.673" y1="380.855" x2="413.655" y2="478.437" gradientUnits="userSpaceOnUse">
<stop stop-color="#A3AEEB"/>
<stop offset="0.1545" stop-color="#B1BCED"/>
<stop offset="0.7192" stop-color="#E0ECF4"/>
<stop offset="1" stop-color="#F2FFF7"/>
</linearGradient>
<linearGradient id="paint64_linear" x1="408.989" y1="449.888" x2="412.853" y2="369.697" gradientUnits="userSpaceOnUse">
<stop stop-color="#A3AEEB"/>
<stop offset="0.1545" stop-color="#B1BCED"/>
<stop offset="0.7192" stop-color="#E0ECF4"/>
<stop offset="1" stop-color="#F2FFF7"/>
</linearGradient>
<linearGradient id="paint65_linear" x1="401.203" y1="417.052" x2="435.909" y2="417.052" gradientUnits="userSpaceOnUse">
<stop stop-color="#F2FFF7"/>
<stop offset="1" stop-color="white"/>
</linearGradient>
<linearGradient id="paint66_linear" x1="521.923" y1="210.147" x2="552.185" y2="283.99" gradientUnits="userSpaceOnUse">
<stop stop-color="#1F35AD"/>
<stop offset="1" stop-color="#4F6EDB"/>
</linearGradient>
<linearGradient id="paint67_linear" x1="959.331" y1="384.808" x2="1001.92" y2="384.808" gradientUnits="userSpaceOnUse">
<stop stop-color="#A3AEEB"/>
<stop offset="0.1545" stop-color="#B1BCED"/>
<stop offset="0.7192" stop-color="#E0ECF4"/>
<stop offset="1" stop-color="#F2FFF7"/>
</linearGradient>
<linearGradient id="paint68_linear" x1="980.611" y1="412.409" x2="980.611" y2="355.824" gradientUnits="userSpaceOnUse">
<stop stop-color="#A3AEEB"/>
<stop offset="0.1545" stop-color="#B1BCED"/>
<stop offset="0.7192" stop-color="#E0ECF4"/>
<stop offset="1" stop-color="#F2FFF7"/>
</linearGradient>
<linearGradient id="paint69_linear" x1="959.331" y1="370.405" x2="1001.92" y2="370.405" gradientUnits="userSpaceOnUse">
<stop stop-color="#F2FFF7"/>
<stop offset="1" stop-color="white"/>
</linearGradient>
<linearGradient id="paint70_linear" x1="989.929" y1="381.274" x2="987.604" y2="360.001" gradientUnits="userSpaceOnUse">
<stop stop-color="#778CD7"/>
<stop offset="1" stop-color="#475EC4"/>
</linearGradient>
<linearGradient id="paint71_linear" x1="980.614" y1="354" x2="980.614" y2="371.354" gradientUnits="userSpaceOnUse">
<stop stop-color="#FFE2E4"/>
<stop offset="1" stop-color="#BAC2E8"/>
<stop offset="1" stop-color="white" stop-opacity="0"/>
</linearGradient>
<clipPath id="clip0">
<rect width="173" height="97" fill="white" transform="translate(686.004 339.82)"/>
</clipPath>
<clipPath id="clip1">
<rect width="304" height="163" fill="white" transform="translate(19.0001 285.82)"/>
</clipPath>
</defs>
</svg>
