<svg width="63" height="63" viewBox="0 0 63 63" fill="none" xmlns="http://www.w3.org/2000/svg">
<path d="M51 0H12C5.37258 0 0 5.37258 0 12V51C0 57.6274 5.37258 63 12 63H51C57.6274 63 63 57.6274 63 51V12C63 5.37258 57.6274 0 51 0Z" fill="#4B61C3"/>
<path d="M16.6408 12V27.9897C18.7518 26.0015 21.5427 24.8942 24.4431 24.8942C27.7734 24.8942 30.9673 26.2167 33.3222 28.5708C35.677 30.925 37 34.1178 37 37.4471C37 40.7763 35.677 43.9692 33.3222 46.3233C30.9673 48.6775 27.7734 50 24.4431 50C21.5159 49.9849 18.7127 48.8172 16.6408 46.7501V49.5775H12V13.4625L16.6408 12ZM24.3456 45.7344C28.5393 45.7344 31.9529 41.9808 31.9529 37.5446C31.9529 32.9622 28.5393 29.306 24.3456 29.306C20.1518 29.306 16.8765 32.9622 16.8765 37.5446C16.8765 41.9564 20.2494 45.7344 24.3456 45.7344Z" fill="white"/>
<path d="M51 25.1311V30.2291C50.3136 30.0594 49.6078 29.977 48.9 29.984C45.3 29.984 41.95 31.618 41.95 36.5198V50H37V25.4906H41.95V27.7455C43.2 26.1115 45.45 25.0004 48.9 25.0004C49.6023 24.9952 50.304 25.0389 51 25.1311Z" fill="white"/>
</svg>
