<svg width="163" height="39" viewBox="0 0 163 39" fill="none" xmlns="http://www.w3.org/2000/svg">
<g clip-path="url(#clip0)">
<path d="M4.29506 38.9886H152.42C154.421 38.9886 156.423 38.9886 158.425 38.9886H158.688C160.93 38.9886 163.08 37.0247 162.977 34.7192C162.957 33.5932 162.498 32.5191 161.698 31.7228C160.898 30.9265 159.819 30.4702 158.688 30.4497H10.5632C8.5615 30.4497 6.55982 30.4497 4.55813 30.4497H4.29506C2.04745 30.4497 -0.10293 32.4137 1.33512e-05 34.7248C0.0191353 35.8512 0.477184 36.9262 1.27748 37.7227C2.07778 38.5193 3.15771 38.9753 4.28934 38.9943L4.29506 38.9886Z" fill="#8498F3"/>
<path d="M12.0787 0.415527V13.8614C13.8561 12.1789 16.2144 11.2396 18.6671 11.2372C21.4793 11.2372 24.1763 12.3491 26.1647 14.3284C28.1532 16.3077 29.2703 18.9921 29.2703 21.7912C29.2703 24.5904 28.1532 27.2748 26.1647 29.2541C24.1763 31.2334 21.4793 32.3453 18.6671 32.3453C16.1939 32.3288 13.8268 31.343 12.0787 29.6015V31.981H8.12112V1.64513L12.0787 0.415527ZM18.5814 28.7818C22.1272 28.7818 25.0096 25.628 25.0096 21.8937C25.0096 18.0398 22.1501 14.9658 18.5814 14.9658C15.0126 14.9658 12.2389 18.0398 12.2389 21.8937C12.2389 25.6167 15.1213 28.7818 18.5814 28.7818Z" fill="#24285B"/>
<path d="M40.4455 11.1974V15.4612C39.8848 15.3198 39.3081 15.2509 38.7297 15.2562C35.7615 15.2562 33.0106 16.6509 33.0106 20.704V31.9811H28.9158V11.4877H32.9935V13.3777C34.0229 11.983 35.853 11.1006 38.7126 11.1006C39.2918 11.0899 39.8711 11.1223 40.4455 11.1974Z" fill="#24285B"/>
<path d="M50.288 32.2257C48.1991 32.2291 46.156 31.6159 44.4171 30.4636C42.6783 29.3114 41.3217 27.6718 40.5189 25.7522C39.7161 23.8326 39.5031 21.7192 39.9069 19.6791C40.3107 17.6391 41.3131 15.764 42.7875 14.2909C44.2618 12.8179 46.1418 11.813 48.1898 11.4033C50.2378 10.9937 52.3618 11.1977 54.2934 11.9895C56.225 12.7813 57.8773 14.1253 59.0415 15.8518C60.2057 17.5782 60.8295 19.6094 60.834 21.6887C60.8356 24.4769 59.7262 27.1519 57.7493 29.1271C55.7723 31.1024 53.0891 32.2167 50.288 32.2257ZM50.2079 28.6565C53.708 28.6565 56.5504 25.5825 56.5504 21.7741C56.5504 17.9658 53.6909 14.8861 50.2079 14.8861C46.725 14.8861 43.8655 17.9999 43.8655 21.7741C43.8655 25.5483 46.6678 28.6565 50.2079 28.6565Z" fill="#24285B"/>
<path d="M78.9235 31.5713H74.8516V29.6814C73.8221 31.0761 71.992 31.9584 69.1324 31.9584C65.3407 31.9584 60.5538 29.9888 60.5538 22.7364V11.0723H64.6315V22.7706C64.6315 26.5789 67.4911 27.8085 69.121 27.8085C72.0835 27.8085 74.8401 26.4138 74.8401 22.355V11.0723H78.9235V31.5713Z" fill="#24285B"/>
<path d="M96.8586 28.1214V32.2201C92.3749 32.2201 89.9442 30.2903 89.9442 25.6622V1.2296L94.062 0V25.6622C94.062 27.5465 95.1315 28.1214 96.8586 28.1214Z" fill="#24285B"/>
<path d="M112.712 31.5599V29.1007C112.712 29.1007 110.653 31.947 106.124 31.947C103.311 31.947 100.614 30.8351 98.626 28.8558C96.6375 26.8765 95.5204 24.1921 95.5204 21.3929C95.5204 18.5938 96.6375 15.9094 98.626 13.9301C100.614 11.9508 103.311 10.8389 106.124 10.8389C110.653 10.8389 112.712 13.6852 112.712 13.6852V11.0666H116.715V31.5599H112.712ZM106.209 28.3664C109.79 28.3664 112.632 25.2525 112.632 21.4783C112.632 17.7041 109.772 14.5106 106.209 14.5106C102.646 14.5106 99.7868 17.6472 99.7868 21.4783C99.7868 25.3095 102.623 28.3664 106.209 28.3664Z" fill="#24285B"/>
<path d="M122.8 0V13.4459C124.577 11.7613 126.935 10.8199 129.389 10.8159C130.781 10.8159 132.16 11.0889 133.447 11.6193C134.733 12.1497 135.902 12.9271 136.886 13.9072C137.871 14.8872 138.652 16.0507 139.185 17.3311C139.718 18.6116 139.992 19.984 139.992 21.37C139.992 22.756 139.718 24.1284 139.185 25.4089C138.652 26.6894 137.871 27.8528 136.886 28.8329C135.902 29.8129 134.733 30.5903 133.447 31.1207C132.16 31.6511 130.781 31.9241 129.389 31.9241C126.916 31.9076 124.549 30.9218 122.8 29.1803V31.5541H118.849V1.2296L122.8 0ZM129.309 28.3662C132.849 28.3662 135.731 25.2068 135.731 21.4782C135.731 17.6243 132.872 14.5503 129.309 14.5503C125.746 14.5503 122.961 17.6471 122.961 21.4782C122.961 25.2068 125.849 28.3662 129.309 28.3662Z" fill="#24285B"/>
<path d="M155.251 25.4971C155.251 29.2656 151.876 31.9298 147.633 31.9298C143.389 31.9298 139.477 29.1859 139.477 25.4118H143.761C143.761 26.8463 145.328 28.3662 147.633 28.3662C149.938 28.3662 151.213 26.9715 151.213 25.5199C151.193 24.8157 150.928 24.1403 150.462 23.6095C149.997 23.0787 149.361 22.7257 148.662 22.611L145.9 21.9507C142.812 21.1309 140.673 19.167 140.673 16.3377C140.673 13.0987 143.103 10.5996 147.095 10.5996C151.299 10.5996 153.644 12.7742 154.055 15.5977H149.938C149.938 14.6186 148.536 14.0038 147.078 14.0038C145.311 14.0038 144.527 15.0285 144.527 16.2808C144.527 17.2201 144.733 18.0398 145.883 18.4099C146.666 18.6546 147.49 18.8596 148.645 19.11C152.368 19.8785 155.251 22.0531 155.251 25.4971Z" fill="#24285B"/>
</g>
<defs>
<clipPath id="clip0">
<rect width="163" height="39" fill="white"/>
</clipPath>
</defs>
</svg>
