<svg width="917" height="680" viewBox="0 0 917 680" fill="none" xmlns="http://www.w3.org/2000/svg">
<g opacity="0.2">
<path d="M474.026 44.8361C321.098 55.683 268.17 140.935 197.277 218.384C126.383 295.834 66.5223 356.199 85.2941 459.479C99.9626 540.183 134.127 588.208 202.21 634.013C242.128 660.87 269.486 671.799 317.152 678.386C375.609 686.466 432.456 660.776 491.292 656.2C574.284 649.745 605.686 682.467 684.671 656.2C730.516 640.953 752.249 632.758 787.281 599.501C847.819 542.027 876.113 484.274 867.198 401.3C851.412 254.376 806.531 271.798 733.509 202.607C651.077 124.499 626.953 33.9892 474.026 44.8361Z" fill="#FFE2E4"/>
<path d="M474.026 44.8361C321.098 55.683 268.17 140.935 197.277 218.384C126.383 295.834 66.5223 356.199 85.2941 459.479C99.9626 540.183 134.127 588.208 202.21 634.013C242.128 660.87 269.486 671.799 317.152 678.386C375.609 686.466 432.456 660.776 491.292 656.2C574.284 649.745 605.686 682.467 684.671 656.2C730.516 640.953 752.249 632.758 787.281 599.501C847.819 542.027 876.113 484.274 867.198 401.3C851.412 254.376 806.531 271.798 733.509 202.607C651.077 124.499 626.953 33.9892 474.026 44.8361Z" fill="url(#paint0_linear)"/>
</g>
<path d="M256.186 73.2417C275.774 70.8777 287.686 112.742 287.686 112.742V228.242C287.686 228.242 170.186 244.242 136.686 230.242C123.411 224.694 115.809 206.405 124.186 193.242C133.648 178.374 161.666 196.178 173.308 182.948C184.308 170.448 72.8082 76.9623 124.186 46.2417C182.376 11.4475 209.308 138.058 222.308 131.948C236.808 125.132 227.186 76.7417 256.186 73.2417Z" fill="url(#paint1_linear)"/>
<path d="M256.186 73.2417C275.774 70.8777 287.686 112.742 287.686 112.742V228.242C287.686 228.242 170.186 244.242 136.686 230.242C123.411 224.694 115.809 206.405 124.186 193.242C133.648 178.374 161.666 196.178 173.308 182.948C184.308 170.448 72.8082 76.9623 124.186 46.2417C182.376 11.4475 209.308 138.058 222.308 131.948C236.808 125.132 227.186 76.7417 256.186 73.2417Z" fill="url(#paint2_linear)"/>
<path d="M4.30824 287.948C26.4013 258.296 84.8083 322.948 84.8083 322.948V408.448C84.8083 408.448 21.902 400.084 24.3083 374.948C25.3153 364.428 35.3083 364.015 35.3083 353.448C35.3083 334.948 -14.6918 313.448 4.30824 287.948Z" fill="url(#paint3_linear)"/>
<path d="M4.30824 287.948C26.4013 258.296 84.8083 322.948 84.8083 322.948V408.448C84.8083 408.448 21.902 400.084 24.3083 374.948C25.3153 364.428 35.3083 364.015 35.3083 353.448C35.3083 334.948 -14.6918 313.448 4.30824 287.948Z" fill="url(#paint4_linear)"/>
<rect x="182.808" y="117.947" width="258" height="140" rx="15" fill="url(#paint5_linear)"/>
<rect x="217.808" y="145.947" width="202" height="26" fill="white"/>
<rect x="374.808" y="145.947" width="48" height="26" rx="5" fill="url(#paint6_linear)"/>
<rect x="83.8082" y="227.947" width="251" height="292" rx="10" fill="url(#paint7_linear)"/>
<rect x="125.808" y="450.947" width="98" height="30" rx="15" fill="url(#paint8_linear)"/>
<rect x="129.808" y="270.947" width="147" height="6" fill="url(#paint9_linear)"/>
<rect x="103.808" y="246.947" width="173" height="16" fill="url(#paint10_linear)"/>
<rect x="138.808" y="310.947" width="138" height="23" fill="white"/>
<ellipse cx="154.536" cy="322.447" rx="5.58088" ry="5.5" fill="#A3B7E9"/>
<ellipse cx="154.536" cy="322.447" rx="5.58088" ry="5.5" fill="url(#paint11_linear)"/>
<ellipse cx="172.801" cy="322.447" rx="5.58088" ry="5.5" fill="#A3B7E9"/>
<ellipse cx="172.801" cy="322.447" rx="5.58088" ry="5.5" fill="url(#paint12_linear)"/>
<ellipse cx="191.066" cy="322.447" rx="5.58088" ry="5.5" fill="#A3B7E9"/>
<ellipse cx="191.066" cy="322.447" rx="5.58088" ry="5.5" fill="url(#paint13_linear)"/>
<ellipse cx="209.33" cy="322.447" rx="5.58088" ry="5.5" fill="#A3B7E9"/>
<ellipse cx="209.33" cy="322.447" rx="5.58088" ry="5.5" fill="url(#paint14_linear)"/>
<ellipse cx="227.595" cy="322.447" rx="5.58088" ry="5.5" fill="#A3B7E9"/>
<ellipse cx="227.595" cy="322.447" rx="5.58088" ry="5.5" fill="url(#paint15_linear)"/>
<path d="M117.811 322.496C118.892 322.496 119.949 322.161 120.847 321.534C121.746 320.906 122.446 320.015 122.86 318.971C123.273 317.928 123.382 316.78 123.17 315.672C122.959 314.564 122.439 313.547 121.674 312.749C120.91 311.95 119.936 311.407 118.875 311.187C117.815 310.967 116.716 311.081 115.718 311.513C114.72 311.946 113.866 312.678 113.266 313.617C112.666 314.557 112.346 315.661 112.347 316.79C112.349 318.303 112.926 319.754 113.95 320.823C114.974 321.893 116.363 322.495 117.811 322.496Z" fill="url(#paint16_linear)"/>
<path d="M111.251 333.686H124.366C124.984 333.686 125.577 333.43 126.014 332.973C126.451 332.516 126.697 331.896 126.697 331.25V330.693C126.638 328.271 125.675 325.969 124.015 324.278C122.354 322.587 120.127 321.641 117.808 321.641C115.489 321.641 113.262 322.587 111.602 324.278C109.941 325.969 108.979 328.271 108.919 330.693V331.25C108.919 331.896 109.165 332.516 109.602 332.973C109.819 333.199 110.076 333.378 110.359 333.501C110.641 333.623 110.945 333.686 111.251 333.686Z" fill="url(#paint17_linear)"/>
<rect x="138.808" y="344.947" width="138" height="23" fill="white"/>
<ellipse cx="154.536" cy="356.447" rx="5.58088" ry="5.5" fill="#A3B7E9"/>
<ellipse cx="154.536" cy="356.447" rx="5.58088" ry="5.5" fill="url(#paint18_linear)"/>
<ellipse cx="172.801" cy="356.447" rx="5.58088" ry="5.5" fill="#A3B7E9"/>
<ellipse cx="172.801" cy="356.447" rx="5.58088" ry="5.5" fill="url(#paint19_linear)"/>
<ellipse cx="191.066" cy="356.447" rx="5.58088" ry="5.5" fill="#A3B7E9"/>
<ellipse cx="191.066" cy="356.447" rx="5.58088" ry="5.5" fill="url(#paint20_linear)"/>
<ellipse cx="209.33" cy="356.447" rx="5.58088" ry="5.5" fill="#A3B7E9"/>
<ellipse cx="209.33" cy="356.447" rx="5.58088" ry="5.5" fill="url(#paint21_linear)"/>
<ellipse cx="227.595" cy="356.447" rx="5.58088" ry="5.5" fill="#A3B7E9"/>
<ellipse cx="227.595" cy="356.447" rx="5.58088" ry="5.5" fill="url(#paint22_linear)"/>
<ellipse cx="245.86" cy="356.447" rx="5.58088" ry="5.5" fill="#A3B7E9"/>
<ellipse cx="245.86" cy="356.447" rx="5.58088" ry="5.5" fill="url(#paint23_linear)"/>
<path d="M125.374 353.713H124.654L124.652 350.43C124.649 346.854 121.472 343.945 117.567 343.947C113.661 343.95 110.484 346.859 110.487 350.435L110.493 353.718H110.237C108.894 353.721 107.805 354.718 107.808 355.947V365.721C107.808 366.95 108.9 367.947 110.243 367.947L125.38 367.939C126.722 367.939 127.811 366.942 127.808 365.713V355.937C127.808 354.707 126.716 353.713 125.374 353.713ZM113.102 353.718L113.097 350.435C113.097 348.177 115.1 346.339 117.567 346.337C120.033 346.337 122.039 348.174 122.039 350.43L122.045 353.713L113.102 353.718Z" fill="url(#paint24_linear)"/>
<path d="M50.8082 444.947C50.8082 444.947 55.9167 448.373 78.8082 479.947C107.808 519.947 99.8082 535.947 135.308 574.947C159.338 599.247 194.808 624.947 194.808 624.947L201.808 610.947C201.808 610.947 189.808 581.947 147.808 524.447C105.808 466.947 50.8082 444.947 50.8082 444.947Z" fill="#A3B7E9"/>
<path d="M50.8082 444.947C50.8082 444.947 55.9167 448.373 78.8082 479.947C107.808 519.947 99.8082 535.947 135.308 574.947C159.338 599.247 194.808 624.947 194.808 624.947L201.808 610.947C201.808 610.947 189.808 581.947 147.808 524.447C105.808 466.947 50.8082 444.947 50.8082 444.947Z" fill="url(#paint25_linear)"/>
<path d="M66.8082 525.615C66.8082 525.615 92.0536 545.752 102.308 560.621C122.308 589.621 125.095 598.954 144.308 616.947C162.808 634.273 187.308 644.447 187.308 644.447L194.808 624.947C194.808 624.947 168.949 595.693 143.308 571.121C105.843 535.219 66.8082 525.615 66.8082 525.615Z" fill="url(#paint26_linear)"/>
<path d="M816.808 68.9473C816.808 68.9473 806.211 78.9614 778.884 111.157C757.754 136.05 737.896 154.472 720.913 188C674.862 278.912 651.024 285.947 651.024 285.947L615.808 205.316C615.808 205.316 632.061 176.636 690.032 129.556C748.002 82.4759 816.808 68.9473 816.808 68.9473Z" fill="#FFE2E4"/>
<path d="M816.808 68.9473C816.808 68.9473 806.211 78.9614 778.884 111.157C757.754 136.05 737.896 154.472 720.913 188C674.862 278.912 651.024 285.947 651.024 285.947L615.808 205.316C615.808 205.316 632.061 176.636 690.032 129.556C748.002 82.4759 816.808 68.9473 816.808 68.9473Z" fill="url(#paint27_linear)"/>
<path d="M704.561 90.9473C704.561 90.9473 683.436 115.372 676.082 131.87C661.74 164.046 660.711 173.731 645.124 194.943C630.115 215.367 607.896 229.862 607.896 229.862L596.948 212.068C596.948 212.068 617.003 178.567 637.703 149.711C667.95 107.547 704.561 90.9473 704.561 90.9473Z" fill="#FFC0C1"/>
<path d="M704.561 90.9473C704.561 90.9473 683.436 115.372 676.082 131.87C661.74 164.046 660.711 173.731 645.124 194.943C630.115 215.367 607.896 229.862 607.896 229.862L596.948 212.068C596.948 212.068 617.003 178.567 637.703 149.711C667.95 107.547 704.561 90.9473 704.561 90.9473Z" fill="url(#paint28_linear)"/>
<path d="M790.308 365.948C785.368 370.522 773.808 370.948 773.808 370.948V489.448C773.808 489.448 835.739 443.726 841.308 427.448C847.808 408.448 831.308 411.785 831.308 396.448C831.308 376.948 881.308 361.948 885.308 345.448C887.674 335.69 879.308 338.948 876.308 321.448C874.23 309.326 912.808 260.472 885.308 244.948C861.808 231.681 845.308 285.448 839.308 288.448C833.308 291.448 815.572 281.767 806.808 290.948C796.308 301.948 803.808 353.448 790.308 365.948Z" fill="#FFE2E4"/>
<path d="M790.308 365.948C785.368 370.522 773.808 370.948 773.808 370.948V489.448C773.808 489.448 835.739 443.726 841.308 427.448C847.808 408.448 831.308 411.785 831.308 396.448C831.308 376.948 881.308 361.948 885.308 345.448C887.674 335.69 879.308 338.948 876.308 321.448C874.23 309.326 912.808 260.472 885.308 244.948C861.808 231.681 845.308 285.448 839.308 288.448C833.308 291.448 815.572 281.767 806.808 290.948C796.308 301.948 803.808 353.448 790.308 365.948Z" fill="url(#paint29_linear)"/>
<path d="M827.794 460.661C819.308 462.331 815.358 442.447 802.308 456.947C797.704 462.063 786.979 475.878 786.979 475.878L808.257 515.69C808.257 515.69 834.081 518.982 840.029 511.089C846.971 501.877 836.038 496.678 838.535 488.314C841.709 477.679 878.766 483.959 883.821 475.668C886.81 470.765 882.777 472.404 883.849 462.331C884.592 455.353 925.472 432.11 911.715 418.784C899.959 407.395 881.308 430.522 874.808 431.447C868.308 432.373 864.403 417.205 854.105 422.532C843.808 427.859 836.28 458.991 827.794 460.661Z" fill="#FFE2E4"/>
<path d="M827.794 460.661C819.308 462.331 815.358 442.447 802.308 456.947C797.704 462.063 786.979 475.878 786.979 475.878L808.257 515.69C808.257 515.69 834.081 518.982 840.029 511.089C846.971 501.877 836.038 496.678 838.535 488.314C841.709 477.679 878.766 483.959 883.821 475.668C886.81 470.765 882.777 472.404 883.849 462.331C884.592 455.353 925.472 432.11 911.715 418.784C899.959 407.395 881.308 430.522 874.808 431.447C868.308 432.373 864.403 417.205 854.105 422.532C843.808 427.859 836.28 458.991 827.794 460.661Z" fill="url(#paint30_linear)"/>
<rect x="627.808" y="251.947" width="156" height="231" rx="7" fill="url(#paint31_linear)"/>
<rect x="737.808" y="400.947" width="32" height="4" fill="#A3B7E9"/>
<rect x="737.808" y="400.947" width="32" height="4" fill="url(#paint32_linear)"/>
<rect x="737.808" y="408.947" width="32" height="4" fill="#A3B7E9"/>
<rect x="737.808" y="408.947" width="32" height="4" fill="url(#paint33_linear)"/>
<rect x="632.808" y="427.947" width="137" height="3.84" fill="#AEBFEC"/>
<rect x="632.808" y="427.947" width="137" height="3.84" fill="url(#paint34_linear)"/>
<rect x="632.808" y="438.507" width="137" height="3.84" fill="#AEBFEC"/>
<rect x="632.808" y="438.507" width="137" height="3.84" fill="url(#paint35_linear)"/>
<rect x="632.808" y="448.107" width="137" height="3.84" fill="#AEBFEC"/>
<rect x="632.808" y="448.107" width="137" height="3.84" fill="url(#paint36_linear)"/>
<rect x="666.808" y="400.947" width="32" height="4" fill="#AEBFEC"/>
<rect x="666.808" y="400.947" width="32" height="4" fill="url(#paint37_linear)"/>
<rect x="666.808" y="408.947" width="32" height="4" fill="#AEBFEC"/>
<rect x="666.808" y="408.947" width="32" height="4" fill="url(#paint38_linear)"/>
<circle cx="652.308" cy="405.447" r="7.5" fill="#FFE2E4"/>
<circle cx="652.308" cy="405.447" r="7.5" fill="url(#paint39_linear)" fill-opacity="0.2"/>
<path d="M730.486 399.947H719.131C717.84 399.947 716.808 400.989 716.808 402.291V409.843C716.808 411.119 717.84 412.187 719.131 412.187H722.331L724.808 414.947L727.286 412.187H730.486C731.75 412.187 732.808 411.119 732.808 409.843V402.291C732.808 400.989 731.75 399.947 730.486 399.947Z" fill="url(#paint40_linear)"/>
<rect x="678.808" y="267.947" width="46" height="5" fill="#AEBFEC"/>
<rect x="678.808" y="267.947" width="46" height="5" fill="url(#paint41_linear)"/>
<circle cx="659.808" cy="275.947" r="12" fill="#FFE2E4"/>
<circle cx="659.808" cy="275.947" r="12" fill="url(#paint42_linear)" fill-opacity="0.2"/>
<rect x="678.808" y="277.947" width="80" height="5" fill="#AEBFEC"/>
<rect x="678.808" y="277.947" width="80" height="5" fill="url(#paint43_linear)"/>
<mask id="mask0" mask-type="alpha" maskUnits="userSpaceOnUse" x="647" y="297" width="123" height="91">
<rect x="647.808" y="297.947" width="122" height="90" fill="#AEBFEC"/>
<rect x="647.808" y="297.947" width="122" height="90" fill="url(#paint44_linear)"/>
</mask>
<g mask="url(#mask0)">
<rect x="644.808" y="297.947" width="125" height="90" fill="#AEBFEC"/>
<rect x="644.808" y="297.947" width="125" height="90" fill="url(#paint45_linear)"/>
<path d="M690.029 332.488L727.798 388.351H652.26L690.029 332.488Z" fill="url(#paint46_linear)"/>
<path d="M733.151 347.189L761.584 389.086H704.718L733.151 347.189Z" fill="url(#paint47_linear)"/>
<circle cx="744.678" cy="318.121" r="7.65217" fill="#FAE0E4"/>
</g>
<rect x="594.808" y="465.947" width="234" height="162.342" rx="10" fill="url(#paint48_linear)"/>
<rect x="614" y="561.688" width="195" height="12.4879" fill="white"/>
<rect x="614" y="561.688" width="195" height="12.4879" fill="url(#paint49_linear)"/>
<rect x="614" y="591.867" width="50" height="11.4472" fill="white"/>
<rect x="614" y="591.867" width="50" height="11.4472" fill="url(#paint50_linear)"/>
<rect x="687" y="592" width="50" height="11.4472" fill="white"/>
<rect x="687" y="592" width="50" height="11.4472" fill="url(#paint51_linear)"/>
<rect x="759" y="592" width="50" height="11.4472" fill="white"/>
<rect x="759" y="592" width="50" height="11.4472" fill="url(#paint52_linear)"/>
<rect x="594.808" y="496.126" width="234" height="37.4636" fill="#4960C5"/>
<path d="M475.296 615.947C473.839 615.947 472.386 615.65 471.005 615.06C465.977 612.908 460.892 610.798 455.774 608.678C408.719 589.172 355.394 567.068 323.245 497.641C290.475 426.939 287.808 326.603 287.808 212.335C287.808 206.48 291.254 201.32 296.291 199.62L471.831 140.517C474.092 139.757 476.501 139.757 478.756 140.517L654.325 199.614C659.367 201.31 662.808 206.474 662.808 212.33C662.808 326.598 660.141 426.939 627.367 497.641C595.208 567.089 541.845 589.194 494.771 608.694C489.672 610.809 484.596 612.913 479.583 615.055C478.207 615.65 476.754 615.947 475.296 615.947ZM311.713 222.186C311.876 328.819 315.073 422.008 344.488 485.473C372.402 545.754 419.015 565.084 464.097 583.779C464.106 583.783 464.114 583.786 464.123 583.79C467.865 585.341 471.592 586.887 475.296 588.45C478.986 586.893 482.704 585.352 486.432 583.811C486.436 583.809 486.441 583.807 486.446 583.805C531.556 565.114 578.202 545.786 606.128 485.478C635.548 422.019 638.746 328.824 638.908 222.186L475.296 167.111L311.713 222.186Z" fill="#A3B7E9"/>
<path d="M475.296 615.947C473.839 615.947 472.386 615.65 471.005 615.06C465.977 612.908 460.892 610.798 455.774 608.678C408.719 589.172 355.394 567.068 323.245 497.641C290.475 426.939 287.808 326.603 287.808 212.335C287.808 206.48 291.254 201.32 296.291 199.62L471.831 140.517C474.092 139.757 476.501 139.757 478.756 140.517L654.325 199.614C659.367 201.31 662.808 206.474 662.808 212.33C662.808 326.598 660.141 426.939 627.367 497.641C595.208 567.089 541.845 589.194 494.771 608.694C489.672 610.809 484.596 612.913 479.583 615.055C478.207 615.65 476.754 615.947 475.296 615.947ZM311.713 222.186C311.876 328.819 315.073 422.008 344.488 485.473C372.402 545.754 419.015 565.084 464.097 583.779C464.106 583.783 464.114 583.786 464.123 583.79C467.865 585.341 471.592 586.887 475.296 588.45C478.986 586.893 482.704 585.352 486.432 583.811C486.436 583.809 486.441 583.807 486.446 583.805C531.556 565.114 578.202 545.786 606.128 485.478C635.548 422.019 638.746 328.824 638.908 222.186L475.296 167.111L311.713 222.186Z" fill="url(#paint53_linear)"/>
<path d="M311.713 222.186C311.876 328.819 315.073 422.008 344.488 485.473C372.402 545.754 419.015 565.084 464.097 583.779L464.123 583.79C467.865 585.341 471.592 586.887 475.296 588.45C478.986 586.893 482.704 585.352 486.432 583.811L486.446 583.805C531.556 565.114 578.202 545.786 606.128 485.478C635.548 422.019 638.746 328.824 638.908 222.186L475.296 167.111L311.713 222.186Z" fill="#A3B7E9"/>
<path d="M311.713 222.186C311.876 328.819 315.073 422.008 344.488 485.473C372.402 545.754 419.015 565.084 464.097 583.779L464.123 583.79C467.865 585.341 471.592 586.887 475.296 588.45C478.986 586.893 482.704 585.352 486.432 583.811L486.446 583.805C531.556 565.114 578.202 545.786 606.128 485.478C635.548 422.019 638.746 328.824 638.908 222.186L475.296 167.111L311.713 222.186Z" fill="url(#paint54_linear)"/>
<path d="M475.429 571.382C474.242 571.382 473.059 571.14 471.934 570.661C467.841 568.911 463.701 567.197 459.533 565.474C421.221 549.62 377.804 531.655 351.628 475.228C324.947 417.765 322.776 336.218 322.776 243.346C322.776 238.587 325.581 234.394 329.682 233.012L472.607 184.976C474.448 184.359 476.409 184.359 478.246 184.976L621.194 233.008C625.299 234.385 628.101 238.583 628.101 243.342C628.101 336.213 625.93 417.765 599.244 475.228C573.061 531.672 529.612 549.638 491.285 565.487C487.133 567.206 483.001 568.916 478.919 570.656C477.798 571.14 476.615 571.382 475.429 571.382ZM342.239 251.353C342.371 338.018 344.975 413.758 368.924 465.339C391.652 514.333 429.604 530.043 466.31 545.237C466.317 545.24 466.324 545.243 466.331 545.246C469.378 546.507 472.413 547.763 475.429 549.033C478.432 547.768 481.46 546.515 484.495 545.263C484.499 545.261 484.503 545.26 484.507 545.258C521.235 530.067 559.215 514.358 581.952 465.343C605.906 413.766 608.509 338.023 608.641 251.353L475.429 206.591L342.239 251.353Z" fill="#5970CB"/>
<path d="M475.429 571.382C474.242 571.382 473.059 571.14 471.934 570.661C467.841 568.911 463.701 567.197 459.533 565.474C421.221 549.62 377.804 531.655 351.628 475.228C324.947 417.765 322.776 336.218 322.776 243.346C322.776 238.587 325.581 234.394 329.682 233.012L472.607 184.976C474.448 184.359 476.409 184.359 478.246 184.976L621.194 233.008C625.299 234.385 628.101 238.583 628.101 243.342C628.101 336.213 625.93 417.765 599.244 475.228C573.061 531.672 529.612 549.638 491.285 565.487C487.133 567.206 483.001 568.916 478.919 570.656C477.798 571.14 476.615 571.382 475.429 571.382ZM342.239 251.353C342.371 338.018 344.975 413.758 368.924 465.339C391.652 514.333 429.604 530.043 466.31 545.237C466.317 545.24 466.324 545.243 466.331 545.246C469.378 546.507 472.413 547.763 475.429 549.033C478.432 547.768 481.46 546.515 484.495 545.263C484.499 545.261 484.503 545.26 484.507 545.258C521.235 530.067 559.215 514.358 581.952 465.343C605.906 413.766 608.509 338.023 608.641 251.353L475.429 206.591L342.239 251.353Z" fill="url(#paint55_linear)"/>
<path d="M342.239 251.353C342.371 338.018 344.975 413.758 368.924 465.339C391.652 514.333 429.604 530.043 466.31 545.237L466.331 545.246C469.378 546.507 472.413 547.763 475.429 549.033C478.432 547.768 481.46 546.515 484.495 545.263L484.507 545.258C521.235 530.067 559.215 514.358 581.952 465.343C605.906 413.766 608.509 338.023 608.641 251.353L475.429 206.591L342.239 251.353Z" fill="#5970CB"/>
<path d="M342.239 251.353C342.371 338.018 344.975 413.758 368.924 465.339C391.652 514.333 429.604 530.043 466.31 545.237L466.331 545.246C469.378 546.507 472.413 547.763 475.429 549.033C478.432 547.768 481.46 546.515 484.495 545.263L484.507 545.258C521.235 530.067 559.215 514.358 581.952 465.343C605.906 413.766 608.509 338.023 608.641 251.353L475.429 206.591L342.239 251.353Z" fill="url(#paint56_linear)"/>
<g opacity="0.75">
<rect x="455.642" y="368.528" width="51.0911" height="54.3922" fill="#A6BAEA"/>
<path d="M521.008 346.004V330.621C521.008 307.134 500.672 287.947 475.778 287.947C450.883 287.947 430.547 307.134 430.547 330.621V346.004C418.275 346.996 408.808 356.59 408.808 368.499V422.42C408.808 434.991 419.502 445.08 432.826 445.08H518.905C532.228 445.08 542.922 434.991 542.922 422.42V368.499C542.922 356.59 533.28 346.996 521.008 346.004ZM486.296 415.142C486.647 416.796 485.42 418.285 483.667 418.285H467.713C465.96 418.285 464.733 416.796 465.084 415.142L470.343 395.625C465.96 393.805 462.805 389.67 462.805 384.708C462.805 378.092 468.59 372.634 475.602 372.634C482.615 372.634 488.4 378.092 488.4 384.708C488.4 389.505 485.245 393.64 480.862 395.625L486.296 415.142ZM498.042 345.838H453.513V330.787C453.513 319.208 463.506 309.781 475.778 309.781C488.05 309.781 498.042 319.208 498.042 330.787V345.838Z" fill="url(#paint57_linear)"/>
</g>
<path d="M476.074 20.0641C475.181 20.7239 468.413 26.0345 466.108 28.2829L456.613 28.5207C454.29 26.4744 447.44 21.6229 446.248 20.7763C445.699 20.4094 445.065 20.1878 444.407 20.1321C443.749 20.0765 443.087 20.1886 442.484 20.458L435.122 23.7597C434.516 24.0254 433.989 24.4412 433.589 24.9677C433.189 25.4942 432.93 26.114 432.837 26.7685C432.68 27.8617 431.663 36.3478 431.647 39.6517L425.112 46.5436C422.032 46.7268 413.773 48.1541 412.334 48.4411C411.679 48.5609 411.067 48.8468 410.554 49.2712C410.042 49.6957 409.648 50.2445 409.408 50.8652L406.52 58.3813C406.283 58.9986 406.206 59.6659 406.296 60.3209C406.387 60.976 406.641 61.5976 407.036 62.1279C407.696 63.0209 413.006 69.7886 415.255 72.0946L415.493 81.5895C413.446 83.9125 408.595 90.762 407.748 91.9537C407.381 92.5032 407.16 93.1366 407.104 93.7949C407.048 94.4533 407.161 95.1149 407.43 95.7182L410.732 103.081C410.997 103.686 411.413 104.213 411.94 104.613C412.466 105.013 413.086 105.272 413.74 105.365C414.834 105.522 423.32 106.539 426.624 106.555L433.516 113.09C433.699 116.17 435.126 124.429 435.413 125.869C435.533 126.523 435.819 127.135 436.243 127.648C436.668 128.16 437.216 128.554 437.837 128.794L445.342 131.678C445.96 131.915 446.627 131.992 447.282 131.902C447.937 131.811 448.559 131.557 449.089 131.162C449.982 130.502 456.75 125.191 459.056 122.943L468.551 122.705C470.874 124.752 477.723 129.603 478.915 130.45C479.464 130.817 480.098 131.038 480.756 131.094C481.414 131.149 482.076 131.037 482.679 130.768L490.029 127.499C490.634 127.233 491.162 126.818 491.562 126.291C491.961 125.765 492.22 125.145 492.314 124.49C492.471 123.397 493.487 114.911 493.503 111.607L500.039 104.715C503.118 104.532 511.378 103.105 512.817 102.818C513.479 102.699 514.098 102.41 514.615 101.981C515.132 101.551 515.528 100.994 515.766 100.365L518.65 92.8598C518.887 92.2425 518.964 91.5752 518.874 90.9202C518.783 90.2651 518.529 89.6435 518.134 89.1132C517.474 88.2202 512.163 81.4524 509.915 79.1465L509.677 69.6516C511.723 67.3286 516.575 60.4791 517.422 59.2874C517.789 58.7379 518.01 58.1044 518.066 57.4461C518.121 56.7878 518.009 56.1261 517.74 55.5229L514.471 48.1731C514.205 47.5678 513.789 47.0403 513.263 46.6405C512.736 46.2407 512.117 45.9818 511.462 45.8884C510.369 45.7316 501.883 44.7147 498.579 44.6987L491.687 38.1633C491.504 35.0838 490.077 26.8244 489.79 25.3851C489.671 24.7234 489.382 24.1039 488.952 23.5871C488.523 23.0702 487.966 22.6738 487.337 22.4364L479.821 19.548C479.204 19.3055 478.536 19.2257 477.88 19.316C477.224 19.4064 476.602 19.664 476.074 20.0641ZM486.37 84.7549C484.556 89.4614 481.388 93.5243 477.265 96.43C473.142 99.3356 468.25 100.953 463.208 101.079C458.166 101.204 453.199 99.8318 448.937 97.1348C444.675 94.4378 441.308 90.5375 439.263 85.9271C437.217 81.3166 436.585 76.2032 437.446 71.2333C438.306 66.2635 440.621 61.6605 444.098 58.0063C447.575 54.3522 452.057 51.8111 456.978 50.7043C461.899 49.5976 467.037 49.9749 471.744 51.7886C478.049 54.2283 483.129 59.0687 485.871 65.2485C488.613 71.4282 488.792 78.4431 486.37 84.7549Z" fill="#FFE2E4"/>
<path d="M476.074 20.0641C475.181 20.7239 468.413 26.0345 466.108 28.2829L456.613 28.5207C454.29 26.4744 447.44 21.6229 446.248 20.7763C445.699 20.4094 445.065 20.1878 444.407 20.1321C443.749 20.0765 443.087 20.1886 442.484 20.458L435.122 23.7597C434.516 24.0254 433.989 24.4412 433.589 24.9677C433.189 25.4942 432.93 26.114 432.837 26.7685C432.68 27.8617 431.663 36.3478 431.647 39.6517L425.112 46.5436C422.032 46.7268 413.773 48.1541 412.334 48.4411C411.679 48.5609 411.067 48.8468 410.554 49.2712C410.042 49.6957 409.648 50.2445 409.408 50.8652L406.52 58.3813C406.283 58.9986 406.206 59.6659 406.296 60.3209C406.387 60.976 406.641 61.5976 407.036 62.1279C407.696 63.0209 413.006 69.7886 415.255 72.0946L415.493 81.5895C413.446 83.9125 408.595 90.762 407.748 91.9537C407.381 92.5032 407.16 93.1366 407.104 93.7949C407.048 94.4533 407.161 95.1149 407.43 95.7182L410.732 103.081C410.997 103.686 411.413 104.213 411.94 104.613C412.466 105.013 413.086 105.272 413.74 105.365C414.834 105.522 423.32 106.539 426.624 106.555L433.516 113.09C433.699 116.17 435.126 124.429 435.413 125.869C435.533 126.523 435.819 127.135 436.243 127.648C436.668 128.16 437.216 128.554 437.837 128.794L445.342 131.678C445.96 131.915 446.627 131.992 447.282 131.902C447.937 131.811 448.559 131.557 449.089 131.162C449.982 130.502 456.75 125.191 459.056 122.943L468.551 122.705C470.874 124.752 477.723 129.603 478.915 130.45C479.464 130.817 480.098 131.038 480.756 131.094C481.414 131.149 482.076 131.037 482.679 130.768L490.029 127.499C490.634 127.233 491.162 126.818 491.562 126.291C491.961 125.765 492.22 125.145 492.314 124.49C492.471 123.397 493.487 114.911 493.503 111.607L500.039 104.715C503.118 104.532 511.378 103.105 512.817 102.818C513.479 102.699 514.098 102.41 514.615 101.981C515.132 101.551 515.528 100.994 515.766 100.365L518.65 92.8598C518.887 92.2425 518.964 91.5752 518.874 90.9202C518.783 90.2651 518.529 89.6435 518.134 89.1132C517.474 88.2202 512.163 81.4524 509.915 79.1465L509.677 69.6516C511.723 67.3286 516.575 60.4791 517.422 59.2874C517.789 58.7379 518.01 58.1044 518.066 57.4461C518.121 56.7878 518.009 56.1261 517.74 55.5229L514.471 48.1731C514.205 47.5678 513.789 47.0403 513.263 46.6405C512.736 46.2407 512.117 45.9818 511.462 45.8884C510.369 45.7316 501.883 44.7147 498.579 44.6987L491.687 38.1633C491.504 35.0838 490.077 26.8244 489.79 25.3851C489.671 24.7234 489.382 24.1039 488.952 23.5871C488.523 23.0702 487.966 22.6738 487.337 22.4364L479.821 19.548C479.204 19.3055 478.536 19.2257 477.88 19.316C477.224 19.4064 476.602 19.664 476.074 20.0641ZM486.37 84.7549C484.556 89.4614 481.388 93.5243 477.265 96.43C473.142 99.3356 468.25 100.953 463.208 101.079C458.166 101.204 453.199 99.8318 448.937 97.1348C444.675 94.4378 441.308 90.5375 439.263 85.9271C437.217 81.3166 436.585 76.2032 437.446 71.2333C438.306 66.2635 440.621 61.6605 444.098 58.0063C447.575 54.3522 452.057 51.8111 456.978 50.7043C461.899 49.5976 467.037 49.9749 471.744 51.7886C478.049 54.2283 483.129 59.0687 485.871 65.2485C488.613 71.4282 488.792 78.4431 486.37 84.7549Z" fill="url(#paint58_linear)"/>
<path d="M548.355 99.4023C547.981 99.5487 545.115 100.766 544.097 101.334L540.757 100.522C540.138 99.5879 538.202 97.2466 537.865 96.8383C537.708 96.6583 537.507 96.5212 537.283 96.4396C537.058 96.3581 536.816 96.3349 536.58 96.3721L533.696 96.8315C533.459 96.8673 533.236 96.9628 533.046 97.1091C532.857 97.2554 532.708 97.4476 532.614 97.6674C532.456 98.0347 531.3 100.904 530.983 102.057L528.049 103.849C526.956 103.623 523.935 103.343 523.405 103.307C523.165 103.287 522.924 103.329 522.705 103.429C522.486 103.529 522.296 103.684 522.154 103.878L520.436 106.232C520.295 106.426 520.205 106.652 520.175 106.889C520.145 107.126 520.175 107.368 520.263 107.59C520.409 107.965 521.627 110.83 522.195 111.848L521.383 115.188C520.449 115.807 518.107 117.743 517.699 118.08C517.519 118.237 517.382 118.438 517.3 118.662C517.219 118.887 517.196 119.129 517.233 119.365L517.692 122.249C517.728 122.486 517.824 122.709 517.97 122.899C518.116 123.088 518.308 123.237 518.528 123.331C518.895 123.489 521.765 124.645 522.918 124.962L524.71 127.896C524.483 128.989 524.203 132.01 524.168 132.54C524.148 132.78 524.19 133.021 524.29 133.24C524.39 133.459 524.545 133.649 524.739 133.791L527.09 135.507C527.283 135.648 527.509 135.737 527.746 135.768C527.984 135.798 528.225 135.768 528.447 135.68C528.822 135.533 531.688 134.316 532.705 133.748L536.046 134.56C536.665 135.494 538.6 137.835 538.937 138.244C539.094 138.424 539.295 138.561 539.52 138.642C539.744 138.724 539.986 138.747 540.222 138.71L543.099 138.261C543.336 138.225 543.559 138.129 543.749 137.983C543.938 137.837 544.087 137.645 544.181 137.425C544.339 137.057 545.495 134.188 545.812 133.035L548.746 131.243C549.839 131.469 552.86 131.75 553.39 131.785C553.632 131.806 553.876 131.764 554.097 131.662C554.318 131.561 554.509 131.403 554.652 131.206L556.367 128.855C556.508 128.662 556.598 128.436 556.628 128.199C556.659 127.961 556.628 127.72 556.54 127.498C556.394 127.123 555.176 124.258 554.608 123.24L555.421 119.899C556.355 119.281 558.696 117.345 559.104 117.008C559.284 116.851 559.421 116.65 559.503 116.425C559.584 116.201 559.608 115.959 559.57 115.723L559.121 112.846C559.086 112.609 558.99 112.386 558.844 112.196C558.697 112.007 558.505 111.858 558.285 111.764C557.918 111.606 555.049 110.45 553.896 110.133L552.104 107.199C552.33 106.106 552.61 103.085 552.646 102.555C552.667 102.313 552.624 102.069 552.523 101.848C552.421 101.627 552.264 101.436 552.067 101.294L549.713 99.5753C549.52 99.4325 549.294 99.3415 549.056 99.3112C548.819 99.2809 548.577 99.3123 548.355 99.4023ZM545.852 122.979C544.774 124.453 543.284 125.573 541.569 126.2C539.854 126.827 537.992 126.931 536.218 126.499C534.445 126.067 532.839 125.119 531.604 123.775C530.369 122.43 529.56 120.75 529.28 118.946C529 117.142 529.261 115.295 530.031 113.64C530.8 111.984 532.043 110.594 533.603 109.645C535.162 108.696 536.968 108.231 538.792 108.308C540.616 108.386 542.376 109.002 543.85 110.08C545.823 111.527 547.142 113.698 547.517 116.116C547.892 118.534 547.293 121.002 545.852 122.979Z" fill="#FFE2E4"/>
<path d="M548.355 99.4023C547.981 99.5487 545.115 100.766 544.097 101.334L540.757 100.522C540.138 99.5879 538.202 97.2466 537.865 96.8383C537.708 96.6583 537.507 96.5212 537.283 96.4396C537.058 96.3581 536.816 96.3349 536.58 96.3721L533.696 96.8315C533.459 96.8673 533.236 96.9628 533.046 97.1091C532.857 97.2554 532.708 97.4476 532.614 97.6674C532.456 98.0347 531.3 100.904 530.983 102.057L528.049 103.849C526.956 103.623 523.935 103.343 523.405 103.307C523.165 103.287 522.924 103.329 522.705 103.429C522.486 103.529 522.296 103.684 522.154 103.878L520.436 106.232C520.295 106.426 520.205 106.652 520.175 106.889C520.145 107.126 520.175 107.368 520.263 107.59C520.409 107.965 521.627 110.83 522.195 111.848L521.383 115.188C520.449 115.807 518.107 117.743 517.699 118.08C517.519 118.237 517.382 118.438 517.3 118.662C517.219 118.887 517.196 119.129 517.233 119.365L517.692 122.249C517.728 122.486 517.824 122.709 517.97 122.899C518.116 123.088 518.308 123.237 518.528 123.331C518.895 123.489 521.765 124.645 522.918 124.962L524.71 127.896C524.483 128.989 524.203 132.01 524.168 132.54C524.148 132.78 524.19 133.021 524.29 133.24C524.39 133.459 524.545 133.649 524.739 133.791L527.09 135.507C527.283 135.648 527.509 135.737 527.746 135.768C527.984 135.798 528.225 135.768 528.447 135.68C528.822 135.533 531.688 134.316 532.705 133.748L536.046 134.56C536.665 135.494 538.6 137.835 538.937 138.244C539.094 138.424 539.295 138.561 539.52 138.642C539.744 138.724 539.986 138.747 540.222 138.71L543.099 138.261C543.336 138.225 543.559 138.129 543.749 137.983C543.938 137.837 544.087 137.645 544.181 137.425C544.339 137.057 545.495 134.188 545.812 133.035L548.746 131.243C549.839 131.469 552.86 131.75 553.39 131.785C553.632 131.806 553.876 131.764 554.097 131.662C554.318 131.561 554.509 131.403 554.652 131.206L556.367 128.855C556.508 128.662 556.598 128.436 556.628 128.199C556.659 127.961 556.628 127.72 556.54 127.498C556.394 127.123 555.176 124.258 554.608 123.24L555.421 119.899C556.355 119.281 558.696 117.345 559.104 117.008C559.284 116.851 559.421 116.65 559.503 116.425C559.584 116.201 559.608 115.959 559.57 115.723L559.121 112.846C559.086 112.609 558.99 112.386 558.844 112.196C558.697 112.007 558.505 111.858 558.285 111.764C557.918 111.606 555.049 110.45 553.896 110.133L552.104 107.199C552.33 106.106 552.61 103.085 552.646 102.555C552.667 102.313 552.624 102.069 552.523 101.848C552.421 101.627 552.264 101.436 552.067 101.294L549.713 99.5753C549.52 99.4325 549.294 99.3415 549.056 99.3112C548.819 99.2809 548.577 99.3123 548.355 99.4023ZM545.852 122.979C544.774 124.453 543.284 125.573 541.569 126.2C539.854 126.827 537.992 126.931 536.218 126.499C534.445 126.067 532.839 125.119 531.604 123.775C530.369 122.43 529.56 120.75 529.28 118.946C529 117.142 529.261 115.295 530.031 113.64C530.8 111.984 532.043 110.594 533.603 109.645C535.162 108.696 536.968 108.231 538.792 108.308C540.616 108.386 542.376 109.002 543.85 110.08C545.823 111.527 547.142 113.698 547.517 116.116C547.892 118.534 547.293 121.002 545.852 122.979Z" fill="url(#paint59_linear)"/>
<g filter="url(#filter0_d)">
<rect x="181.808" y="396.947" width="148" height="251" rx="15" fill="url(#paint60_linear)"/>
<rect x="215.586" y="434.832" width="78.8889" height="5.10508" fill="url(#paint61_linear)"/>
<rect x="202.808" y="414.412" width="105" height="13.6136" fill="url(#paint62_linear)"/>
<ellipse cx="253.184" cy="528.947" rx="52.4823" ry="64" fill="white"/>
<path d="M229.889 483.822C236.443 480.947 244.11 479.489 252.676 479.489C261.185 479.489 268.852 480.947 275.473 483.826C275.791 483.967 276.129 484.031 276.457 484.031C277.361 484.031 278.226 483.536 278.626 482.7C279.168 481.56 278.64 480.211 277.446 479.693C270.203 476.546 261.87 474.947 252.676 474.947C243.416 474.947 235.078 476.546 227.901 479.698C226.712 480.22 226.189 481.569 226.736 482.709C227.287 483.844 228.691 484.344 229.889 483.822Z" fill="#A5B9E9"/>
<path d="M221.076 501.525C229.842 493.051 240.762 488.572 252.667 488.572C264.619 488.572 275.553 493.051 284.276 501.521C284.742 501.97 285.356 502.197 285.969 502.197C286.569 502.197 287.173 501.979 287.639 501.543C288.576 500.662 288.59 499.227 287.667 498.332C278.027 488.977 265.922 484.031 252.667 484.031C239.463 484.031 227.368 488.977 217.694 498.328C216.771 499.223 216.781 500.662 217.713 501.543C218.65 502.425 220.153 502.411 221.076 501.525Z" fill="#A5B9E9"/>
<path d="M252.667 493.114C249.275 493.114 245.908 493.513 242.655 494.304C241.38 494.613 240.61 495.848 240.933 497.065C241.256 498.282 242.56 499.009 243.825 498.705C246.693 498.01 249.67 497.655 252.667 497.655C272.338 497.655 288.338 512.934 288.338 531.718C288.338 532.971 289.403 533.989 290.716 533.989C292.029 533.989 293.094 532.971 293.094 531.718C293.094 510.431 274.959 493.114 252.667 493.114Z" fill="#A5B9E9"/>
<path d="M217.005 531.755C217.157 522.58 220.838 514.056 227.378 507.743C229.604 505.59 232.091 503.746 234.769 502.252C235.901 501.621 236.281 500.231 235.62 499.145C234.964 498.069 233.513 497.701 232.367 498.332C229.333 500.026 226.512 502.12 223.996 504.555C216.591 511.703 212.42 521.336 212.248 531.686C212.229 532.94 213.276 533.971 214.593 533.989C214.603 533.989 214.617 533.989 214.631 533.989C215.925 533.989 216.985 532.999 217.005 531.755Z" fill="#A5B9E9"/>
<path d="M226.512 532.277C226.512 525.323 229.218 518.883 234.141 514.133C239.078 509.364 245.651 506.739 252.667 506.739C260.215 506.739 267.406 509.868 272.386 515.327C273.247 516.272 274.754 516.367 275.744 515.545C276.733 514.719 276.833 513.283 275.972 512.339C270.084 505.894 261.589 502.197 252.667 502.197C244.372 502.197 236.595 505.304 230.764 510.94C224.952 516.544 221.756 524.124 221.756 532.395C221.77 537.282 220.172 543.14 217.309 548.768L215.972 551.038C215.33 552.133 215.735 553.514 216.881 554.131C217.252 554.331 217.651 554.426 218.046 554.426C218.878 554.426 219.687 554.009 220.12 553.268L221.523 550.879C224.809 544.421 226.531 538.026 226.512 532.277Z" fill="#A5B9E9"/>
<path d="M285.323 549.517C283.815 542.945 283.687 536.673 283.606 532.921L283.582 531.718C283.582 528.352 282.987 525.046 281.817 521.89C281.38 520.709 280.034 520.091 278.783 520.509C277.546 520.927 276.899 522.221 277.337 523.407C278.326 526.073 278.826 528.87 278.826 531.777L278.854 533.012C278.94 536.927 279.073 543.481 280.728 550.661L283.449 559.218C283.758 560.199 284.704 560.825 285.727 560.825C285.955 560.825 286.188 560.794 286.421 560.73C287.677 560.362 288.386 559.1 288.005 557.896L285.323 549.517Z" fill="#A5B9E9"/>
<path d="M278.854 561.625C274.93 549.926 274.198 536.773 274.069 531.718C274.069 520.45 264.467 511.281 252.667 511.281C240.866 511.281 231.268 520.591 231.268 532.113C231.278 534.502 230.817 547.124 220.771 560.958C220.02 561.988 220.291 563.405 221.366 564.119C222.441 564.832 223.93 564.577 224.676 563.551C235.264 548.977 236.039 535.792 236.025 532.041C236.025 523.098 243.492 515.827 252.667 515.827C261.846 515.827 269.313 522.957 269.313 531.777C269.485 538.372 270.364 551.197 274.322 563.001L276.519 569.737C276.838 570.708 277.775 571.331 278.792 571.331C279.025 571.331 279.263 571.299 279.501 571.231C280.757 570.854 281.456 569.582 281.066 568.388L278.854 561.625Z" fill="#A5B9E9"/>
<path d="M264.557 531.718C264.557 525.46 259.221 520.364 252.667 520.364C246.113 520.364 240.776 525.46 240.776 531.804C240.805 532.554 241.333 550.393 226.227 569.164C225.428 570.159 225.623 571.585 226.664 572.348C227.711 573.115 229.199 572.92 229.999 571.93C246.136 551.874 245.556 532.449 245.528 531.718C245.528 527.962 248.728 524.905 252.662 524.905C256.595 524.905 259.796 527.962 259.801 531.768C259.867 534.311 259.882 557.256 241.314 580.291C240.514 581.286 240.705 582.712 241.746 583.475C242.184 583.793 242.693 583.947 243.197 583.947C243.91 583.947 244.614 583.643 245.08 583.061C264.681 558.754 264.624 534.366 264.557 531.718Z" fill="#A5B9E9"/>
<path d="M251.506 543.036C251.634 543.054 251.763 543.063 251.887 543.063C253.033 543.063 254.046 542.269 254.231 541.156C255.202 535.392 255.045 531.768 255.035 531.618C254.973 530.369 253.946 529.375 252.557 529.452C251.249 529.506 250.231 530.565 250.284 531.818C250.284 531.85 250.417 535.174 249.532 540.429C249.328 541.669 250.212 542.836 251.506 543.036Z" fill="#A5B9E9"/>
<path d="M250.369 547.773C249.104 547.414 247.787 548.104 247.411 549.303C244.438 558.891 239.492 567.856 232.719 575.958C231.901 576.939 232.067 578.365 233.095 579.151C233.532 579.487 234.055 579.646 234.579 579.646C235.278 579.646 235.967 579.355 236.438 578.792C243.596 570.236 248.824 560.748 251.977 550.598C252.348 549.394 251.63 548.127 250.369 547.773Z" fill="#A5B9E9"/>
<path d="M270.55 566.285C269.408 563.024 268.343 559.577 268.338 559.563C268.053 558.641 267.197 557.992 266.193 557.937C265.166 557.869 264.257 558.432 263.867 559.318C263.815 559.436 258.517 571.331 252.443 580.459C251.739 581.518 252.067 582.921 253.175 583.593C253.57 583.834 254.013 583.947 254.45 583.947C255.24 583.947 256.005 583.575 256.457 582.894C260.134 577.366 263.473 571.013 265.651 566.594C265.775 566.957 265.903 567.325 266.031 567.688L268.88 576.345C269.275 577.539 270.597 578.211 271.863 577.83C273.113 577.453 273.813 576.181 273.418 574.982L270.55 566.285Z" fill="#A5B9E9"/>
</g>
<path d="M364.808 659.947L360.308 644.947L365.808 642.947L368.308 658.947C368.308 658.947 367.768 659.767 366.808 659.947C365.95 660.108 364.808 659.947 364.808 659.947Z" fill="#EFBC90"/>
<path d="M314.91 649.641L323.41 637.641L327.41 642.141L317.91 651.641C317.91 651.641 316.6 651.831 315.91 651.141C315.41 650.641 314.91 649.641 314.91 649.641Z" fill="#EFBC90"/>
<path d="M317.308 651.447C315.513 651.309 315.808 648.465 314.808 648.447C314.099 648.435 310.304 651.068 311.308 651.947C315.308 655.447 320.955 661.378 323.308 662.947C324.808 663.947 325.388 662.106 324.808 660.947C324.308 659.947 320.308 650.947 319.308 650.947C318.308 650.947 318.111 651.509 317.308 651.447Z" fill="#03053E"/>
<path d="M368.308 644.447L359.308 574.447L344.308 575.447L348.308 613.447L355.808 646.947L368.308 644.447Z" fill="#2E44B6"/>
<path d="M318.808 637.947L327.45 645.947C327.45 645.947 344.659 630.926 346.734 621.437C348.808 611.947 351.808 573.947 351.808 573.947L333.808 575.947C333.808 575.947 333.308 610.447 332.017 616.33C330.726 622.213 318.808 637.947 318.808 637.947Z" fill="#263CB1"/>
<path d="M358.808 521.447C357.582 525.555 356.705 528.332 353.308 530.947C344.42 537.792 338.308 506.447 338.308 506.447L352.808 497.447L355.808 499.447C355.808 499.447 358.096 504.5 358.808 507.947C359.875 513.11 360.316 516.395 358.808 521.447Z" fill="#03053E"/>
<path d="M349.408 518.987L350.808 528.447C350.808 528.447 349.175 528.225 347.308 527.947C345.442 527.67 343.808 526.784 343.808 526.784L347.075 517.947L349.408 518.987Z" fill="#EFBC90"/>
<path d="M348.308 527.948C346.71 527.754 344.308 526.948 344.308 526.948C344.308 526.948 339.808 525.448 337.308 529.948C334.808 534.447 328.808 574.448 328.808 574.448C333.298 574.539 340.308 577.461 352.308 575.948C361.308 574.812 363.808 571.948 363.808 571.948C363.808 571.948 358.559 559.05 356.308 550.448C354.049 541.814 351.808 527.948 351.808 527.948C351.808 527.948 349.859 528.135 348.308 527.948Z" fill="url(#paint63_linear)"/>
<path d="M387.308 551.948C386.308 552.448 376.308 554.448 376.308 554.448L377.808 559.448C377.808 559.448 384.08 556.846 388.308 555.948C391.199 555.334 393.426 556.695 395.808 554.948C397.511 553.698 399.496 551.824 398.808 550.448C398.308 549.448 396.604 549.605 395.308 549.948C393.817 550.342 392.345 551.215 392.308 550.948C392.2 550.15 394.262 549.112 393.808 548.448C393.736 548.342 391.808 548.948 390.808 549.448C389.246 550.229 388.87 551.167 387.308 551.948Z" fill="#EFBC90"/>
<path d="M379.808 566.447L376.308 552.947C376.308 552.947 372.374 554.062 369.808 553.947C366.808 553.813 364.568 553.03 358.808 546.447C355.308 542.447 351.808 528.447 351.808 528.447C351.808 528.447 348.883 555.073 360.308 562.947C361.964 564.088 362.954 564.672 364.808 565.447C370.225 567.712 379.808 566.447 379.808 566.447Z" fill="url(#paint64_linear)" fill-opacity="0.95"/>
<path d="M348.808 537.447C349.308 533.947 347.741 531.026 345.308 530.447C343.325 529.975 341.808 530.447 340.308 531.947C338.808 533.447 331.808 547.947 331.808 547.947L338.808 562.947C338.808 562.947 348.308 540.947 348.808 537.447Z" fill="url(#paint65_linear)"/>
<path d="M330.308 587.447C330.793 585.447 329.808 575.947 329.808 575.947H335.308L334.308 588.947L334.808 592.447C334.808 592.447 334.808 596.651 334.308 596.447C333.165 595.981 333.861 594.552 333.308 593.447C332.808 592.447 332.308 600.447 330.308 599.947C327.781 599.315 327.797 594.002 328.308 591.447C328.808 588.947 329.945 588.947 330.308 587.447Z" fill="#EFBC90"/>
<path d="M353.808 519.947C351.276 520.559 347.308 518.447 347.308 518.447C347.308 518.447 344.808 511.947 344.308 511.447C343.811 510.949 343.308 510.151 343.308 509.447C343.308 508.743 343.604 507.947 344.308 507.947C344.808 507.947 347.016 509.86 350.808 507.447C356.308 503.947 356.308 501.447 356.308 501.447C356.308 501.447 358.308 506.947 358.308 508.947C358.308 510.947 358.61 518.788 353.808 519.947Z" fill="#F4CAAB"/>
<path d="M340.808 576.447L327.808 577.947C327.808 577.947 327.987 568.457 328.808 562.447C329.592 556.718 331.808 547.947 331.808 547.947L338.808 562.947L340.808 576.447Z" fill="url(#paint66_linear)"/>
<path d="M341.808 497.447C352.308 492.447 354.808 497.947 355.808 499.947C357.021 502.374 354.458 504.794 352.308 506.447C345.808 511.447 343.784 505.734 343.308 509.447C343.128 510.857 344.657 511.199 345.308 512.447C347.403 516.463 348.356 520.408 346.308 524.447C344.666 527.687 342.264 526.758 340.308 529.447C336.308 534.947 338.627 543.759 331.808 545.947C325.801 547.876 318.075 546.004 316.308 539.947C312.808 527.947 328.308 528.947 332.808 523.947C337.308 518.947 331.308 502.447 341.808 497.447Z" fill="#03053E"/>
<path d="M363.308 659.947C363.464 659.539 363.808 658.947 363.808 658.947C363.808 658.947 365.913 660.176 367.308 659.447C368.043 659.064 368.808 657.447 368.808 657.447C368.808 657.447 376.259 660.947 378.808 660.947C380.308 660.947 380.507 661.811 380.808 662.447C381.059 662.977 381.332 663.685 380.808 663.947C379.808 664.447 365.308 664.447 363.308 663.947C362.622 663.776 362.752 661.407 363.308 659.947Z" fill="#03053E"/>
<path d="M575.308 195.947L568.808 193.447L567.808 197.947L574.808 199.447C574.808 199.447 575.808 198.321 575.808 197.447C575.808 196.83 575.308 195.947 575.308 195.947Z" fill="#EFBC90"/>
<path d="M522.368 225.142L525.808 216.947L521.308 214.947L519.026 223.913C519.026 223.913 519.919 225.384 520.78 225.53C521.389 225.634 522.368 225.142 522.368 225.142Z" fill="#EFBC90"/>
<path d="M574.808 197.947C575.143 196.608 574.026 195.46 575.308 194.947C577.808 193.947 581.783 193.834 581.308 196.447C580.308 201.947 579.808 202.947 576.808 215.947C576.53 217.15 574.808 217.947 573.308 216.447C571.808 214.947 573.308 207.447 571.808 200.447C571.456 198.805 574.308 199.947 574.808 197.947Z" fill="#03053E"/>
<path d="M521.164 224.919C522.542 224.845 523.311 223.44 524.178 224.514C525.869 226.609 527.147 230.375 524.51 230.69C518.959 231.352 517.856 231.169 504.549 232.127C503.317 232.215 502.049 230.804 503.041 228.929C504.034 227.054 511.643 226.281 517.892 222.787C519.358 221.968 519.105 225.03 521.164 224.919Z" fill="#03053E"/>
<path d="M519.808 216.447C519.808 216.447 521.308 182.447 528.308 177.447C535.308 172.447 562.808 167.447 566.308 164.947C569.808 162.447 571.308 160.447 571.308 160.447L576.308 178.447C576.308 178.447 535.397 190.736 535.308 191.447C534.808 195.447 526.308 218.447 526.308 218.447L519.808 216.447Z" fill="url(#paint67_linear)"/>
<path d="M591.308 180.947C597.308 175.447 596.308 167.947 596.308 167.947C596.308 167.947 576.927 165.832 564.808 167.947C549.627 170.597 531.308 174.947 528.308 182.947C524.664 192.665 567.808 199.447 567.808 199.447L569.308 192.947L550.808 186.447C550.808 186.447 583.191 188.388 591.308 180.947Z" fill="url(#paint68_linear)"/>
<path d="M556.808 158.447V153.447C556.808 153.447 550.808 153.947 549.808 153.947C548.808 153.947 548.128 152.939 546.808 152.447C544.796 151.697 542.808 151.73 541.308 152.447C540.263 152.947 537.808 154.447 538.308 155.947C538.808 157.447 544.308 154.268 544.308 155.947C544.308 157.086 541.808 156.309 541.808 157.447C541.808 157.947 546.059 158.322 546.808 157.947C547.558 157.573 547.808 157.947 549.308 157.947C550.808 157.947 556.808 158.947 556.808 158.447Z" fill="#EFBC90"/>
<path d="M556.808 159.447L556.308 152.947C556.308 152.947 561.838 152.741 563.308 152.447C565.808 151.947 569.308 148.947 569.308 148.947C569.308 148.947 568.478 155.445 565.808 157.447C563.808 158.947 556.808 159.447 556.808 159.447Z" fill="url(#paint69_linear)"/>
<path d="M578.808 106.447L577.808 115.947L585.808 113.447L583.808 100.447L578.808 106.447Z" fill="#EFBC90"/>
<path d="M574.308 107.447C568.314 106.584 568.808 92.9472 568.808 92.9472C568.808 92.9472 574.483 91.3514 576.808 93.4472C577.978 94.5012 577.308 96.4471 578.808 96.9472C580.308 97.4472 580.808 94.4472 581.808 94.4472C582.808 94.4472 583.808 96.4709 583.808 97.4472C583.808 98.814 583.75 101.122 583.308 102.447C582.808 103.947 578.551 108.058 574.308 107.447Z" fill="#F4CAAB"/>
<path d="M568.808 84.9473C566.947 87.7233 567.355 93.4473 568.308 93.4473C570.808 93.4473 571.103 92.1396 573.308 92.4473C574.781 92.6528 575.689 92.4682 576.808 93.4473C577.993 94.4838 577.29 96.5331 578.808 96.9473C580.327 97.3615 580.998 94.0741 582.308 94.9473C583.035 95.4317 583.032 96.1189 583.308 96.9473C583.926 98.7997 583.308 101.947 583.308 101.947C585.308 102.447 586.308 100.447 588.308 93.9473C588.308 93.9473 589.553 89.9326 588.308 87.9473C587.416 86.5241 585.816 86.7911 584.808 85.4473C583.308 83.4473 581.848 81.9872 578.808 81.4473C574.845 80.7433 569.814 83.4473 568.808 84.9473Z" fill="#03053E"/>
<path d="M576.308 115.447L578.308 114.947L580.808 161.947L565.308 158.947C565.308 158.947 569.778 147.831 571.808 140.447C574.438 130.882 576.308 115.447 576.308 115.447Z" fill="url(#paint70_linear)"/>
<path d="M587.808 111.947L578.308 114.947C578.308 114.947 577.953 132.181 575.808 142.947C573.648 153.789 567.308 169.947 567.308 169.947C567.308 169.947 601.308 171.447 604.308 161.947C607.308 152.447 587.808 111.947 587.808 111.947Z" fill="url(#paint71_linear)"/>
<path d="M584.808 158.447C581.453 163.001 564.808 163.447 564.808 163.447L562.808 157.447C562.808 157.447 573.193 155.947 574.808 154.447C581.808 147.947 571.808 118.447 584.808 118.447C597.808 118.447 591.808 148.947 584.808 158.447Z" fill="url(#paint72_linear)"/>
<path d="M556.808 159.947L544.808 160.947V163.447L556.808 162.447V159.947Z" fill="url(#paint73_linear)"/>
<path d="M557.308 159.947C557.808 160.197 563.308 157.947 563.308 157.947L564.808 162.947C564.808 162.947 561.071 162.9 558.308 163.947C557.083 164.412 556.6 165.232 555.308 165.447C552.724 165.878 546.904 164.159 548.308 161.947C549.105 160.692 552.979 161.758 552.808 160.947C552.638 160.137 550.73 160.66 550.308 159.947C549.308 158.257 555.308 158.947 557.308 159.947Z" fill="#EFBC90"/>
<path d="M524.808 145.447L526.808 163.447H545.308L542.808 145.447H524.808Z" fill="url(#paint74_linear)"/>
<g opacity="0.35">
<circle cx="534.308" cy="152.447" r="1.5" fill="#A3B7E9"/>
<circle cx="534.308" cy="152.447" r="1.5" fill="url(#paint75_linear)"/>
</g>
<defs>
<filter id="filter0_d" x="161.808" y="380.947" width="188" height="291" filterUnits="userSpaceOnUse" color-interpolation-filters="sRGB">
<feFlood flood-opacity="0" result="BackgroundImageFix"/>
<feColorMatrix in="SourceAlpha" type="matrix" values="0 0 0 0 0 0 0 0 0 0 0 0 0 0 0 0 0 0 127 0" result="hardAlpha"/>
<feOffset dy="4"/>
<feGaussianBlur stdDeviation="10"/>
<feColorMatrix type="matrix" values="0 0 0 0 0.729531 0 0 0 0 0.749846 0 0 0 0 0.8625 0 0 0 0.35 0"/>
<feBlend mode="normal" in2="BackgroundImageFix" result="effect1_dropShadow"/>
<feBlend mode="normal" in="SourceGraphic" in2="effect1_dropShadow" result="shape"/>
</filter>
<linearGradient id="paint0_linear" x1="475.308" y1="43.9473" x2="475.308" y2="679.947" gradientUnits="userSpaceOnUse">
<stop stop-color="#FFE2E4"/>
<stop offset="1" stop-color="#BAC2E8"/>
<stop offset="1" stop-color="white" stop-opacity="0"/>
</linearGradient>
<linearGradient id="paint1_linear" x1="7.18596" y1="279.742" x2="67.686" y2="376.742" gradientUnits="userSpaceOnUse">
<stop stop-color="#FBE0E4"/>
<stop offset="1" stop-color="#C3C6E8"/>
</linearGradient>
<linearGradient id="paint2_linear" x1="143.247" y1="40.1797" x2="361.808" y2="222.948" gradientUnits="userSpaceOnUse">
<stop stop-color="#FFE2E4"/>
<stop offset="0.244413" stop-color="#FFE2E4" stop-opacity="0.5"/>
<stop offset="0.460585" stop-color="#DBD5EA"/>
<stop offset="1" stop-color="#C4C7E8"/>
</linearGradient>
<linearGradient id="paint3_linear" x1="7.18596" y1="279.742" x2="67.686" y2="376.742" gradientUnits="userSpaceOnUse">
<stop stop-color="#FBE0E4"/>
<stop offset="1" stop-color="#C3C6E8"/>
</linearGradient>
<linearGradient id="paint4_linear" x1="143.247" y1="40.1797" x2="361.808" y2="222.948" gradientUnits="userSpaceOnUse">
<stop stop-color="#FFE2E4"/>
<stop offset="0.244413" stop-color="#FFE2E4" stop-opacity="0.5"/>
<stop offset="0.460585" stop-color="#DBD5EA"/>
<stop offset="1" stop-color="#C4C7E8"/>
</linearGradient>
<linearGradient id="paint5_linear" x1="186.308" y1="125.447" x2="440.808" y2="153.447" gradientUnits="userSpaceOnUse">
<stop stop-color="#FEFEFE"/>
<stop offset="0.427083" stop-color="#EBEEF9"/>
<stop offset="1" stop-color="#E8ECF8"/>
</linearGradient>
<linearGradient id="paint6_linear" x1="376.189" y1="146.402" x2="386.265" y2="180.14" gradientUnits="userSpaceOnUse">
<stop stop-color="#FFC1C2"/>
<stop offset="0.337568" stop-color="#FFC9CA"/>
<stop offset="1" stop-color="#FFDFE0"/>
<stop offset="1" stop-color="#FFDEDF"/>
</linearGradient>
<linearGradient id="paint7_linear" x1="83.8082" y1="238.835" x2="324.66" y2="477.244" gradientUnits="userSpaceOnUse">
<stop stop-color="#F9FAFD"/>
<stop offset="0.411891" stop-color="#F6F8FC"/>
<stop offset="1" stop-color="#E8EDF9"/>
</linearGradient>
<linearGradient id="paint8_linear" x1="127.003" y1="465.947" x2="223.808" y2="465.947" gradientUnits="userSpaceOnUse">
<stop stop-color="#FFC0C1"/>
<stop offset="0.319108" stop-color="#FEABA8"/>
<stop offset="0.717111" stop-color="#FEABA8"/>
<stop offset="1" stop-color="#FFC0C1"/>
</linearGradient>
<linearGradient id="paint9_linear" x1="130.319" y1="274.447" x2="276.298" y2="274.447" gradientUnits="userSpaceOnUse">
<stop stop-color="#C1D2FD"/>
<stop offset="1" stop-color="#A6B9EA"/>
</linearGradient>
<linearGradient id="paint10_linear" x1="104.409" y1="256.281" x2="276.208" y2="256.281" gradientUnits="userSpaceOnUse">
<stop stop-color="#C2D3FE"/>
<stop offset="1" stop-color="#A6B9EA"/>
</linearGradient>
<linearGradient id="paint11_linear" x1="149.123" y1="322.447" x2="160.117" y2="322.447" gradientUnits="userSpaceOnUse">
<stop stop-color="#B7C7EE"/>
<stop offset="0.9999" stop-color="#A3B7E9"/>
<stop offset="1" stop-color="white" stop-opacity="0"/>
</linearGradient>
<linearGradient id="paint12_linear" x1="167.388" y1="322.447" x2="178.382" y2="322.447" gradientUnits="userSpaceOnUse">
<stop stop-color="#B7C7EE"/>
<stop offset="0.9999" stop-color="#A3B7E9"/>
<stop offset="1" stop-color="white" stop-opacity="0"/>
</linearGradient>
<linearGradient id="paint13_linear" x1="185.653" y1="322.447" x2="196.647" y2="322.447" gradientUnits="userSpaceOnUse">
<stop stop-color="#B7C7EE"/>
<stop offset="0.9999" stop-color="#A3B7E9"/>
<stop offset="1" stop-color="white" stop-opacity="0"/>
</linearGradient>
<linearGradient id="paint14_linear" x1="203.917" y1="322.447" x2="214.911" y2="322.447" gradientUnits="userSpaceOnUse">
<stop stop-color="#B7C7EE"/>
<stop offset="0.9999" stop-color="#A3B7E9"/>
<stop offset="1" stop-color="white" stop-opacity="0"/>
</linearGradient>
<linearGradient id="paint15_linear" x1="222.182" y1="322.447" x2="233.176" y2="322.447" gradientUnits="userSpaceOnUse">
<stop stop-color="#B7C7EE"/>
<stop offset="0.9999" stop-color="#A3B7E9"/>
<stop offset="1" stop-color="white" stop-opacity="0"/>
</linearGradient>
<linearGradient id="paint16_linear" x1="112.511" y1="316.787" x2="123.276" y2="316.787" gradientUnits="userSpaceOnUse">
<stop stop-color="#4364D5"/>
<stop offset="0.9999" stop-color="#A3B7E9"/>
<stop offset="1" stop-color="#465DC3"/>
</linearGradient>
<linearGradient id="paint17_linear" x1="109.187" y1="327.663" x2="126.697" y2="327.663" gradientUnits="userSpaceOnUse">
<stop stop-color="#4364D5"/>
<stop offset="0.9999" stop-color="#A3B7E9"/>
<stop offset="1" stop-color="#465DC3"/>
</linearGradient>
<linearGradient id="paint18_linear" x1="149.123" y1="356.447" x2="160.117" y2="356.447" gradientUnits="userSpaceOnUse">
<stop stop-color="#B7C7EE"/>
<stop offset="0.9999" stop-color="#A3B7E9"/>
<stop offset="1" stop-color="white" stop-opacity="0"/>
</linearGradient>
<linearGradient id="paint19_linear" x1="167.388" y1="356.447" x2="178.382" y2="356.447" gradientUnits="userSpaceOnUse">
<stop stop-color="#B7C7EE"/>
<stop offset="0.9999" stop-color="#A3B7E9"/>
<stop offset="1" stop-color="white" stop-opacity="0"/>
</linearGradient>
<linearGradient id="paint20_linear" x1="185.653" y1="356.447" x2="196.647" y2="356.447" gradientUnits="userSpaceOnUse">
<stop stop-color="#B7C7EE"/>
<stop offset="0.9999" stop-color="#A3B7E9"/>
<stop offset="1" stop-color="white" stop-opacity="0"/>
</linearGradient>
<linearGradient id="paint21_linear" x1="203.917" y1="356.447" x2="214.911" y2="356.447" gradientUnits="userSpaceOnUse">
<stop stop-color="#B7C7EE"/>
<stop offset="0.9999" stop-color="#A3B7E9"/>
<stop offset="1" stop-color="white" stop-opacity="0"/>
</linearGradient>
<linearGradient id="paint22_linear" x1="222.182" y1="356.447" x2="233.176" y2="356.447" gradientUnits="userSpaceOnUse">
<stop stop-color="#B7C7EE"/>
<stop offset="0.9999" stop-color="#A3B7E9"/>
<stop offset="1" stop-color="white" stop-opacity="0"/>
</linearGradient>
<linearGradient id="paint23_linear" x1="240.447" y1="356.447" x2="251.441" y2="356.447" gradientUnits="userSpaceOnUse">
<stop stop-color="#B7C7EE"/>
<stop offset="0.9999" stop-color="#A3B7E9"/>
<stop offset="1" stop-color="white" stop-opacity="0"/>
</linearGradient>
<linearGradient id="paint24_linear" x1="108.109" y1="355.947" x2="127.808" y2="355.947" gradientUnits="userSpaceOnUse">
<stop stop-color="#4D6BD3"/>
<stop offset="0.9999" stop-color="#A3B7E9"/>
<stop offset="1" stop-color="#465DC3"/>
</linearGradient>
<linearGradient id="paint25_linear" x1="53.0823" y1="534.947" x2="201.808" y2="534.947" gradientUnits="userSpaceOnUse">
<stop stop-color="#B7C7EE"/>
<stop offset="0.9999" stop-color="#A3B7E9"/>
<stop offset="1" stop-color="white" stop-opacity="0"/>
</linearGradient>
<linearGradient id="paint26_linear" x1="70.3082" y1="527.447" x2="183.308" y2="640.447" gradientUnits="userSpaceOnUse">
<stop stop-color="#FFC1C2"/>
<stop offset="0.337568" stop-color="#FFC9CA"/>
<stop offset="0.591938" stop-color="#FFDADB"/>
<stop offset="1" stop-color="#FFDFE0"/>
<stop offset="1" stop-color="#FFDEDF"/>
</linearGradient>
<linearGradient id="paint27_linear" x1="652.107" y1="247.526" x2="817.145" y2="72.0019" gradientUnits="userSpaceOnUse">
<stop stop-color="#FFE2E4"/>
<stop offset="0.268957" stop-color="#CAC9E7" stop-opacity="0.5"/>
<stop offset="0.583989" stop-color="#C6C8E7" stop-opacity="0.948755"/>
<stop offset="0.9999" stop-color="#A4B8EA"/>
<stop offset="1" stop-color="#BAC2E8"/>
<stop offset="1" stop-color="white" stop-opacity="0"/>
<stop offset="1" stop-color="#A6B9EA"/>
</linearGradient>
<linearGradient id="paint28_linear" x1="705.808" y1="90.9473" x2="628.308" y2="188.447" gradientUnits="userSpaceOnUse">
<stop stop-color="#FFC0C0"/>
<stop offset="1" stop-color="#FFACAA"/>
</linearGradient>
<linearGradient id="paint29_linear" x1="834.522" y1="242.846" x2="834.522" y2="489.448" gradientUnits="userSpaceOnUse">
<stop stop-color="#FFE2E4"/>
<stop offset="1" stop-color="#BAC2E8"/>
<stop offset="1" stop-color="white" stop-opacity="0"/>
</linearGradient>
<linearGradient id="paint30_linear" x1="865.008" y1="403.477" x2="829.61" y2="522.064" gradientUnits="userSpaceOnUse">
<stop stop-color="#FFE2E4"/>
<stop offset="1" stop-color="#BAC2E8"/>
<stop offset="1" stop-color="white" stop-opacity="0"/>
</linearGradient>
<linearGradient id="paint31_linear" x1="627.808" y1="260.561" x2="812.485" y2="404.178" gradientUnits="userSpaceOnUse">
<stop stop-color="#F9FAFD"/>
<stop offset="0.411891" stop-color="#F6F8FC"/>
<stop offset="1" stop-color="#E8EDF9"/>
</linearGradient>
<linearGradient id="paint32_linear" x1="738.29" y1="402.947" x2="769.808" y2="402.947" gradientUnits="userSpaceOnUse">
<stop stop-color="#B7C7EE"/>
<stop offset="0.9999" stop-color="#A3B7E9"/>
<stop offset="1" stop-color="white" stop-opacity="0"/>
</linearGradient>
<linearGradient id="paint33_linear" x1="738.29" y1="410.947" x2="769.808" y2="410.947" gradientUnits="userSpaceOnUse">
<stop stop-color="#B7C7EE"/>
<stop offset="0.9999" stop-color="#A3B7E9"/>
<stop offset="1" stop-color="white" stop-opacity="0"/>
</linearGradient>
<linearGradient id="paint34_linear" x1="632.808" y1="429.483" x2="762.12" y2="462.187" gradientUnits="userSpaceOnUse">
<stop stop-color="#FFE2E4"/>
<stop offset="1" stop-color="#BAC2E8"/>
<stop offset="1" stop-color="#AFBFEC"/>
</linearGradient>
<linearGradient id="paint35_linear" x1="632.808" y1="440.043" x2="762.12" y2="472.747" gradientUnits="userSpaceOnUse">
<stop stop-color="#FFE2E4"/>
<stop offset="1" stop-color="#BAC2E8"/>
<stop offset="1" stop-color="#AFBFEC"/>
</linearGradient>
<linearGradient id="paint36_linear" x1="632.808" y1="449.643" x2="762.12" y2="482.348" gradientUnits="userSpaceOnUse">
<stop stop-color="#FFE2E4"/>
<stop offset="1" stop-color="#BAC2E8"/>
<stop offset="1" stop-color="#AFBFEC"/>
</linearGradient>
<linearGradient id="paint37_linear" x1="666.808" y1="402.547" x2="698.841" y2="404.364" gradientUnits="userSpaceOnUse">
<stop stop-color="#FFE2E4"/>
<stop offset="1" stop-color="#BAC2E8"/>
<stop offset="1" stop-color="#AFBFEC"/>
</linearGradient>
<linearGradient id="paint38_linear" x1="666.808" y1="410.547" x2="698.841" y2="412.364" gradientUnits="userSpaceOnUse">
<stop stop-color="#FFE2E4"/>
<stop offset="1" stop-color="#BAC2E8"/>
<stop offset="1" stop-color="#AFBFEC"/>
</linearGradient>
<linearGradient id="paint39_linear" x1="652.308" y1="397.947" x2="652.308" y2="412.947" gradientUnits="userSpaceOnUse">
<stop stop-color="#FFE2E4"/>
<stop offset="1" stop-color="#BAC2E8"/>
<stop offset="1" stop-color="white" stop-opacity="0"/>
</linearGradient>
<linearGradient id="paint40_linear" x1="717.049" y1="407.447" x2="732.808" y2="407.447" gradientUnits="userSpaceOnUse">
<stop stop-color="#758BD6"/>
<stop offset="0.9999" stop-color="#A3B7E9"/>
<stop offset="1" stop-color="#465DC3"/>
</linearGradient>
<linearGradient id="paint41_linear" x1="678.808" y1="269.947" x2="724.808" y2="272.947" gradientUnits="userSpaceOnUse">
<stop stop-color="#FFE2E4"/>
<stop offset="1" stop-color="#BAC2E8"/>
<stop offset="1" stop-color="#AFBFEC"/>
</linearGradient>
<linearGradient id="paint42_linear" x1="659.808" y1="263.947" x2="659.808" y2="287.947" gradientUnits="userSpaceOnUse">
<stop stop-color="#FFE2E4"/>
<stop offset="1" stop-color="#BAC2E8"/>
<stop offset="1" stop-color="white" stop-opacity="0"/>
</linearGradient>
<linearGradient id="paint43_linear" x1="678.808" y1="279.947" x2="758.128" y2="288.944" gradientUnits="userSpaceOnUse">
<stop stop-color="#FFE2E4"/>
<stop offset="1" stop-color="#BAC2E8"/>
<stop offset="1" stop-color="#AFBFEC"/>
</linearGradient>
<linearGradient id="paint44_linear" x1="647.808" y1="333.947" x2="770.316" y2="335.124" gradientUnits="userSpaceOnUse">
<stop stop-color="#FFE2E4"/>
<stop offset="1" stop-color="#BAC2E8"/>
<stop offset="1" stop-color="#AFBFEC"/>
</linearGradient>
<linearGradient id="paint45_linear" x1="644.808" y1="333.947" x2="770.328" y2="335.183" gradientUnits="userSpaceOnUse">
<stop stop-color="#FFE2E4"/>
<stop offset="1" stop-color="#BAC2E8"/>
<stop offset="1" stop-color="#AFBFEC"/>
</linearGradient>
<linearGradient id="paint46_linear" x1="646.417" y1="369.73" x2="710.631" y2="410.842" gradientUnits="userSpaceOnUse">
<stop stop-color="#6A80D1"/>
<stop offset="0.9999" stop-color="#465CC3"/>
<stop offset="1" stop-color="white" stop-opacity="0"/>
<stop offset="1" stop-color="#465DC3"/>
</linearGradient>
<linearGradient id="paint47_linear" x1="700.319" y1="375.12" x2="752.005" y2="409.568" gradientUnits="userSpaceOnUse">
<stop stop-color="#6A80D1"/>
<stop offset="0.9999" stop-color="#465CC3"/>
<stop offset="1" stop-color="white" stop-opacity="0"/>
<stop offset="1" stop-color="#465DC3"/>
</linearGradient>
<linearGradient id="paint48_linear" x1="711.808" y1="465.947" x2="711.808" y2="628.29" gradientUnits="userSpaceOnUse">
<stop stop-color="#B1C2EC"/>
<stop offset="1" stop-color="#A4B8E9"/>
</linearGradient>
<linearGradient id="paint49_linear" x1="809" y1="568.499" x2="612.609" y2="565.899" gradientUnits="userSpaceOnUse">
<stop stop-color="#E7ECF9"/>
<stop offset="0.491388" stop-color="#EAEEFA" stop-opacity="0.894858"/>
<stop offset="1" stop-color="white" stop-opacity="0"/>
</linearGradient>
<linearGradient id="paint50_linear" x1="664" y1="598.111" x2="613.635" y2="597.924" gradientUnits="userSpaceOnUse">
<stop stop-color="#E7ECF9"/>
<stop offset="0.491388" stop-color="#EAEEFA" stop-opacity="0.894858"/>
<stop offset="1" stop-color="white" stop-opacity="0"/>
</linearGradient>
<linearGradient id="paint51_linear" x1="737" y1="598.244" x2="686.635" y2="598.057" gradientUnits="userSpaceOnUse">
<stop stop-color="#E7ECF9"/>
<stop offset="0.491388" stop-color="#EAEEFA" stop-opacity="0.894858"/>
<stop offset="1" stop-color="white" stop-opacity="0"/>
</linearGradient>
<linearGradient id="paint52_linear" x1="809" y1="598.244" x2="758.635" y2="598.057" gradientUnits="userSpaceOnUse">
<stop stop-color="#E7ECF9"/>
<stop offset="0.491388" stop-color="#EAEEFA" stop-opacity="0.894858"/>
<stop offset="1" stop-color="white" stop-opacity="0"/>
</linearGradient>
<linearGradient id="paint53_linear" x1="326.187" y1="185.935" x2="594.384" y2="553.312" gradientUnits="userSpaceOnUse">
<stop stop-color="#B6C6EE"/>
<stop offset="1" stop-color="#A3B7E9"/>
</linearGradient>
<linearGradient id="paint54_linear" x1="326.187" y1="185.935" x2="594.384" y2="553.312" gradientUnits="userSpaceOnUse">
<stop stop-color="#B6C6EE"/>
<stop offset="1" stop-color="#A3B7E9"/>
</linearGradient>
<linearGradient id="paint55_linear" x1="604.113" y1="453.213" x2="305.713" y2="276.669" gradientUnits="userSpaceOnUse">
<stop stop-color="#455CC3"/>
<stop offset="0.442144" stop-color="#6379CF" stop-opacity="0.5"/>
<stop offset="0.69664" stop-color="#7187D4"/>
<stop offset="1" stop-color="#788DD7"/>
</linearGradient>
<linearGradient id="paint56_linear" x1="604.113" y1="453.213" x2="305.713" y2="276.669" gradientUnits="userSpaceOnUse">
<stop stop-color="#455CC3"/>
<stop offset="0.442144" stop-color="#6379CF" stop-opacity="0.5"/>
<stop offset="0.69664" stop-color="#7187D4"/>
<stop offset="1" stop-color="#788DD7"/>
</linearGradient>
<linearGradient id="paint57_linear" x1="525.003" y1="420.469" x2="413.646" y2="328.15" gradientUnits="userSpaceOnUse">
<stop stop-color="#1329A7"/>
<stop offset="1" stop-color="#4259C1"/>
</linearGradient>
<linearGradient id="paint58_linear" x1="407.964" y1="54.6232" x2="517.21" y2="96.6069" gradientUnits="userSpaceOnUse">
<stop stop-color="#FFE2E4"/>
<stop offset="1" stop-color="#BAC2E8"/>
<stop offset="1" stop-color="white" stop-opacity="0"/>
</linearGradient>
<linearGradient id="paint59_linear" x1="521.295" y1="105.055" x2="555.511" y2="130.029" gradientUnits="userSpaceOnUse">
<stop stop-color="#FFE2E4"/>
<stop offset="1" stop-color="#BAC2E8"/>
<stop offset="1" stop-color="white" stop-opacity="0"/>
</linearGradient>
<linearGradient id="paint60_linear" x1="181.808" y1="406.307" x2="374.25" y2="536.974" gradientUnits="userSpaceOnUse">
<stop stop-color="#F9FAFD"/>
<stop offset="0.411891" stop-color="#F6F8FC"/>
<stop offset="1" stop-color="#E8EDF9"/>
</linearGradient>
<linearGradient id="paint61_linear" x1="215.86" y1="437.81" x2="294.201" y2="437.81" gradientUnits="userSpaceOnUse">
<stop stop-color="#C1D2FD"/>
<stop offset="1" stop-color="#A6B9EA"/>
</linearGradient>
<linearGradient id="paint62_linear" x1="203.173" y1="422.353" x2="307.444" y2="422.353" gradientUnits="userSpaceOnUse">
<stop stop-color="#C2D3FE"/>
<stop offset="1" stop-color="#A6B9EA"/>
</linearGradient>
<linearGradient id="paint63_linear" x1="324.808" y1="518.948" x2="349.132" y2="579.363" gradientUnits="userSpaceOnUse">
<stop stop-color="#6A80D1"/>
<stop offset="0.9999" stop-color="#465CC3"/>
<stop offset="1" stop-color="white" stop-opacity="0"/>
<stop offset="1" stop-color="#465DC3"/>
</linearGradient>
<linearGradient id="paint64_linear" x1="337.308" y1="517.947" x2="378.909" y2="572.869" gradientUnits="userSpaceOnUse">
<stop stop-color="#6A80D1"/>
<stop offset="0.9999" stop-color="#465CC3"/>
<stop offset="1" stop-color="white" stop-opacity="0"/>
<stop offset="1" stop-color="#465DC3"/>
</linearGradient>
<linearGradient id="paint65_linear" x1="331.808" y1="546.609" x2="348.209" y2="551.3" gradientUnits="userSpaceOnUse">
<stop stop-color="#6A80D1"/>
<stop offset="0.9999" stop-color="#465CC3"/>
<stop offset="1" stop-color="white" stop-opacity="0"/>
<stop offset="1" stop-color="#465DC3"/>
</linearGradient>
<linearGradient id="paint66_linear" x1="322.308" y1="542.447" x2="361.439" y2="594.837" gradientUnits="userSpaceOnUse">
<stop stop-color="#6A80D1"/>
<stop offset="0.9999" stop-color="#465CC3"/>
<stop offset="1" stop-color="white" stop-opacity="0"/>
<stop offset="1" stop-color="#465DC3"/>
</linearGradient>
<linearGradient id="paint67_linear" x1="519.808" y1="189.447" x2="567.619" y2="211.804" gradientUnits="userSpaceOnUse">
<stop stop-color="#435AC2"/>
<stop offset="0.25" stop-color="#263DB1"/>
<stop offset="0.526042" stop-color="#182EA9"/>
<stop offset="0.9999" stop-color="#0F24A4"/>
<stop offset="1" stop-color="white" stop-opacity="0"/>
<stop offset="1" stop-color="#0F24A4"/>
</linearGradient>
<linearGradient id="paint68_linear" x1="528.09" y1="183.227" x2="562.933" y2="218.433" gradientUnits="userSpaceOnUse">
<stop stop-color="#435AC2"/>
<stop offset="0.25" stop-color="#263DB1"/>
<stop offset="0.526042" stop-color="#182EA9"/>
<stop offset="0.9999" stop-color="#0F24A4"/>
<stop offset="1" stop-color="white" stop-opacity="0"/>
<stop offset="1" stop-color="#0F24A4"/>
</linearGradient>
<linearGradient id="paint69_linear" x1="556.308" y1="154.197" x2="565.562" y2="160.461" gradientUnits="userSpaceOnUse">
<stop stop-color="#6A80D1"/>
<stop offset="0.9999" stop-color="#465CC3"/>
<stop offset="1" stop-color="white" stop-opacity="0"/>
<stop offset="1" stop-color="#465DC3"/>
</linearGradient>
<linearGradient id="paint70_linear" x1="576.808" y1="115.447" x2="594.456" y2="142.605" gradientUnits="userSpaceOnUse">
<stop stop-color="#FFB2B0"/>
<stop offset="0.577292" stop-color="#FFBBBA"/>
<stop offset="1" stop-color="#FFDADB"/>
<stop offset="1" stop-color="#FFC9CA"/>
<stop offset="1" stop-color="#FFBEBF"/>
<stop offset="1" stop-color="#FFDEDF"/>
</linearGradient>
<linearGradient id="paint71_linear" x1="567.308" y1="140.99" x2="601.786" y2="153.099" gradientUnits="userSpaceOnUse">
<stop stop-color="#6A80D1"/>
<stop offset="0.9999" stop-color="#465CC3"/>
<stop offset="1" stop-color="#465DC3"/>
<stop offset="1" stop-color="white" stop-opacity="0"/>
</linearGradient>
<linearGradient id="paint72_linear" x1="566.308" y1="137.947" x2="607.839" y2="155.312" gradientUnits="userSpaceOnUse">
<stop stop-color="#435AC2"/>
<stop offset="0.25" stop-color="#263DB1"/>
<stop offset="0.526042" stop-color="#182EA9"/>
<stop offset="0.9999" stop-color="#0F24A4"/>
<stop offset="1" stop-color="white" stop-opacity="0"/>
<stop offset="1" stop-color="#0F24A4"/>
</linearGradient>
<linearGradient id="paint73_linear" x1="544.808" y1="161.697" x2="547.568" y2="166.87" gradientUnits="userSpaceOnUse">
<stop stop-color="#6A80D1"/>
<stop offset="0.9999" stop-color="#465CC3"/>
<stop offset="1" stop-color="white" stop-opacity="0"/>
<stop offset="1" stop-color="#465DC3"/>
</linearGradient>
<linearGradient id="paint74_linear" x1="524.808" y1="154.447" x2="542.699" y2="173.129" gradientUnits="userSpaceOnUse">
<stop stop-color="#6A80D1"/>
<stop offset="0.9999" stop-color="#465CC3"/>
<stop offset="1" stop-color="white" stop-opacity="0"/>
<stop offset="1" stop-color="#465DC3"/>
</linearGradient>
<linearGradient id="paint75_linear" x1="532.853" y1="152.447" x2="535.808" y2="152.447" gradientUnits="userSpaceOnUse">
<stop stop-color="#B7C7EE"/>
<stop offset="0.9999" stop-color="#A3B7E9"/>
<stop offset="1" stop-color="white" stop-opacity="0"/>
</linearGradient>
</defs>
</svg>
